<svg width="152" height="40" viewBox="0 0 152 40" fill="none" xmlns="http://www.w3.org/2000/svg">
<path d="M24.0261 18.5855C23.9859 14.1701 27.6835 12.0219 27.8526 11.9219C25.7585 8.90384 22.5127 8.49148 21.3721 8.4586C18.646 8.17501 16.0017 10.0711 14.6131 10.0711C13.1967 10.0711 11.0582 8.486 8.75348 8.53258C5.78765 8.57779 3.01308 10.2752 1.49136 12.911C-1.64909 18.2855 0.693083 26.1835 3.70187 30.5277C5.20696 32.6553 6.96567 35.0308 9.26765 34.9472C11.5197 34.8554 12.361 33.5279 15.0787 33.5279C17.7715 33.5279 18.5615 34.9472 20.9092 34.8938C23.3262 34.8554 24.8479 32.7566 26.3004 30.6099C28.0397 28.1713 28.7382 25.7697 28.7659 25.6464C28.7091 25.6272 24.0718 23.8778 24.0261 18.5855Z" fill="white"/>
<path d="M19.5913 5.60089C20.8025 4.10349 21.6313 2.06633 21.4013 -0.000976562C19.6481 0.0757425 17.4556 1.19776 16.193 2.66227C15.076 3.9528 14.0782 6.06805 14.3359 8.05727C16.3053 8.20249 18.3273 7.07499 19.5913 5.60089Z" fill="white"/>
<path d="M56.6175 34.6419H53.4701L51.746 29.2866H45.7534L44.1111 34.6419H41.0469L46.9841 16.4102H50.6512L56.6175 34.6419ZM51.2263 27.0399L49.6672 22.2792C49.5023 21.7928 49.1932 20.6475 48.7372 18.8446H48.6818C48.5002 19.62 48.2078 20.7653 47.8059 22.2792L46.2745 27.0399H51.2263V27.0399Z" fill="white"/>
<path d="M71.8852 27.908C71.8852 30.1438 71.274 31.9111 70.0517 33.2084C68.9568 34.3633 67.5972 34.9401 65.9744 34.9401C64.2226 34.9401 62.9642 34.3181 62.1978 33.0742H62.1423V39.9995H59.1876V25.8242C59.1876 24.4186 59.1502 22.976 59.0781 21.4964H61.6767L61.8416 23.5802H61.897C62.8824 22.0102 64.3778 21.2266 66.3846 21.2266C67.9534 21.2266 69.2631 21.8389 70.3108 23.0651C71.3614 24.2926 71.8852 25.9064 71.8852 27.908ZM68.8751 28.0148C68.8751 26.7353 68.584 25.6804 67.9992 24.8502C67.3603 23.9843 66.5024 23.5514 65.4269 23.5514C64.6979 23.5514 64.0355 23.7925 63.4437 24.2679C62.8505 24.7474 62.4625 25.3735 62.2809 26.1489C62.1895 26.5106 62.1437 26.8065 62.1437 27.0394V29.2314C62.1437 30.1876 62.4403 30.9945 63.0335 31.6535C63.6266 32.3125 64.3972 32.6413 65.3452 32.6413C66.458 32.6413 67.3242 32.2166 67.9437 31.3699C68.5646 30.5219 68.8751 29.404 68.8751 28.0148Z" fill="white"/>
<path d="M87.1827 27.908C87.1827 30.1438 86.5715 31.9111 85.3477 33.2084C84.2543 34.3633 82.8947 34.9401 81.2718 34.9401C79.52 34.9401 78.2616 34.3181 77.4966 33.0742H77.4412V39.9995H74.4864V25.8242C74.4864 24.4186 74.449 22.976 74.377 21.4964H76.9755L77.1404 23.5802H77.1959C78.1799 22.0102 79.6753 21.2266 81.6834 21.2266C83.2509 21.2266 84.5606 21.8389 85.6111 23.0651C86.6574 24.2926 87.1827 25.9064 87.1827 27.908ZM84.1725 28.0148C84.1725 26.7353 83.8801 25.6804 83.2952 24.8502C82.6563 23.9843 81.8012 23.5514 80.7244 23.5514C79.994 23.5514 79.3329 23.7925 78.7398 24.2679C78.1466 24.7474 77.7599 25.3735 77.5784 26.1489C77.4883 26.5106 77.4412 26.8065 77.4412 27.0394V29.2314C77.4412 30.1876 77.7378 30.9945 78.3282 31.6535C78.9213 32.3111 79.6919 32.6413 80.6426 32.6413C81.7555 32.6413 82.6217 32.2166 83.2412 31.3699C83.8621 30.5219 84.1725 29.404 84.1725 28.0148Z" fill="white"/>
<path d="M104.284 29.5297C104.284 31.0805 103.739 32.3422 102.646 33.3163C101.444 34.3808 99.7713 34.9123 97.6218 34.9123C95.6372 34.9123 94.0461 34.5342 92.8418 33.7766L93.5264 31.3422C94.8236 32.1176 96.247 32.5066 97.7978 32.5066C98.9107 32.5066 99.7768 32.2573 100.399 31.7614C101.019 31.2654 101.328 30.5996 101.328 29.7694C101.328 29.0296 101.073 28.4063 100.561 27.9008C100.053 27.3952 99.2031 26.9253 98.0167 26.491C94.7876 25.3005 93.1744 23.5565 93.1744 21.2632C93.1744 19.7644 93.7399 18.5355 94.8721 17.5793C96.0003 16.6217 97.5054 16.1436 99.3874 16.1436C101.066 16.1436 102.46 16.4326 103.573 17.0094L102.834 19.3904C101.795 18.8315 100.619 18.552 99.3043 18.552C98.2648 18.552 97.4527 18.8054 96.8706 19.3096C96.3786 19.7603 96.1319 20.3097 96.1319 20.9604C96.1319 21.681 96.4133 22.277 96.9787 22.7455C97.4707 23.1784 98.3646 23.647 99.6618 24.1525C101.249 24.784 102.414 25.5225 103.164 26.3691C103.911 27.213 104.284 28.2693 104.284 29.5297Z" fill="white"/>
<path d="M114.052 23.6883H110.795V30.0711C110.795 31.6945 111.369 32.5055 112.52 32.5055C113.048 32.5055 113.485 32.4603 113.832 32.3699L113.914 34.5879C113.332 34.803 112.565 34.9112 111.616 34.9112C110.449 34.9112 109.537 34.5591 108.879 33.8563C108.223 33.1522 107.893 31.9712 107.893 30.3122V23.6856H105.953V21.4936H107.893V19.0865L110.795 18.2207V21.4936H114.052V23.6883Z" fill="white"/>
<path d="M128.749 27.961C128.749 29.9817 128.164 31.6408 126.997 32.9382C125.773 34.2739 124.149 34.9397 122.124 34.9397C120.173 34.9397 118.619 34.2999 117.461 33.0204C116.302 31.7408 115.723 30.1256 115.723 28.1788C115.723 26.1417 116.319 24.473 117.515 23.1757C118.708 21.8769 120.318 21.2275 122.343 21.2275C124.294 21.2275 125.865 21.8673 127.05 23.1483C128.183 24.3908 128.749 25.9951 128.749 27.961ZM125.683 28.0555C125.683 26.8431 125.421 25.8033 124.89 24.9361C124.271 23.8867 123.385 23.3633 122.238 23.3633C121.05 23.3633 120.148 23.888 119.528 24.9361C118.998 25.8047 118.736 26.8609 118.736 28.1103C118.736 29.3228 118.998 30.3626 119.528 31.2284C120.167 32.2778 121.06 32.8012 122.211 32.8012C123.34 32.8012 124.225 32.2669 124.864 31.201C125.409 30.3174 125.683 29.2666 125.683 28.0555Z" fill="white"/>
<path d="M138.352 24.0652C138.059 24.0117 137.747 23.9843 137.42 23.9843C136.381 23.9843 135.577 24.372 135.012 25.1488C134.52 25.8338 134.273 26.6996 134.273 27.7449V34.6428H131.319L131.347 25.6365C131.347 24.1213 131.31 22.7418 131.236 21.4978H133.81L133.918 24.0131H134C134.312 23.1487 134.804 22.4527 135.477 21.9307C136.135 21.4608 136.846 21.2266 137.613 21.2266C137.886 21.2266 138.133 21.2457 138.352 21.28V24.0652Z" fill="white"/>
<path d="M151.567 27.4479C151.567 27.9712 151.532 28.4124 151.459 28.7727H142.595C142.629 30.0714 143.058 31.0647 143.881 31.7497C144.628 32.362 145.594 32.6689 146.78 32.6689C148.093 32.6689 149.29 32.462 150.367 32.0469L150.83 34.0745C149.571 34.617 148.086 34.8869 146.371 34.8869C144.309 34.8869 142.69 34.2869 141.512 33.0881C140.337 31.8894 139.748 30.2797 139.748 28.2603C139.748 26.2779 140.295 24.6271 141.392 23.3106C142.539 21.9049 144.09 21.2021 146.041 21.2021C147.958 21.2021 149.409 21.9049 150.395 23.3106C151.175 24.4271 151.567 25.808 151.567 27.4479ZM148.749 26.6903C148.769 25.8245 148.576 25.0765 148.176 24.4449C147.664 23.6325 146.879 23.227 145.821 23.227C144.855 23.227 144.069 23.6229 143.469 24.4175C142.977 25.0491 142.685 25.8067 142.595 26.6889H148.749V26.6903Z" fill="white"/>
<path d="M50.2506 5.19361C50.2506 6.80608 49.7613 8.01989 48.7843 8.83503C47.8793 9.58715 46.5932 9.96389 44.9273 9.96389C44.1013 9.96389 43.3945 9.92827 42.8027 9.85703V1.04667C43.5747 0.92337 44.4062 0.860352 45.3043 0.860352C46.8911 0.860352 48.0872 1.20148 48.8938 1.88373C49.7974 2.65503 50.2506 3.75787 50.2506 5.19361ZM48.7191 5.23334C48.7191 4.18804 48.4392 3.3866 47.8793 2.82765C47.3194 2.27006 46.5017 1.99059 45.4249 1.99059C44.9675 1.99059 44.5781 2.02073 44.2552 2.08375V8.7816C44.4339 8.809 44.761 8.82133 45.2364 8.82133C46.3479 8.82133 47.2057 8.51582 47.81 7.90481C48.4142 7.29379 48.7191 6.40331 48.7191 5.23334Z" fill="white"/>
<path d="M58.3714 6.60206C58.3714 7.5953 58.0845 8.40907 57.5107 9.04748C56.9092 9.70371 56.1123 10.0311 55.1173 10.0311C54.1582 10.0311 53.3946 9.71741 52.825 9.08721C52.2568 8.45839 51.9727 7.66517 51.9727 6.70892C51.9727 5.70883 52.2651 4.88821 52.8527 4.25117C53.4403 3.61413 54.2303 3.29492 55.2254 3.29492C56.1844 3.29492 56.955 3.60865 57.5384 4.23747C58.0928 4.84848 58.3714 5.63759 58.3714 6.60206ZM56.8649 6.64864C56.8649 6.0527 56.7346 5.54169 56.4754 5.11563C56.1705 4.60052 55.7368 4.34296 55.1727 4.34296C54.5892 4.34296 54.1457 4.60052 53.8408 5.11563C53.5803 5.54169 53.4514 6.06092 53.4514 6.67467C53.4514 7.27061 53.5817 7.78162 53.8408 8.20768C54.1554 8.7228 54.5934 8.98035 55.1588 8.98035C55.7132 8.98035 56.1484 8.71869 56.4616 8.19398C56.7304 7.7597 56.8649 7.24459 56.8649 6.64864Z" fill="white"/>
<path d="M69.2587 3.42676L67.2145 9.88486H65.884L65.0372 7.0805C64.8224 6.38044 64.6478 5.68449 64.512 4.99402H64.4856C64.3595 5.70367 64.1849 6.39825 63.9604 7.0805L63.0609 9.88486H61.7152L59.793 3.42676H61.2856L62.0243 6.49689C62.203 7.22298 62.35 7.91483 62.4678 8.56968H62.4941C62.6022 8.0299 62.781 7.34217 63.0332 6.51059L63.9604 3.42813H65.1439L66.0323 6.44483C66.2471 7.18051 66.4217 7.8888 66.5562 8.57105H66.5964C66.6948 7.90661 66.843 7.19832 67.0398 6.44483L67.8326 3.42813H69.2587V3.42676Z" fill="white"/>
<path d="M76.789 9.88377H75.3366V6.18481C75.3366 5.04499 74.8987 4.47507 74.02 4.47507C73.589 4.47507 73.2411 4.63125 72.9709 4.94498C72.7034 5.25871 72.5676 5.6286 72.5676 6.05193V9.8824H71.1152V5.27104C71.1152 4.70386 71.0971 4.08874 71.0625 3.42293H72.3389L72.4068 4.43261H72.447C72.6161 4.11888 72.8683 3.85995 73.1996 3.65309C73.5932 3.41197 74.0339 3.29004 74.5162 3.29004C75.126 3.29004 75.6332 3.48458 76.0365 3.87502C76.5382 4.35315 76.789 5.06691 76.789 6.01494V9.88377V9.88377Z" fill="white"/>
<path d="M80.7928 9.88427H79.3418V0.462891H80.7928V9.88427Z" fill="white"/>
<path d="M89.344 6.60206C89.344 7.5953 89.0571 8.40907 88.4834 9.04748C87.8819 9.70371 87.0836 10.0311 86.0899 10.0311C85.1295 10.0311 84.3659 9.71741 83.7976 9.08721C83.2294 8.45839 82.9453 7.66517 82.9453 6.70892C82.9453 5.70883 83.2377 4.88821 83.8254 4.25117C84.413 3.61413 85.2029 3.29492 86.1966 3.29492C87.1571 3.29492 87.9262 3.60865 88.5111 4.23747C89.0654 4.84848 89.344 5.63759 89.344 6.60206ZM87.8362 6.64864C87.8362 6.0527 87.7059 5.54169 87.4467 5.11563C87.1432 4.60052 86.708 4.34296 86.1454 4.34296C85.5605 4.34296 85.117 4.60052 84.8135 5.11563C84.553 5.54169 84.4241 6.06092 84.4241 6.67467C84.4241 7.27061 84.5543 7.78162 84.8135 8.20768C85.1281 8.7228 85.5661 8.98035 86.1315 8.98035C86.6859 8.98035 87.1196 8.71869 87.4329 8.19398C87.7031 7.7597 87.8362 7.24459 87.8362 6.64864Z" fill="white"/>
<path d="M96.3732 9.88454H95.0691L94.961 9.14064H94.9208C94.4745 9.73385 93.8384 10.0311 93.0124 10.0311C92.3957 10.0311 91.8967 9.83522 91.5212 9.44615C91.1802 9.09269 91.0098 8.65293 91.0098 8.13096C91.0098 7.34185 91.3424 6.74043 92.0118 6.32396C92.6798 5.90748 93.6194 5.70335 94.8293 5.71294V5.59238C94.8293 4.74162 94.3775 4.31693 93.4725 4.31693C92.8281 4.31693 92.2599 4.47722 91.7692 4.79505L91.474 3.8525C92.0811 3.48124 92.8308 3.29492 93.715 3.29492C95.4225 3.29492 96.279 4.18541 96.279 5.96639V8.34468C96.279 8.98994 96.3108 9.50369 96.3732 9.88454ZM94.8653 7.66517V6.66919C93.2632 6.64179 92.4622 7.07608 92.4622 7.97068C92.4622 8.30769 92.5537 8.55977 92.7408 8.72828C92.9279 8.89679 93.1662 8.98035 93.4503 8.98035C93.7691 8.98035 94.0671 8.88035 94.3387 8.6817C94.6117 8.48168 94.7794 8.22823 94.8418 7.91725C94.857 7.84738 94.8653 7.76244 94.8653 7.66517Z" fill="white"/>
<path d="M104.625 9.88427H103.336L103.268 8.84719H103.228C102.817 9.6363 102.115 10.0309 101.13 10.0309C100.343 10.0309 99.6873 9.72535 99.1675 9.11434C98.6478 8.50333 98.3887 7.7101 98.3887 6.73605C98.3887 5.69075 98.67 4.8441 99.2355 4.19747C99.7829 3.59467 100.454 3.29328 101.252 3.29328C102.129 3.29328 102.743 3.58508 103.092 4.17007H103.12V0.462891H104.574V8.14439C104.574 8.77321 104.591 9.35271 104.625 9.88427ZM103.12 7.16074V6.08393C103.12 5.89762 103.106 5.74692 103.08 5.63184C102.998 5.2866 102.822 4.99617 102.555 4.7619C102.284 4.52763 101.959 4.40981 101.583 4.40981C101.041 4.40981 100.617 4.62216 100.305 5.04823C99.9963 5.47429 99.8397 6.01817 99.8397 6.68262C99.8397 7.32103 99.988 7.83888 100.286 8.23755C100.601 8.66224 101.025 8.87459 101.555 8.87459C102.032 8.87459 102.413 8.69786 102.703 8.34304C102.983 8.01561 103.12 7.62106 103.12 7.16074Z" fill="white"/>
<path d="M117.049 6.60206C117.049 7.5953 116.762 8.40907 116.188 9.04748C115.587 9.70371 114.791 10.0311 113.795 10.0311C112.837 10.0311 112.074 9.71741 111.503 9.08721C110.935 8.45839 110.65 7.66517 110.65 6.70892C110.65 5.70883 110.943 4.88821 111.53 4.25117C112.118 3.61413 112.908 3.29492 113.904 3.29492C114.862 3.29492 115.634 3.60865 116.216 4.23747C116.771 4.84848 117.049 5.63759 117.049 6.60206ZM115.544 6.64864C115.544 6.0527 115.414 5.54169 115.155 5.11563C114.848 4.60052 114.416 4.34296 113.85 4.34296C113.268 4.34296 112.825 4.60052 112.519 5.11563C112.258 5.54169 112.129 6.06092 112.129 6.67467C112.129 7.27061 112.259 7.78162 112.519 8.20768C112.833 8.7228 113.271 8.98035 113.837 8.98035C114.391 8.98035 114.828 8.71869 115.141 8.19398C115.408 7.7597 115.544 7.24459 115.544 6.64864Z" fill="white"/>
<path d="M124.858 9.88377H123.407V6.18481C123.407 5.04499 122.969 4.47507 122.089 4.47507C121.658 4.47507 121.31 4.63125 121.041 4.94498C120.772 5.25871 120.638 5.6286 120.638 6.05193V9.8824H119.184V5.27104C119.184 4.70386 119.167 4.08874 119.133 3.42293H120.408L120.476 4.43261H120.516C120.686 4.11888 120.939 3.85995 121.268 3.65309C121.663 3.41197 122.103 3.29004 122.586 3.29004C123.195 3.29004 123.702 3.48458 124.105 3.87502C124.609 4.35315 124.858 5.06691 124.858 6.01494V9.88377V9.88377Z" fill="white"/>
<path d="M134.631 4.50216H133.032V7.63942C133.032 8.43675 133.316 8.83542 133.879 8.83542C134.139 8.83542 134.355 8.8135 134.526 8.76829L134.563 9.85743C134.276 9.96428 133.9 10.0177 133.435 10.0177C132.861 10.0177 132.415 9.8451 132.092 9.49986C131.768 9.15462 131.607 8.57375 131.607 7.75861V4.50216H130.652V3.42672H131.607V2.24305L133.031 1.81836V3.42535H134.63V4.50216H134.631Z" fill="white"/>
<path d="M142.322 9.88427H140.869V6.21271C140.869 5.05508 140.431 4.47557 139.553 4.47557C138.88 4.47557 138.42 4.81122 138.167 5.48251C138.124 5.62362 138.099 5.79624 138.099 5.999V9.8829H136.648V0.462891H138.099V4.35502H138.127C138.585 3.64673 139.24 3.29328 140.09 3.29328C140.691 3.29328 141.189 3.48781 141.584 3.87826C142.076 4.3646 142.322 5.08796 142.322 6.04421V9.88427V9.88427Z" fill="white"/>
<path d="M150.254 6.34962C150.254 6.60718 150.234 6.82363 150.2 7.00036H145.844C145.863 7.63878 146.071 8.12512 146.474 8.46214C146.843 8.76353 147.318 8.91423 147.9 8.91423C148.545 8.91423 149.132 8.81285 149.662 8.60872L149.889 9.60607C149.27 9.87185 148.541 10.0047 147.697 10.0047C146.685 10.0047 145.888 9.71019 145.312 9.1211C144.732 8.53201 144.445 7.74152 144.445 6.74966C144.445 5.7756 144.713 4.96457 145.252 4.31793C145.815 3.62746 146.575 3.28223 147.536 3.28223C148.476 3.28223 149.189 3.62746 149.672 4.31793C150.061 4.86593 150.254 5.54407 150.254 6.34962ZM148.868 5.97835C148.879 5.55229 148.783 5.18513 148.586 4.87552C148.334 4.47685 147.95 4.27683 147.431 4.27683C146.957 4.27683 146.57 4.47137 146.275 4.86182C146.034 5.1728 145.891 5.54407 145.844 5.97835H148.868Z" fill="white"/>
</svg>
