<svg width="173" height="40" viewBox="0 0 173 40" fill="none" xmlns="http://www.w3.org/2000/svg">
<path d="M86.5796 21.9755C85.3298 21.9813 84.1098 22.353 83.0735 23.0437C82.0371 23.7344 81.231 24.7131 80.7568 25.8564C80.2826 26.9996 80.1616 28.2561 80.409 29.4673C80.6564 30.6785 81.2612 31.7901 82.147 32.6617C83.0329 33.5334 84.16 34.1261 85.3862 34.365C86.6125 34.604 87.8828 34.4784 89.0369 34.0042C90.191 33.53 91.1772 32.7285 91.8709 31.7007C92.5647 30.6729 92.935 29.4649 92.935 28.2293C92.9471 27.4022 92.7908 26.5812 92.4753 25.8151C92.1598 25.049 91.6917 24.3535 91.0987 23.77C90.5057 23.1864 89.8 22.7269 89.0237 22.4186C88.2473 22.1103 87.4161 21.9596 86.5796 21.9755V21.9755ZM86.5796 32.0258C85.811 32.0789 85.044 31.9022 84.3783 31.5187C83.7126 31.1351 83.1789 30.5624 82.8468 29.8751C82.5147 29.1877 82.3994 28.4175 82.5159 27.6645C82.6324 26.9115 82.9753 26.2105 83.5001 25.6528C84.0249 25.095 84.7073 24.7063 85.4585 24.537C86.2098 24.3677 86.9951 24.4258 87.7125 24.7037C88.4299 24.9816 89.0462 25.4665 89.4812 26.0952C89.9162 26.724 90.1498 27.4675 90.1517 28.2293C90.1757 28.712 90.1017 29.1945 89.934 29.6484C89.7664 30.1024 89.5085 30.5185 89.1755 30.8724C88.8426 31.2262 88.4414 31.5105 87.9956 31.7086C87.5497 31.9067 87.0683 32.0145 86.5796 32.0258ZM72.7229 21.9755C71.4724 21.9784 70.2509 22.3476 69.2126 23.0366C68.1744 23.7255 67.3659 24.7032 66.8894 25.8462C66.4129 26.9892 66.2898 28.2462 66.5355 29.4584C66.7813 30.6705 67.3849 31.7835 68.2702 32.6566C69.1554 33.5298 70.2825 34.1239 71.5092 34.364C72.7358 34.6041 74.0069 34.4794 75.1619 34.0057C76.3169 33.5319 77.3039 32.7303 77.9983 31.7022C78.6927 30.6741 79.0633 29.4656 79.0633 28.2293C79.0755 27.4022 78.9192 26.5812 78.6037 25.8151C78.2882 25.049 77.8201 24.3535 77.2271 23.77C76.6341 23.1864 75.9284 22.7269 75.152 22.4186C74.3757 22.1103 73.5445 21.9596 72.708 21.9755H72.7229ZM72.7229 32.0258C71.9539 32.0819 71.1856 31.9078 70.518 31.5263C69.8505 31.1447 69.3146 30.5732 68.9801 29.8863C68.6457 29.1994 68.5281 28.4289 68.6428 27.675C68.7575 26.9212 69.099 26.2189 69.6231 25.6596C70.1471 25.1004 70.8293 24.71 71.5808 24.5394C72.3323 24.3688 73.1184 24.4259 73.8367 24.7032C74.555 24.9804 75.1722 25.4651 75.608 26.094C76.0438 26.7229 76.278 27.467 76.2801 28.2293C76.3041 28.712 76.23 29.1945 76.0624 29.6484C75.8947 30.1024 75.6368 30.5185 75.3039 30.8724C74.971 31.2262 74.5698 31.5105 74.1239 31.7086C73.6781 31.9067 73.1967 32.0145 72.708 32.0258H72.7229ZM56.2168 23.9031V26.5518H62.6466C62.5458 27.7993 62.0212 28.9765 61.1582 29.8921C60.5149 30.5399 59.7416 31.0474 58.888 31.3819C58.0344 31.7164 57.1194 31.8706 56.2019 31.8345C54.3072 31.8345 52.49 31.0903 51.1502 29.7657C49.8104 28.4411 49.0578 26.6446 49.0578 24.7713C49.0578 22.898 49.8104 21.1015 51.1502 19.7769C52.49 18.4523 54.3072 17.7081 56.2019 17.7081C58.0145 17.6789 59.7647 18.3616 61.0689 19.6064L62.9592 17.7376C62.0787 16.8562 61.0284 16.1585 59.8702 15.6858C58.7121 15.2131 57.4697 14.9751 56.2168 14.9859C54.8937 14.935 53.5737 15.1487 52.3361 15.6142C51.0984 16.0797 49.9686 16.7874 49.0142 17.6949C48.0599 18.6024 47.3006 19.6911 46.782 20.8957C46.2634 22.1002 45.9961 23.3959 45.9961 24.7051C45.9961 26.0142 46.2634 27.3099 46.782 28.5145C47.3006 29.719 48.0599 30.8077 49.0142 31.7153C49.9686 32.6228 51.0984 33.3305 52.3361 33.796C53.5737 34.2615 54.8937 34.4752 56.2168 34.4243C57.4908 34.4812 58.7623 34.2677 59.9459 33.7981C61.1294 33.3286 62.1975 32.6138 63.0782 31.702C64.6375 30.0082 65.4701 27.7816 65.4001 25.4923C65.4049 24.9346 65.355 24.3777 65.2512 23.8295L56.2168 23.9031ZM123.655 25.9632C123.267 24.8342 122.541 23.8484 121.573 23.1362C120.606 22.4241 119.443 22.0193 118.237 21.9755C117.423 21.9739 116.617 22.1374 115.87 22.456C115.122 22.7745 114.448 23.2412 113.89 23.8274C113.332 24.4135 112.902 25.1066 112.626 25.8637C112.349 26.6208 112.233 27.426 112.284 28.2293C112.266 29.0517 112.415 29.8693 112.724 30.6333C113.033 31.3972 113.494 32.0918 114.08 32.6755C114.667 33.2593 115.366 33.7202 116.136 34.0308C116.907 34.3413 117.733 34.4952 118.565 34.4831C119.606 34.4887 120.632 34.2389 121.552 33.7561C122.471 33.2733 123.255 32.5726 123.834 31.7167L121.675 30.2452C121.353 30.7761 120.897 31.2153 120.352 31.5196C119.807 31.824 119.191 31.9832 118.565 31.9816C117.92 32.0059 117.283 31.8379 116.736 31.4993C116.189 31.1608 115.758 30.6674 115.499 30.0834L123.968 26.6254L123.655 25.9632ZM115.022 28.0527C114.992 27.5976 115.054 27.1411 115.205 26.7099C115.355 26.2787 115.591 25.8816 115.899 25.5418C116.207 25.2019 116.58 24.9262 116.997 24.7307C117.414 24.5352 117.866 24.424 118.327 24.4034C118.807 24.3721 119.286 24.481 119.704 24.7164C120.122 24.9519 120.461 25.3035 120.678 25.7278L115.022 28.0527ZM108.146 34.1153H110.929V15.7216H108.146V34.1153ZM103.592 23.3734H103.488C103.068 22.9097 102.554 22.5389 101.98 22.2853C101.405 22.0317 100.783 21.9011 100.154 21.9019C98.5271 21.9799 96.9932 22.6736 95.87 23.8392C94.7468 25.0049 94.1202 26.5531 94.1202 28.1631C94.1202 29.773 94.7468 31.3213 95.87 32.4869C96.9932 33.6526 98.5271 34.3463 100.154 34.4243C100.784 34.4348 101.41 34.3085 101.986 34.0542C102.562 33.8 103.074 33.424 103.488 32.9528H103.577V33.8504C103.577 36.2489 102.282 37.5291 100.198 37.5291C99.5042 37.5131 98.8307 37.2932 98.2635 36.8975C97.6963 36.5018 97.2611 35.9482 97.0131 35.3072L94.5871 36.3078C95.0437 37.4061 95.8219 38.3444 96.8216 39.0025C97.8214 39.6605 98.9972 40.0083 100.198 40.0012C103.458 40.0012 106.152 38.103 106.152 33.4825V22.3433H103.592V23.3734ZM100.407 32.0258C99.4465 31.9421 98.553 31.5059 97.9021 30.8032C97.2512 30.1005 96.8901 29.1822 96.8901 28.2293C96.8901 27.2764 97.2512 26.3581 97.9021 25.6554C98.553 24.9527 99.4465 24.5165 100.407 24.4328C100.883 24.457 101.349 24.5751 101.778 24.7802C102.207 24.9853 102.59 25.2732 102.905 25.627C103.22 25.9808 103.46 26.3933 103.611 26.8402C103.762 27.2871 103.822 27.7594 103.785 28.2293C103.826 28.7012 103.769 29.1763 103.619 29.626C103.468 30.0756 103.227 30.4904 102.91 30.8453C102.593 31.2002 102.206 31.4878 101.773 31.6907C101.34 31.8936 100.87 32.0076 100.392 32.0258H100.407ZM136.693 15.7216H130.04V34.1153H132.823V27.1404H136.708C137.501 27.1967 138.298 27.0909 139.048 26.8295C139.798 26.5681 140.485 26.1568 141.067 25.6211C141.65 25.0854 142.114 24.4369 142.431 23.716C142.749 22.9951 142.913 22.2173 142.913 21.431C142.913 20.6447 142.749 19.8669 142.431 19.146C142.114 18.4251 141.65 17.7766 141.067 17.2409C140.485 16.7053 139.798 16.2939 139.048 16.0325C138.298 15.7711 137.501 15.6653 136.708 15.7216H136.693ZM136.693 24.5506H132.808V18.282H136.753C137.599 18.282 138.411 18.6146 139.01 19.2065C139.609 19.7984 139.945 20.6013 139.945 21.4384C139.945 22.2755 139.609 23.0783 139.01 23.6702C138.411 24.2622 137.599 24.5947 136.753 24.5947L136.693 24.5506ZM153.854 21.9019C152.841 21.842 151.832 22.0761 150.951 22.5754C150.071 23.0747 149.357 23.8175 148.898 24.7124L151.368 25.7278C151.612 25.2839 151.981 24.9196 152.43 24.6793C152.879 24.4389 153.39 24.3328 153.899 24.374C154.252 24.3332 154.61 24.3624 154.952 24.4598C155.294 24.5573 155.612 24.721 155.889 24.9416C156.167 25.1621 156.396 25.435 156.566 25.7443C156.735 26.0536 156.84 26.3931 156.875 26.7431V26.9344C155.982 26.4665 154.985 26.2238 153.973 26.2281C151.309 26.2281 148.615 27.6996 148.615 30.363C148.641 30.9309 148.782 31.4878 149.03 32.0008C149.278 32.5138 149.627 32.9725 150.057 33.3498C150.488 33.7271 150.99 34.0152 151.535 34.1972C152.079 34.3793 152.655 34.4515 153.229 34.4096C153.93 34.4593 154.631 34.3216 155.26 34.0109C155.888 33.7002 156.421 33.228 156.801 32.6438H156.89V34.1153H159.569V27.0374C159.569 23.8148 157.099 21.946 153.928 21.946L153.854 21.9019ZM153.512 31.9816C152.604 31.9816 151.339 31.5254 151.339 30.4218C151.339 28.9503 152.916 28.4647 154.315 28.4647C155.2 28.4432 156.073 28.6566 156.846 29.0828C156.753 29.8794 156.371 30.616 155.772 31.1568C155.174 31.6976 154.397 32.0062 153.586 32.0258L153.512 31.9816ZM169.333 22.3433L166.148 30.3188H166.059L162.755 22.3433H159.778L164.734 33.4972L161.906 39.6922H164.808L172.429 22.3433H169.333ZM144.314 34.1153H147.097V15.7216H144.314V34.1153Z" fill="white"/>
<path d="M55.6463 5.13055C55.6716 5.67028 55.5857 6.20946 55.3938 6.71536C55.2019 7.22126 54.908 7.68334 54.53 8.07353C54.1079 8.50702 53.5982 8.8477 53.034 9.07335C52.4698 9.29901 51.8638 9.40457 51.2556 9.38316C50.3328 9.37602 49.4326 9.09979 48.6679 8.58907C47.9032 8.07835 47.3079 7.35587 46.9567 6.51215C46.6055 5.66843 46.514 4.741 46.6936 3.84607C46.8731 2.95113 47.3159 2.1285 47.9663 1.48125C48.3938 1.04978 48.9063 0.709631 49.472 0.481836C50.0378 0.254041 50.6449 0.143451 51.2556 0.156908C51.8848 0.154835 52.5078 0.280025 53.0863 0.524781C53.6249 0.73955 54.1043 1.07741 54.4854 1.51068L53.6965 2.29057C53.3995 1.94123 53.0243 1.66498 52.6007 1.48366C52.177 1.30234 51.7165 1.22091 51.2556 1.24581C50.7907 1.24356 50.3301 1.33414 49.9015 1.51213C49.4728 1.69013 49.085 1.95187 48.7611 2.28165C48.4373 2.61144 48.1842 3.00248 48.0169 3.43134C47.8496 3.86019 47.7717 4.31803 47.7877 4.77739C47.7779 5.4633 47.9739 6.13671 48.3508 6.71265C48.7277 7.28859 49.2687 7.74127 49.9055 8.01358C50.5424 8.28589 51.2465 8.36563 51.9292 8.24274C52.6118 8.11985 53.2423 7.79984 53.7412 7.32307C54.1992 6.83238 54.4633 6.19518 54.4854 5.52785H51.2556V4.46838H55.5868C55.6265 4.68692 55.6464 4.90852 55.6463 5.13055ZM62.463 1.45182H58.4444V4.24765H62.1058V5.30713H58.4444V8.10296H62.463V9.19187H57.2537V0.362916H62.463V1.45182ZM67.3449 9.19187H66.1989V1.45182H63.6984V0.362916H69.9049V1.45182H67.3449V9.19187ZM74.2807 9.19187V0.362916H75.4268V9.19187H74.2807ZM80.517 9.19187H79.3709V1.45182H76.8705V0.362916H83.0026V1.45182H80.517V9.19187ZM94.6268 8.0441C93.7567 8.89955 92.5794 9.37973 91.3523 9.37973C90.1253 9.37973 88.948 8.89955 88.0779 8.0441C87.2322 7.15903 86.761 5.9876 86.761 4.77004C86.761 3.55247 87.2322 2.38103 88.0779 1.49597C88.5068 1.06885 89.0169 0.729869 89.5789 0.498544C90.1409 0.267219 90.7436 0.148126 91.3523 0.148126C91.9611 0.148126 92.5638 0.267219 93.1258 0.498544C93.6878 0.729869 94.1979 1.06885 94.6268 1.49597C95.4758 2.37934 95.9493 3.55141 95.9493 4.77004C95.9493 5.98866 95.4758 7.16072 94.6268 8.0441ZM88.9263 7.30836C89.5707 7.94275 90.443 8.29893 91.3523 8.29893C92.2617 8.29893 93.134 7.94275 93.7784 7.30836C94.4143 6.61531 94.7665 5.7131 94.7665 4.77739C94.7665 3.84168 94.4143 2.93947 93.7784 2.24643C93.134 1.61203 92.2617 1.25586 91.3523 1.25586C90.443 1.25586 89.5707 1.61203 88.9263 2.24643C88.2904 2.93947 87.9382 3.84168 87.9382 4.77739C87.9382 5.7131 88.2904 6.61531 88.9263 7.30836ZM97.5589 9.19187V0.362916H98.9579L103.304 7.23478V0.362916H104.45V9.19187H103.259L98.7198 1.99627V9.19187H97.5589Z" fill="white"/>
<path fill-rule="evenodd" clip-rule="evenodd" d="M91.3523 0.295275C90.7632 0.295275 90.18 0.410527 89.6361 0.63439C89.0928 0.858019 88.5996 1.18562 88.1849 1.59834C87.366 2.45594 86.9099 3.59065 86.9099 4.77004C86.9099 5.94927 87.3659 7.08384 88.1845 7.94139C89.0266 8.7684 90.1654 9.23258 91.3523 9.23258C92.5394 9.23258 93.6783 8.76833 94.5203 7.94122C95.3422 7.08536 95.8005 5.95023 95.8005 4.77004C95.8005 3.58969 95.3421 2.45442 94.52 1.59853C94.1052 1.18572 93.6119 0.858054 93.0686 0.63439C92.5247 0.410526 91.9415 0.295275 91.3523 0.295275ZM89.5217 0.362699C90.1018 0.123911 90.724 0.000976562 91.3523 0.000976562C91.9807 0.000976562 92.6029 0.123912 93.183 0.362699C93.7631 0.601486 94.2897 0.951407 94.7324 1.39229L94.7347 1.39458C95.6101 2.3053 96.0981 3.51368 96.0981 4.77004C96.0981 6.02639 95.61 7.23474 94.7347 8.14547L94.7318 8.14848C93.8338 9.03135 92.6188 9.52688 91.3523 9.52688C90.0859 9.52688 88.871 9.03131 87.973 8.14844L87.9697 8.1452C87.0978 7.23282 86.6122 6.02518 86.6122 4.77004C86.6122 3.51489 87.0979 2.3073 87.9697 1.39491L87.9723 1.39226C88.415 0.951375 88.9416 0.601486 89.5217 0.362699ZM51.2523 0.30402C50.6619 0.291012 50.0751 0.397916 49.5282 0.618118C48.9812 0.83832 48.4858 1.16713 48.0726 1.58422L48.0719 1.58496C47.4421 2.21167 47.0134 3.00818 46.8395 3.8747C46.6657 4.74123 46.7543 5.63922 47.0944 6.45615C47.4344 7.27309 48.0108 7.97263 48.7512 8.46713C49.4917 8.96164 50.3632 9.2291 51.2568 9.23602L51.2609 9.23605C51.8482 9.25672 52.4334 9.15484 52.9782 8.93694C53.5229 8.71907 54.0151 8.39015 54.4226 7.97163C54.7867 7.59586 55.0697 7.15088 55.2544 6.66369C55.4393 6.17646 55.522 5.65717 55.4976 5.13736L55.6463 5.13055L55.4975 5.13049C55.4975 4.95812 55.485 4.78602 55.4601 4.61553H51.4044V5.3807H54.6391L54.6341 5.53266C54.6109 6.23529 54.3328 6.90621 53.8506 7.42286L53.8448 7.42904C53.3248 7.92601 52.6674 8.25941 51.9558 8.38751C51.2443 8.51561 50.5103 8.43249 49.8465 8.14864C49.1826 7.86479 48.6187 7.39293 48.2258 6.79259C47.8336 6.19324 47.6294 5.49264 47.6388 4.7789C47.6226 4.30093 47.704 3.82462 47.878 3.37839C48.0525 2.93105 48.3166 2.52315 48.6543 2.17915C48.9921 1.83515 49.3967 1.56213 49.8438 1.37647C50.2896 1.19136 50.7685 1.09689 51.2519 1.09865C51.7344 1.07326 52.2163 1.15881 52.6598 1.34862C53.055 1.51777 53.41 1.7656 53.7031 2.07602L54.28 1.50558C53.9306 1.13848 53.5045 0.85021 53.0306 0.661247L53.0277 0.660092C52.4679 0.423232 51.865 0.30205 51.2561 0.304056L51.2523 0.30402ZM55.7951 5.12717C55.8208 5.68566 55.7317 6.24353 55.5332 6.76703C55.3342 7.2916 55.0295 7.77072 54.6375 8.17532C54.2009 8.6237 53.6734 8.97636 53.0898 9.20976C52.5068 9.44292 51.8808 9.55212 51.2524 9.53029C50.301 9.52252 49.373 9.23755 48.5846 8.711C47.7956 8.18408 47.1814 7.43866 46.8191 6.56815C46.4567 5.69765 46.3623 4.74078 46.5476 3.81743C46.7328 2.89426 47.1895 2.04565 47.8603 1.37791C48.302 0.932235 48.8314 0.580876 49.4159 0.345555C49.9999 0.110404 50.6265 -0.00387998 51.257 0.00975348C51.9054 0.0078742 52.5473 0.136889 53.1434 0.388895C53.7032 0.612388 54.2016 0.963707 54.5977 1.41413L54.6888 1.51769L53.687 2.50806L53.5826 2.38526C53.3004 2.05339 52.944 1.79095 52.5415 1.6187C52.1391 1.44644 51.7016 1.36908 51.2637 1.39274L51.2549 1.39322C50.81 1.39106 50.3693 1.47748 49.9591 1.6478C49.549 1.81812 49.1778 2.06858 48.8679 2.38415C48.558 2.69972 48.3158 3.07391 48.1557 3.48428C47.9957 3.89465 47.9211 4.33275 47.9364 4.77232L47.9367 4.77946C47.9273 5.43631 48.1148 6.08118 48.4758 6.63272C48.8367 7.18425 49.3548 7.61775 49.9646 7.87852C50.5745 8.13929 51.2488 8.21565 51.9025 8.09797C52.5548 7.98054 53.1574 7.67515 53.6347 7.2202C54.0318 6.79333 54.2744 6.2499 54.3271 5.675H51.1068V4.32123H55.7112L55.7333 4.44237C55.7743 4.66838 55.795 4.89755 55.7951 5.12717ZM57.1049 0.215767H62.6119V1.59897H58.5933V4.1005H62.2547V5.45428H58.5933V7.95581H62.6119V9.33902H57.1049V0.215767ZM57.4026 0.510065V9.04472H62.3142V8.25011H58.2956V5.15998H61.957V4.3948H58.2956V1.30467H62.3142V0.510065H57.4026ZM63.5496 0.215767H70.0537V1.59897H67.4937V9.33902H66.05V1.59897H63.5496V0.215767ZM63.8472 0.510065V1.30467H66.3477V9.04472H67.1961V1.30467H69.7561V0.510065H63.8472ZM74.1319 0.215767H75.5756V9.33902H74.1319V0.215767ZM74.4296 0.510065V9.04472H75.2779V0.510065H74.4296ZM76.7216 0.215767H83.1514V1.59897H80.6658V9.33902H79.2221V1.59897H76.7216V0.215767ZM77.0193 0.510065V1.30467H79.5198V9.04472H80.3681V1.30467H82.8537V0.510065H77.0193ZM97.41 0.215767H99.0404L103.155 6.72189V0.215767H104.599V9.33902H103.177L98.8686 2.51024V9.33902H97.41V0.215767ZM97.7077 0.510065V9.04472H98.571V1.4823L103.342 9.04472H104.301V0.510065H103.453V7.74768L98.8754 0.510065H97.7077ZM88.8213 2.14216C89.4935 1.4803 90.4036 1.10871 91.3523 1.10871C92.3011 1.10871 93.2112 1.4803 93.8834 2.14216L93.8888 2.14743C94.5495 2.86755 94.9154 3.80513 94.9154 4.77739C94.9154 5.74965 94.5494 6.68711 93.8886 7.40722L93.8835 7.41276C93.2113 8.07462 92.3011 8.44608 91.3523 8.44608C90.4036 8.44608 89.4935 8.07448 88.8213 7.41262L88.9263 7.30836L88.8161 7.40722C88.1553 6.68711 87.7893 5.74965 87.7893 4.77739C87.7893 3.80513 88.1553 2.86768 88.8161 2.14756L88.8213 2.14216ZM89.034 7.20674C89.6502 7.81201 90.4836 8.15178 91.3523 8.15178C92.2211 8.15178 93.0545 7.81201 93.6707 7.20674C94.2801 6.54113 94.6177 5.67531 94.6177 4.77739C94.6177 3.87948 94.2801 3.01365 93.6707 2.34805C93.0545 1.74277 92.2211 1.40301 91.3523 1.40301C90.4836 1.40301 89.6502 1.74277 89.034 2.34805C88.4245 3.01365 88.087 3.87947 88.087 4.77739C88.087 5.67531 88.4245 6.54113 89.034 7.20674Z" fill="white"/>
<path d="M0.69975 1.0659C0.214637 1.64141 -0.0302182 2.37817 0.0150973 3.12599V35.6754C-0.0302182 36.4232 0.214637 37.16 0.69975 37.7355L0.803935 37.8385L19.2449 19.6214V19.1947L0.803935 0.962891L0.69975 1.0659Z" fill="url(#paint0_linear_2808_938)"/>
<path d="M25.3465 25.6985L19.2441 19.6212V19.1945L25.3465 13.1025L25.4804 13.1761L32.7883 17.2816C34.872 18.4441 34.872 20.357 32.7883 21.5342L25.5102 25.6249L25.3465 25.6985Z" fill="url(#paint1_linear_2808_938)"/>
<path d="M25.5253 25.6101L19.2443 19.4004L0.699219 37.7352C1.12394 38.1043 1.66575 38.3151 2.23102 38.3313C2.79629 38.3474 3.34949 38.1678 3.79503 37.8235L25.5401 25.6101" fill="url(#paint2_linear_2808_938)"/>
<path d="M25.5245 13.1909L3.77941 0.977549C3.33387 0.63324 2.78066 0.453627 2.2154 0.469748C1.65013 0.485869 1.10832 0.696713 0.683594 1.06584L19.2436 19.4006L25.5245 13.1909Z" fill="url(#paint3_linear_2808_938)"/>
<path opacity="0.2" d="M25.3467 25.4785L3.78015 37.6183C3.35044 37.936 2.82831 38.1076 2.29178 38.1076C1.75524 38.1076 1.23311 37.936 0.803404 37.6183L0.699219 37.7213L0.803404 37.8243C1.23214 38.1442 1.75464 38.3173 2.29178 38.3173C2.82891 38.3173 3.35141 38.1442 3.78015 37.8243L25.5253 25.611L25.3467 25.4785Z" fill="black"/>
<path opacity="0.12" d="M0.69975 37.5292C0.214637 36.9537 -0.0302182 36.2169 0.0150973 35.4691V35.6898C-0.0302182 36.4376 0.214637 37.1744 0.69975 37.7499L0.803935 37.6469L0.69975 37.5292ZM32.789 21.3133L25.3472 25.4777L25.4811 25.6101L32.789 21.5193C33.2037 21.3268 33.5597 21.0295 33.821 20.6574C34.0823 20.2854 34.2397 19.8518 34.2774 19.4004C34.1937 19.8105 34.016 20.1962 33.758 20.5278C33.5 20.8594 33.1685 21.1281 32.789 21.3133Z" fill="black"/>
<path opacity="0.25" d="M3.78047 1.18373L32.7888 17.4879C33.1683 17.673 33.4998 17.9418 33.7578 18.2734C34.0158 18.605 34.1935 18.9907 34.2772 19.4008C34.2395 18.9494 34.0821 18.5158 33.8208 18.1438C33.5594 17.7717 33.2035 17.4744 32.7888 17.2818L3.78047 0.97772C1.69675 -0.184759 0 0.786427 0 3.14081V3.36154C0.0446512 0.992436 1.71163 0.0212518 3.78047 1.18373V1.18373Z" fill="white"/>
<defs>
<linearGradient id="paint0_linear_2808_938" x1="17.6077" y1="2.78754" x2="-7.08237" y2="27.7608" gradientUnits="userSpaceOnUse">
<stop stop-color="#00A0FF"/>
<stop offset="0.01" stop-color="#00A1FF"/>
<stop offset="0.26" stop-color="#00BEFF"/>
<stop offset="0.51" stop-color="#00D2FF"/>
<stop offset="0.76" stop-color="#00DFFF"/>
<stop offset="1" stop-color="#00E3FF"/>
</linearGradient>
<linearGradient id="paint1_linear_2808_938" x1="35.512" y1="19.4005" x2="-0.491668" y2="19.4005" gradientUnits="userSpaceOnUse">
<stop stop-color="#FFE000"/>
<stop offset="0.41" stop-color="#FFBD00"/>
<stop offset="0.78" stop-color="#FFA500"/>
<stop offset="1" stop-color="#FF9C00"/>
</linearGradient>
<linearGradient id="paint2_linear_2808_938" x1="22.1169" y1="22.7848" x2="-11.3722" y2="56.6433" gradientUnits="userSpaceOnUse">
<stop stop-color="#FF3A44"/>
<stop offset="1" stop-color="#C31162"/>
</linearGradient>
<linearGradient id="paint3_linear_2808_938" x1="-3.97501" y1="-9.76434" x2="10.9744" y2="5.35654" gradientUnits="userSpaceOnUse">
<stop stop-color="#32A071"/>
<stop offset="0.07" stop-color="#2DA771"/>
<stop offset="0.48" stop-color="#15CF74"/>
<stop offset="0.8" stop-color="#06E775"/>
<stop offset="1" stop-color="#00F076"/>
</linearGradient>
</defs>
</svg>
