<svg width="28" height="28" viewBox="0 0 28 28" fill="none" xmlns="http://www.w3.org/2000/svg">
<rect width="28" height="28" rx="8" fill="white"/>
<g clip-path="url(#clip0_2865_834)">
<path d="M12.666 9.33333C12.666 8.97971 12.8065 8.64057 13.0565 8.39052C13.3066 8.14048 13.6457 8 13.9993 8C14.353 8 14.6921 8.14048 14.9422 8.39052C15.1922 8.64057 15.3327 8.97971 15.3327 9.33333C16.0983 9.69535 16.751 10.2589 17.2207 10.9635C17.6905 11.6682 17.9596 12.4874 17.9993 13.3333V15.3333C18.0495 15.7478 18.1963 16.1447 18.4279 16.4921C18.6595 16.8395 18.9694 17.1276 19.3327 17.3333H8.66602C9.02931 17.1276 9.33922 16.8395 9.57081 16.4921C9.80239 16.1447 9.94918 15.7478 9.99935 15.3333V13.3333C10.0391 12.4874 10.3082 11.6682 10.778 10.9635C11.2477 10.2589 11.9004 9.69535 12.666 9.33333" stroke="#E42DDD" stroke-width="1.25" stroke-linecap="round" stroke-linejoin="round"/>
<path d="M12 17.333V17.9997C12 18.5301 12.2107 19.0388 12.5858 19.4139C12.9609 19.789 13.4696 19.9997 14 19.9997C14.5304 19.9997 15.0391 19.789 15.4142 19.4139C15.7893 19.0388 16 18.5301 16 17.9997V17.333" stroke="#E42DDD" stroke-width="1.25" stroke-linecap="round" stroke-linejoin="round"/>
<path d="M19.9994 10.4847C19.5621 9.5335 18.9271 8.68646 18.1367 8" stroke="#E42DDD" stroke-width="1.25" stroke-linecap="round" stroke-linejoin="round"/>
<path d="M8 10.4847C8.4369 9.53363 9.07143 8.6866 9.86133 8" stroke="#E42DDD" stroke-width="1.25" stroke-linecap="round" stroke-linejoin="round"/>
</g>
<defs>
<clipPath id="clip0_2865_834">
<rect width="16" height="16" fill="white" transform="translate(6 6)"/>
</clipPath>
</defs>
</svg>
