<svg width="28" height="28" viewBox="0 0 28 28" fill="none" xmlns="http://www.w3.org/2000/svg">
<rect width="28" height="28" rx="4" fill="#0A0A15"/>
<path fill-rule="evenodd" clip-rule="evenodd" d="M11.9092 13.1403L14.0009 11.0496L16.0934 13.142L17.3098 11.9249L14.0009 8.61523L10.692 11.924L11.9092 13.1403ZM8.61523 14L9.83201 12.7833L11.0488 14L9.83201 15.2168L8.61523 14ZM14.0009 16.9509L11.9092 14.8594L10.6903 16.0748L10.692 16.0765L14.0009 19.3845L17.3098 16.0748L17.3106 16.074L16.0934 14.8585L14.0009 16.9509ZM16.9509 14.0003L18.1677 12.7836L19.3845 14.0003L18.1677 15.2171L16.9509 14.0003ZM14.0009 12.7644L15.2351 13.9994H15.236L15.2351 14.0003L14.0009 15.2353L12.7666 14.002L12.7649 13.9994L12.7666 13.9977L12.9827 13.7817L13.0882 13.6771L14.0009 12.7644Z" fill="#F3BA2F"/>
</svg>
