<svg width="28" height="28" viewBox="0 0 28 28" fill="none" xmlns="http://www.w3.org/2000/svg">
<rect width="28" height="28" rx="4" fill="#0A0A15"/>
<path fill-rule="evenodd" clip-rule="evenodd" d="M9.54985 18.0905L9.86092 18.4016C11.2337 18.9764 12.6065 19.558 13.986 20.126V17.6239L11.4163 16.5622L10.3546 13.9924L11.4163 11.4227L9.54985 9.88086L7.8457 13.9857L9.54985 18.0905Z" fill="#598282"/>
<path fill-rule="evenodd" clip-rule="evenodd" d="M13.987 7.8457C12.6142 8.41375 11.2346 8.99532 9.86185 9.57013L9.55078 9.88121L11.4172 11.4163L13.987 10.3546V7.8457Z" fill="#FBBB31"/>
<path fill-rule="evenodd" clip-rule="evenodd" d="M13.9858 11.416L12.1666 12.1734L11.416 13.9858L12.1666 15.8049L13.9858 16.5555V11.416Z" fill="#598282"/>
<path fill-rule="evenodd" clip-rule="evenodd" d="M13.9853 20.126C15.3581 19.558 16.7308 18.9764 18.1036 18.4016L18.4147 18.0905L20.1188 13.9857L18.4147 9.88086L16.5483 11.4159L17.61 13.9857L16.5483 16.5554L13.9785 17.6171V20.126H13.9853Z" fill="#326464"/>
<path fill-rule="evenodd" clip-rule="evenodd" d="M18.4225 9.88121L18.1114 9.56337C16.7319 8.99532 15.3591 8.42051 13.9863 7.8457V10.3478L16.5561 11.4095L18.4225 9.88121Z" fill="#FAAA00"/>
<path fill-rule="evenodd" clip-rule="evenodd" d="M13.9863 16.5555L15.8054 15.8049L16.5561 13.9858L15.8054 12.1734L13.9863 11.416V16.5555Z" fill="#326464"/>
</svg>
