<svg width="28" height="28" viewBox="0 0 28 28" fill="none" xmlns="http://www.w3.org/2000/svg">
<rect width="28" height="28" rx="4" fill="#0A0A15"/>
<path fill-rule="evenodd" clip-rule="evenodd" d="M9.6543 10.2269C10.6245 10.0546 11.7028 10.2549 12.4523 10.9801C13.0037 11.5013 13.3205 12.2487 13.4908 13.0061C13.8314 12.9817 14.1654 13.0284 14.5014 13.0664C14.695 12.1259 15.1642 11.2012 15.9515 10.7051C16.6613 10.2485 17.5327 10.1286 18.3393 10.2794C18.1338 10.6347 17.9363 10.9959 17.7256 11.3477C17.2829 11.3103 16.8137 11.3872 16.4445 11.6707C15.9939 12.0053 15.7507 12.5847 15.6738 13.1569C15.8627 13.1569 16.0522 13.1569 16.2411 13.1583C16.4094 13.4994 16.5824 13.8375 16.7587 14.1735C16.3982 14.1728 16.0383 14.1735 15.6778 14.1728C15.805 14.7019 16.0071 15.2447 16.4088 15.5994C16.7693 15.9246 17.2776 16.0215 17.7256 15.8844C17.9363 16.2355 18.1332 16.5952 18.3386 16.9491C17.5877 17.1135 16.7627 17.0862 16.088 16.6547C15.2622 16.1428 14.7705 15.188 14.5114 14.2252C14.1681 14.2532 13.8314 14.1972 13.4915 14.1692C13.2343 15.1506 12.7439 16.1335 11.9016 16.6547C11.2302 17.0855 10.4091 17.1142 9.66092 16.9491C9.86637 16.5952 10.0632 16.2355 10.2739 15.8844C10.7206 16.0201 11.2283 15.9217 11.5868 15.5972C11.9891 15.244 12.1932 14.7019 12.3224 14.1728C11.9619 14.1735 11.6014 14.1728 11.2409 14.1735C11.4171 13.8375 11.5901 13.4986 11.7591 13.1576C11.9467 13.1576 12.1342 13.1576 12.3218 13.1562C12.2429 12.6019 12.0196 12.0398 11.5908 11.7009C11.2183 11.3929 10.7306 11.3103 10.2733 11.3477C10.0619 10.9772 9.86769 10.596 9.6543 10.2269Z" fill="white"/>
</svg>
