<svg width="28" height="28" viewBox="0 0 28 28" fill="none" xmlns="http://www.w3.org/2000/svg">
<rect width="28" height="28" rx="4" fill="#0A0A15"/>
<path fill-rule="evenodd" clip-rule="evenodd" d="M8.73143 17.0755C9.2206 17.0755 9.61716 16.671 9.61716 16.172C9.61716 15.6731 9.2206 15.2686 8.73143 15.2686C8.24226 15.2686 7.8457 15.6731 7.8457 16.172C7.8457 16.671 8.24226 17.0755 8.73143 17.0755Z" fill="#4A90E2"/>
<path fill-rule="evenodd" clip-rule="evenodd" d="M14.0097 13.4993H14.0837C14.5262 13.5371 14.877 13.9137 14.8955 14.3651C14.8955 14.8731 14.5077 15.2686 14.0097 15.2686C13.5117 15.2686 13.124 14.8542 13.124 14.3651C13.124 13.725 12.9213 13.4805 12.2383 13.4805C11.5553 13.4805 11.3526 13.725 11.3526 14.384V14.4406C11.3341 14.8919 10.9463 15.2686 10.4853 15.2686C9.98734 15.2686 9.59961 14.8542 9.59961 14.3651C9.59961 13.8949 9.95034 13.5182 10.3929 13.4805H10.4668C11.2416 13.4805 11.3526 13.3114 11.3526 12.5959C11.3526 12.0879 11.7588 11.6924 12.2383 11.6924C12.7363 11.6924 13.124 12.1068 13.124 12.5959C13.124 13.3114 13.235 13.4993 14.0097 13.4993ZM18.4014 12.5959C18.4014 12.0879 18.8076 11.6924 19.2871 11.6924C19.7666 11.6924 20.1543 12.0879 20.1543 12.5581C20.1543 13.0661 19.7481 13.4616 19.2686 13.4616C18.5856 13.4616 18.3829 13.7062 18.3829 14.3651V14.4217C18.3644 14.8919 17.9767 15.2686 17.5157 15.2686H17.4972C16.8327 15.2874 16.6299 15.532 16.6299 16.1721V16.2475C16.6114 16.6989 16.2237 17.0755 15.7627 17.0755C15.2647 17.0755 14.877 16.6612 14.877 16.1721C14.877 15.7207 15.2277 15.3441 15.6702 15.2874C15.6887 15.2686 15.7257 15.2686 15.7627 15.2686C16.519 15.2686 16.6484 15.0995 16.6484 14.4028V14.384C16.6484 13.9137 16.9992 13.5371 17.4417 13.4993H17.5157C18.2904 13.4993 18.4014 13.3114 18.4014 12.5959Z" fill="#4A90E2"/>
</svg>
