<svg width="28" height="28" viewBox="0 0 28 28" fill="none" xmlns="http://www.w3.org/2000/svg">
<rect width="28" height="28" rx="4" fill="#0A0A15"/>
<path fill-rule="evenodd" clip-rule="evenodd" d="M14.1657 9.98926H11.4353V13.6156H9.76953V14.8244H11.4353V18.4508H14.1657C15.6069 18.4508 15.9175 18.2999 16.5385 17.998C16.5868 17.9746 16.6368 17.9502 16.6895 17.925C17.4201 17.5744 17.9879 17.0808 18.3928 16.4442C18.7978 15.8076 19.0003 15.0662 19.0003 14.22C19.0003 13.3739 18.7978 12.6325 18.3928 11.9959C17.9879 11.3592 17.4201 10.8656 16.6895 10.5151C15.9589 10.1645 15.1176 9.98926 14.1657 9.98926ZM13.4643 14.8244V16.8431H14.0655C14.9423 16.8431 15.6416 16.6074 16.1634 16.136C16.6853 15.6645 16.9462 15.0259 16.9462 14.22C16.9462 13.4142 16.6853 12.7755 16.1634 12.3041C15.6416 11.8327 14.9423 11.597 14.0655 11.597H13.4643V13.6156H15.4057V14.8244H13.4643Z" fill="#E42DDD"/>
</svg>
