<svg width="28" height="28" viewBox="0 0 28 28" fill="none" xmlns="http://www.w3.org/2000/svg">
<rect width="28" height="28" rx="4" fill="#0A0A15"/>
<path fill-rule="evenodd" clip-rule="evenodd" d="M13.8929 12.3207C14.9002 11.8464 16.098 11.908 17.054 12.5088C17.2633 12.64 17.4572 12.7943 17.6321 12.9688C18.2012 13.5375 18.5179 14.2148 18.5839 14.9593C18.5843 14.9643 18.5857 14.9749 18.5876 14.9897C18.5961 15.0556 18.6152 15.2046 18.6152 15.314V18.0048C18.6152 18.1557 18.5264 18.3251 18.4198 18.4316C18.3131 18.5381 18.1583 18.6126 18.0078 18.6126C18.0078 18.6126 15.2297 18.6221 15.0348 18.6051C14.2904 18.5389 13.5358 18.2023 12.967 17.6337C12.7927 17.4589 12.6387 17.2649 12.5078 17.0555C11.907 16.0994 11.8455 14.9009 12.3201 13.8937L12.3185 13.8919C12.5661 13.3443 12.4672 12.7021 12.0664 12.2543C12.0604 12.2476 12.0548 12.2407 12.0491 12.2338C12.0399 12.2225 12.0307 12.2113 12.0204 12.2011L9.98254 10.1627C9.98245 10.1626 9.98149 10.1609 9.98082 10.1609C9.82889 10.0251 9.62979 9.97228 9.4394 9.99371L9.43873 9.99227C9.13931 10.0488 8.83801 9.90361 8.69568 9.63421C8.55336 9.36481 8.60324 9.03412 8.8187 8.81868C9.03416 8.60324 9.36488 8.55336 9.6343 8.69568C9.90372 8.83799 10.0489 9.13926 9.9924 9.43865L9.99403 9.43923C9.97157 9.63456 10.0338 9.83017 10.1649 9.97668C10.1652 9.97745 10.1659 9.97807 10.1666 9.9784L12.1949 12.0072C12.2148 12.027 12.2352 12.0461 12.2562 12.0646C12.7029 12.4654 13.344 12.565 13.8913 12.3184L13.8929 12.3207ZM17.3139 15.3398C17.3139 15.3141 17.3101 15.1454 17.2321 14.7617H17.2324C17.166 14.4367 16.968 14.1407 16.7171 13.8898C15.9387 13.1115 14.6669 13.1123 13.8885 13.8904C13.1101 14.6686 13.1099 15.9375 13.8885 16.7158C14.1299 16.9592 14.4303 17.1357 14.7605 17.228C15.0461 17.3068 15.3567 17.3105 15.3824 17.3105H16.7063C16.857 17.3105 17.0335 17.2433 17.1402 17.1369C17.2469 17.0304 17.3139 16.8537 17.3139 16.7028V15.3398Z" fill="#00CBA0"/>
</svg>
