<svg width="28" height="28" viewBox="0 0 28 28" fill="none" xmlns="http://www.w3.org/2000/svg">
<rect width="28" height="28" rx="4" fill="#0A0A15"/>
<path fill-rule="evenodd" clip-rule="evenodd" d="M14.0039 8.88798C13.8693 8.88798 13.736 8.8948 13.6033 8.90534V7.85996C13.736 7.8519 13.8675 7.8457 14.0039 7.8457C14.2054 7.84632 14.4063 7.85624 14.6072 7.87608V8.92332C14.4069 8.89976 14.2054 8.88798 14.0039 8.88798ZM9.04175 12.7688C8.36281 15.5081 10.0332 18.279 12.7725 18.958V20.0263C10.3531 19.5346 8.46263 17.6435 7.97032 15.2241C7.29325 11.8945 9.44291 8.64679 12.7725 7.96971V9.03803C10.9335 9.49376 9.49747 10.9298 9.04175 12.7688Z" fill="#231F20"/>
<path fill-rule="evenodd" clip-rule="evenodd" d="M15.4376 9.09201V8.01562L15.4382 8.01873C17.6846 8.56002 19.4387 10.3135 19.9793 12.5599C20.7742 15.8628 18.7411 19.1849 15.4382 19.9804V18.9047C17.0708 18.4254 18.3586 17.1667 18.8757 15.5459H17.7516C17.3994 16.3973 16.7682 17.1035 15.9609 17.548C13.9997 18.6281 11.5351 17.9145 10.455 15.9533C9.37489 13.9921 10.0886 11.5275 12.0497 10.4474C14.0109 9.3673 16.4755 10.0816 17.5556 12.0421H18.7263C18.1316 10.6123 16.9232 9.52851 15.4376 9.09201ZM13.7734 14.9489L14.9589 16.6322L14.9633 16.6329H16.4247L15.0656 14.7833C15.0656 14.7833 16.1221 14.5037 16.1221 13.0999C16.1221 11.6962 14.9267 11.3638 14.1746 11.3638H11.8005V12.3298H14.0562C14.6303 12.3298 14.8864 12.7155 14.8864 13.1377C14.8864 13.56 14.683 13.9146 14.1169 13.9146H11.7998V14.9489H13.7734Z" fill="#D31F26"/>
<path fill-rule="evenodd" clip-rule="evenodd" d="M14.6074 19.0723C14.4071 19.0958 14.2056 19.1076 14.0041 19.1076C13.8677 19.1076 13.7362 19.1008 13.6035 19.0902V20.1344C13.7362 20.1431 13.8695 20.1486 14.0041 20.1486C14.2093 20.1486 14.4089 20.1381 14.6074 20.1183V19.0723V19.0723Z" fill="#231F20"/>
</svg>
