<svg width="28" height="28" viewBox="0 0 28 28" fill="none" xmlns="http://www.w3.org/2000/svg">
<rect width="28" height="28" rx="8" fill="white"/>
<g clip-path="url(#clip0_2865_842)">
<path d="M17.334 13.333H10.6673C9.93094 13.333 9.33398 13.93 9.33398 14.6663V18.6663C9.33398 19.4027 9.93094 19.9997 10.6673 19.9997H17.334C18.0704 19.9997 18.6673 19.4027 18.6673 18.6663V14.6663C18.6673 13.93 18.0704 13.333 17.334 13.333Z" stroke="#E42DDD" stroke-width="1.25" stroke-linecap="round" stroke-linejoin="round"/>
<path d="M14.0007 17.3333C14.3688 17.3333 14.6673 17.0349 14.6673 16.6667C14.6673 16.2985 14.3688 16 14.0007 16C13.6325 16 13.334 16.2985 13.334 16.6667C13.334 17.0349 13.6325 17.3333 14.0007 17.3333Z" stroke="#E42DDD" stroke-width="1.25" stroke-linecap="round" stroke-linejoin="round"/>
<path d="M11.334 13.3333V10.6667C11.334 9.95942 11.6149 9.28115 12.115 8.78105C12.6151 8.28095 13.2934 8 14.0007 8C14.7079 8 15.3862 8.28095 15.8863 8.78105C16.3864 9.28115 16.6673 9.95942 16.6673 10.6667V13.3333" stroke="#E42DDD" stroke-width="1.25" stroke-linecap="round" stroke-linejoin="round"/>
</g>
<defs>
<clipPath id="clip0_2865_842">
<rect width="16" height="16" fill="white" transform="translate(6 6)"/>
</clipPath>
</defs>
</svg>
