<svg width="28" height="28" viewBox="0 0 28 28" fill="none" xmlns="http://www.w3.org/2000/svg">
<rect width="28" height="28" rx="4" fill="#0A0A15"/>
<path fill-rule="evenodd" clip-rule="evenodd" d="M10.776 7.876C11.7922 7.33702 12.946 7.06351 14.0942 7.08085C15.4785 7.09696 16.8588 7.53992 17.9856 8.34838C17.7909 8.88736 17.6095 9.43129 17.4114 9.96903C16.7939 10.1986 16.1788 10.4343 15.5613 10.6635C14.7707 10.1648 13.8512 9.87549 12.9185 9.82623C12.0652 9.77853 11.2019 9.93589 10.4172 10.2751C9.36762 10.7276 8.46762 11.5163 7.87514 12.4948C7.48418 13.1335 7.23569 13.8537 7.12102 14.5928C6.97484 12.9817 7.42051 11.3227 8.3576 10.004C8.98253 9.11782 9.81762 8.38091 10.776 7.876Z" fill="#29ABE2"/>
<path fill-rule="evenodd" clip-rule="evenodd" d="M20.9042 13.8545C20.9292 15.0449 20.6458 16.243 20.0796 17.2913C19.4775 18.4107 18.5596 19.3567 17.4615 19.9939C16.3621 20.6338 15.082 20.9554 13.812 20.9191C12.3146 20.8826 10.8336 20.3417 9.66992 19.3951C9.89678 18.7716 10.1354 18.1524 10.3662 17.5307C10.9566 17.3216 11.5478 17.115 12.1375 16.9041C12.8854 17.4777 13.7796 17.8578 14.7123 17.9907C15.7258 18.1437 16.7769 17.9956 17.7186 17.5942C18.1692 17.4164 18.5834 17.1525 18.9651 16.8557C19.917 16.1043 20.6084 15.0319 20.9042 13.8545Z" fill="#29ABE2"/>
<path fill-rule="evenodd" clip-rule="evenodd" d="M18.8564 9.07617C20.1273 10.3205 20.8746 12.0749 20.9043 13.8545C20.6085 15.0319 19.9171 16.1043 18.9652 16.8557C18.5835 17.1525 18.1694 17.4164 17.7187 17.5942C18.0083 16.9044 18.1737 16.1591 18.1718 15.4098C18.1879 13.9465 17.5945 12.4816 16.5508 11.4567C16.5567 11.4508 16.5687 11.439 16.5749 11.4331C17.1318 11.2222 17.6897 11.0143 18.2466 10.8034C18.4549 10.2297 18.6527 9.6517 18.8564 9.07617Z" fill="#3F4F59"/>
<path fill-rule="evenodd" clip-rule="evenodd" d="M7.87521 12.4941C8.46769 11.5156 9.36769 10.727 10.4173 10.2744C10.0776 11.0578 9.92247 11.9214 9.96759 12.7738C10.0279 13.9794 10.4921 15.1627 11.2771 16.0793C10.6951 16.2825 10.115 16.4897 9.53335 16.6935C9.29568 17.3217 9.06172 17.9514 8.82559 18.5802C7.84338 17.4856 7.23947 16.0585 7.12109 14.5921C7.23576 13.853 7.48425 13.1329 7.87521 12.4941Z" fill="#3F4F59"/>
</svg>
