<svg width="32" height="32" viewBox="0 0 32 32" fill="none" xmlns="http://www.w3.org/2000/svg">
<g clip-path="url(#clip0_2892_1190)">
<path d="M21.334 5.3335H10.6673C7.7218 5.3335 5.33398 7.72131 5.33398 10.6668V21.3335C5.33398 24.279 7.7218 26.6668 10.6673 26.6668H21.334C24.2795 26.6668 26.6673 24.279 26.6673 21.3335V10.6668C26.6673 7.72131 24.2795 5.3335 21.334 5.3335Z" stroke="white" stroke-opacity="0.7" stroke-width="2" stroke-linecap="round" stroke-linejoin="round"/>
<path d="M16 20C18.2091 20 20 18.2091 20 16C20 13.7909 18.2091 12 16 12C13.7909 12 12 13.7909 12 16C12 18.2091 13.7909 20 16 20Z" stroke="white" stroke-opacity="0.7" stroke-width="2" stroke-linecap="round" stroke-linejoin="round"/>
<path d="M22 10V10.001" stroke="white" stroke-opacity="0.7" stroke-width="2" stroke-linecap="round" stroke-linejoin="round"/>
</g>
<defs>
<clipPath id="clip0_2892_1190">
<rect width="32" height="32" fill="white"/>
</clipPath>
</defs>
</svg>
