<svg width="48" height="48" viewBox="0 0 48 48" fill="none" xmlns="http://www.w3.org/2000/svg">
<path d="M0 43.1999C7.95292 43.1999 14.4 36.7527 14.4 28.7999C14.4 20.847 7.95292 14.3999 0 14.3999V24.4798C2.38585 24.4798 4.31997 26.414 4.31997 28.7999C4.31997 31.1857 2.38585 33.1199 0 33.1199V43.1999Z" fill="#E42DDD"/>
<path d="M48.0003 19.2001C45.5396 18.4206 42.9191 18 40.2003 18C25.9513 18 14.4004 29.5512 14.4004 43.8C14.4004 45.2302 14.5168 46.6332 14.7405 48H30.7708C30.1986 46.717 29.8805 45.2957 29.8805 43.8C29.8805 38.1004 34.5008 33.48 40.2003 33.48C43.3154 33.48 46.1081 34.8602 48.0003 37.0424V19.2001Z" fill="white"/>
<path d="M2.53125 0C3.72511 10.7999 12.8813 19.2 23.9994 19.2C35.1174 19.2 44.2737 10.7999 45.4675 0H30.0203C29.0667 2.39066 26.7302 4.07998 23.9994 4.07998C21.2684 4.07998 18.9322 2.39066 17.9784 0H2.53125Z" fill="white"/>
</svg>
