<svg width="176" height="36" viewBox="0 0 176 36" fill="none" xmlns="http://www.w3.org/2000/svg">
<path d="M7.96592 17.6263L3.98124 21.6075L0 17.6263L3.98124 13.645L7.96592 17.6263ZM17.6263 7.95904L24.4488 14.785L28.4301 10.8038L17.6263 0L6.82252 10.8038L10.8038 14.785L17.6263 7.95904ZM31.2748 13.645L27.2935 17.6263L31.2748 21.6075L35.2526 17.6263L31.2748 13.645ZM17.6263 27.2935L10.8038 20.471L6.82252 24.4488L17.6263 35.2526L28.4301 24.4488L24.4488 20.471L17.6263 27.2935ZM17.6263 21.6075L21.6075 17.6263L17.6263 13.645L13.645 17.6263L17.6263 21.6075ZM59.6428 21.9898V21.9347C59.6428 19.3379 58.2652 18.0396 56.0232 17.1855C57.4008 16.4106 58.5649 15.1948 58.5649 13.0148V12.9597C58.5649 9.92211 56.1334 7.95904 52.1832 7.95904H43.2151V27.2935H52.4105C56.774 27.2935 59.6497 25.5268 59.6497 21.9898H59.6428ZM54.3391 13.7243C54.3391 15.1604 53.1509 15.77 51.274 15.77H47.3582V11.6889H51.5564C53.3507 11.6889 54.346 12.4052 54.346 13.676L54.3391 13.7243ZM55.4171 21.4594C55.4171 22.8956 54.284 23.5568 52.4036 23.5568H47.3582V19.3104H52.2727C54.4562 19.3104 55.424 20.1128 55.424 21.4112L55.4171 21.4594ZM68.58 27.2935V7.95904H64.3129V27.2935H68.58ZM91.4445 27.2935V7.95904H87.2326V19.8649L78.1749 7.95904H74.2522V27.2935H78.4504V15.002L87.8111 27.2935H91.4445ZM115.005 27.2935L106.705 7.82128H102.782L94.4994 27.2935H98.8353L100.609 22.9576H108.785L110.552 27.2935H115.005ZM107.273 19.2002H102.121L104.69 12.9321L107.273 19.2002ZM135.28 27.2935V7.95904H131.068V19.8649L122.006 7.95904H118.087V27.2935H122.282V15.002L131.646 27.2935H135.28ZM157.235 24.1733L154.531 21.4388C153.013 22.8164 151.659 23.7015 149.448 23.7015C146.135 23.7015 143.841 20.9463 143.841 17.6263V17.5712C143.841 14.2581 146.19 11.5511 149.448 11.5511C151.38 11.5511 152.892 12.3777 154.394 13.7311L157.09 10.6109C155.296 8.84414 153.116 7.62842 149.469 7.62842C143.531 7.62842 139.388 12.1297 139.388 17.616V17.6711C139.388 23.2228 143.614 27.6138 149.303 27.6138C153.026 27.6242 155.234 26.2982 157.221 24.1733H157.235ZM175.385 27.2935V23.5052H164.874V19.4378H173.99V15.6494H164.874V11.744H175.233V7.9556H160.648V27.2901L175.385 27.2935Z" fill="url(#paint0_linear_2863_810)"/>
<defs>
<linearGradient id="paint0_linear_2863_810" x1="175.385" y1="17.2581" x2="-3.04101e-09" y2="17.2581" gradientUnits="userSpaceOnUse">
<stop stop-color="white" stop-opacity="0.4"/>
<stop offset="0.515625" stop-color="white" stop-opacity="0.8"/>
<stop offset="1" stop-color="white" stop-opacity="0.4"/>
</linearGradient>
</defs>
</svg>
