<svg width="176" height="39" viewBox="0 0 176 39" fill="none" xmlns="http://www.w3.org/2000/svg">
<path fill-rule="evenodd" clip-rule="evenodd" d="M13.6508 33.4546C15.01 33.4546 16.2815 33.2062 17.48 32.7238C17.48 32.7677 19.9208 36.5531 19.9646 36.5677C17.8044 37.725 15.3851 38.3135 12.9346 38.2777C5.43692 38.2923 0 33.3377 0 25.46C0 17.5238 5.7 12.5985 12.9346 12.5985C15.4923 12.5985 17.5238 13.1538 19.5554 14.2354L17.2169 18.1815C15.9892 17.6992 14.7323 17.48 13.4169 17.48C8.98846 17.48 5.55385 20.3008 5.55385 25.46C5.55385 30.3415 8.87154 33.4546 13.6508 33.4546ZM32.5485 12.5985C39.9146 12.5985 45.2492 17.8162 45.2492 25.46C45.2492 33.06 39.9146 38.2777 32.5339 38.2777C25.2262 38.2777 19.8915 33.06 19.8915 25.46C19.8915 17.8162 25.2262 12.5985 32.5485 12.5985V12.5985ZM32.5485 17.3046C28.4415 17.3046 25.4454 20.4762 25.4454 25.46C25.4454 30.4 28.4415 33.5715 32.5485 33.5715C36.7577 33.5715 39.71 30.4 39.71 25.46C39.71 20.4762 36.7577 17.3046 32.5485 17.3046V17.3046ZM48.7423 37.7223V13.1538H54.2377V37.7077H48.7423V37.7223ZM48.0115 5.59769C48.0685 4.7236 48.456 3.90394 49.0952 3.30504C49.7344 2.70613 50.5775 2.37287 51.4535 2.37287C52.3294 2.37287 53.1725 2.70613 53.8118 3.30504C54.451 3.90394 54.8384 4.7236 54.8954 5.59769C54.8956 6.51547 54.5361 7.39676 53.894 8.05252C53.2519 8.70828 52.3784 9.08626 51.4608 9.10539C50.5432 9.08626 49.6697 8.70828 49.0276 8.05252C48.3855 7.39676 48.026 6.51547 48.0262 5.59769H48.0115ZM59.0315 14.7031C62.6312 13.3501 66.44 12.6378 70.2854 12.5985C76.57 12.5985 80.5454 14.9808 80.5454 21.9085V37.7223H75.1231V22.42C75.1231 18.8685 72.9162 17.5969 69.8615 17.5969C67.9177 17.5969 65.9739 17.86 64.5269 18.3131V37.7077H59.0462V14.7031H59.0315ZM85.1492 0H90.6446V13.8115C91.8139 13.1977 94.0792 12.5985 96.2423 12.5985C103.345 12.5985 108.665 17.1292 108.665 25.0215C108.665 32.9577 103.404 38.2777 94.3131 38.2777C90.7615 38.2777 87.6485 37.5469 85.1492 36.67V0V0ZM90.6446 33.06C91.6969 33.3962 93.0854 33.5715 94.4739 33.5715C99.5162 33.5715 103.126 30.7946 103.126 25.1385C103.126 20.3592 99.7354 17.5385 95.5846 17.5385C93.4216 17.5385 91.7554 18.0938 90.6446 18.7077V33.06ZM124.552 21.2508C124.552 18.5908 122.535 17.3631 119.817 17.3631C116.996 17.3631 114.775 18.1962 112.728 19.3654V14.5862C115.176 13.2559 117.923 12.5718 120.708 12.5985C126.087 12.5985 129.916 14.82 129.916 20.9731V37.2254C127.578 37.8392 124.26 38.2192 121.483 38.2192C115.111 38.2192 110.448 36.29 110.448 30.7362C110.448 25.7377 114.716 23.2969 121.819 23.2969H124.538V21.2508H124.552ZM124.552 26.9508H122.214C118.385 26.9508 115.885 28.0762 115.885 30.5754C115.885 33.1185 118.224 34.1123 121.542 34.1123C122.375 34.1123 123.544 34.01 124.538 33.8492V26.9654L124.552 26.9508ZM133.906 31.0723C136.048 32.7692 138.673 33.7416 141.404 33.8492C143.845 33.8492 145.452 33.0162 145.452 31.0723C145.452 29.07 144.005 28.3538 140.848 27.5208C135.733 26.3515 133.585 24.3054 133.585 20.0231C133.585 15.0392 137.355 12.5985 142.354 12.5985C145.131 12.5985 147.338 13.1977 149.398 14.4838V19.5262C147.44 17.9629 145.02 17.0896 142.515 17.0415C140.132 17.0415 138.861 18.2108 138.861 19.8185C138.861 21.4262 139.898 22.2446 142.734 23.0338C148.346 24.2469 150.772 26.3515 150.772 30.78C150.772 35.9538 146.841 38.2777 141.521 38.2777C138.852 38.331 136.221 37.6429 133.921 36.29V31.0723H133.906ZM158.299 26.6877V26.79C158.635 31.1746 162.392 33.5715 166.235 33.5715C169.612 33.5715 172.052 32.7823 174.493 31.1746V35.9977C172.272 37.5615 168.998 38.2777 165.841 38.2777C158.182 38.2777 152.979 33.3962 152.979 25.6354C152.979 17.8162 158.08 12.5985 164.847 12.5985C172.008 12.5985 175.385 17.2023 175.385 23.9108V26.6877H158.285H158.299ZM170.225 23.1362C170.108 19.3069 168.223 17.2023 164.672 17.2023C161.515 17.2023 159.191 19.4238 158.46 23.1362H170.225Z" fill="url(#paint0_linear_2863_820)"/>
<defs>
<linearGradient id="paint0_linear_2863_820" x1="175.385" y1="18.7405" x2="-3.04101e-09" y2="18.7405" gradientUnits="userSpaceOnUse">
<stop stop-color="white" stop-opacity="0.4"/>
<stop offset="0.515625" stop-color="white" stop-opacity="0.8"/>
<stop offset="1" stop-color="white" stop-opacity="0.4"/>
</linearGradient>
</defs>
</svg>
