<svg width="176" height="37" viewBox="0 0 176 37" fill="none" xmlns="http://www.w3.org/2000/svg">
<path d="M36.0692 22.7404C33.6236 32.5497 23.6884 38.5195 13.878 36.0733C4.0715 33.6277 -1.89831 23.6919 0.548436 13.8832C2.9929 4.07273 12.9281 -1.89767 22.7357 0.547942C32.5456 2.99355 38.5148 12.9305 36.0692 22.7404V22.7404Z" fill="url(#paint0_linear_2863_824)"/>
<path d="M26.3819 15.7017C26.7464 13.2652 24.8913 11.9555 22.3547 11.0817L23.1775 7.78121L21.1685 7.28053L20.3674 10.494C19.8393 10.3624 19.2968 10.2383 18.7578 10.1152L19.5646 6.88056L17.5568 6.37988L16.7334 9.67922C16.2962 9.57965 15.867 9.48124 15.4505 9.37767L15.4528 9.36737L12.6821 8.67557L12.1477 10.8213C12.1477 10.8213 13.6383 11.1629 13.6068 11.1841C14.4205 11.3873 14.5676 11.9257 14.543 12.3526L13.6057 16.1125C13.6618 16.1268 13.7344 16.1474 13.8145 16.1795C13.7476 16.1629 13.6761 16.1446 13.6022 16.1268L12.2885 21.394C12.1889 21.6412 11.9366 22.012 11.3678 21.8712C11.3878 21.9004 9.90751 21.5067 9.90751 21.5067L8.91016 23.8064L11.5246 24.4581C12.0109 24.58 12.4876 24.7076 12.9568 24.8278L12.1254 28.166L14.1321 28.6667L14.9555 25.3639C15.5037 25.5127 16.0358 25.65 16.5565 25.7794L15.736 29.0667L17.745 29.5674L18.5764 26.2354C22.0022 26.8837 24.5783 26.6222 25.6626 23.5237C26.5364 21.0289 25.6191 19.5898 23.8167 18.6514C25.1293 18.3487 26.1181 17.4852 26.3819 15.7017V15.7017ZM21.7917 22.1384C21.1708 24.6332 16.9702 23.2845 15.6084 22.9464L16.7116 18.5238C18.0735 18.8637 22.4405 19.5366 21.7917 22.1384ZM22.4131 15.6656C21.8466 17.935 18.3504 16.782 17.2163 16.4993L18.2165 12.4882C19.3506 12.7708 23.003 13.2984 22.4131 15.6656V15.6656Z" fill="white"/>
<path d="M53.658 11.0782C55.1429 11.0782 56.4258 11.3443 57.5038 11.8667C58.587 12.3943 59.4808 13.105 60.1977 13.9987C60.905 14.8971 61.4314 15.9471 61.7713 17.1504C62.1089 18.3572 62.2783 19.6544 62.2783 21.0432C62.2783 23.1763 61.8875 25.1916 61.0984 27.0914C60.3093 28.9939 59.2387 30.6442 57.8769 32.0518C56.5162 33.4577 54.9094 34.5661 53.0566 35.3849C51.2067 36.2043 49.1954 36.614 47.0359 36.614C46.7566 36.614 46.2657 36.606 45.5722 36.5917C44.8787 36.5774 44.0816 36.5059 43.1889 36.3851C42.2906 36.2598 41.3407 36.0744 40.3376 35.8261C39.3351 35.5823 38.383 35.2407 37.4863 34.807L45.5041 1.11782L52.6852 0.00488281L49.8145 11.96C50.429 11.683 51.0482 11.4684 51.6662 11.3122C52.2847 11.1583 52.9485 11.0782 53.658 11.0782V11.0782ZM47.6344 30.9171C48.7159 30.9171 49.735 30.6511 50.6923 30.1286C51.6524 29.6056 52.481 28.8995 53.1751 28.0201C53.8691 27.1366 54.4185 26.1415 54.819 25.0297C55.2195 23.9179 55.4221 22.7581 55.4221 21.5513C55.4221 20.0687 55.1743 18.9123 54.6805 18.0763C54.1867 17.2437 53.2729 16.8249 51.946 16.8249C51.5111 16.8249 50.9509 16.9078 50.2562 17.056C49.5593 17.2134 48.9356 17.5401 48.3765 18.0316L45.3198 30.7277C45.5041 30.7603 45.6671 30.7912 45.8062 30.8204C45.9424 30.8519 46.0929 30.8742 46.2428 30.8897C46.4013 30.9074 46.5827 30.9166 46.8018 30.9166C47.021 30.9166 47.2951 30.9171 47.6344 30.9171V30.9171ZM69.7255 35.9691H62.8665L68.6589 11.5949H75.5649L69.7255 35.9691ZM73.0632 8.62516C72.1059 8.62516 71.2379 8.3402 70.4677 7.76914C69.6912 7.20151 69.3067 6.32775 69.3067 5.15015C69.3067 4.50242 69.4383 3.89473 69.6992 3.32138C69.9641 2.74918 70.3103 2.25651 70.744 1.83766C71.1772 1.42224 71.679 1.09036 72.249 0.840303C72.8223 0.594254 73.4323 0.47123 74.0823 0.47123C75.039 0.47123 75.9025 0.756188 76.6755 1.32725C77.4457 1.90117 77.8331 2.77493 77.8331 3.94623C77.8331 4.59626 77.7021 5.20623 77.4389 5.77843C77.1774 6.35064 76.8312 6.84331 76.3974 7.26216C75.9677 7.67816 75.4613 8.00889 74.8925 8.25666C74.3186 8.50671 73.7109 8.62516 73.0632 8.62516V8.62516ZM81.5759 5.52209L88.7599 4.40915L86.9958 11.5938H94.6897L93.3004 17.246H85.6529L83.6158 25.7719C83.4281 26.4825 83.3217 27.1463 83.2919 27.7631C83.2582 28.3828 83.3366 28.915 83.522 29.363C83.7062 29.8122 84.0375 30.1584 84.5182 30.4033C84.9965 30.6522 85.6815 30.7775 86.5798 30.7775C87.3197 30.7775 88.0407 30.7071 88.7376 30.5675C89.4306 30.4302 90.1327 30.2391 90.8433 29.989L91.3549 35.2739C90.4279 35.6138 89.4243 35.9062 88.3428 36.1522C87.2596 36.4017 85.9773 36.5219 84.4953 36.5219C82.3644 36.5219 80.7124 36.2055 79.5354 35.5755C78.3601 34.9409 77.5293 34.074 77.032 32.9765C76.5416 31.883 76.3225 30.6224 76.3837 29.2022C76.4472 27.7786 76.6618 26.2823 77.032 24.7064L81.5759 5.52209ZM94.3876 26.2359C94.3876 24.1365 94.7275 22.1567 95.4067 20.3033C96.0847 18.4482 97.0615 16.826 98.3289 15.4338C99.5918 14.0485 101.13 12.951 102.941 12.1454C104.744 11.3443 106.762 10.9403 108.986 10.9403C110.378 10.9403 111.622 11.0719 112.716 11.3357C113.815 11.6018 114.808 11.9457 115.707 12.3771L113.342 17.7558C112.724 17.5052 112.082 17.2843 111.419 17.0841C110.756 16.8798 109.945 16.7814 108.987 16.7814C106.697 16.7814 104.888 17.5704 103.541 19.1434C102.199 20.7176 101.523 22.8364 101.523 25.4943C101.523 27.0696 101.863 28.3433 102.545 29.3178C103.224 30.2923 104.477 30.7769 106.297 30.7769C107.196 30.7769 108.063 30.6831 108.893 30.5C109.73 30.3146 110.468 30.0811 111.119 29.8053L111.631 35.3191C110.764 35.6556 109.807 35.9594 108.757 36.2255C107.706 36.4824 106.454 36.6157 105.002 36.6157C103.086 36.6157 101.463 36.3353 100.137 35.7832C98.809 35.2224 97.7121 34.478 96.8481 33.535C95.9794 32.5897 95.3557 31.4859 94.9701 30.219C94.5844 28.9533 94.3876 27.6235 94.3876 26.2359V26.2359ZM124.858 36.6157C123.22 36.6157 121.799 36.3662 120.592 35.8724C119.39 35.3786 118.393 34.6857 117.605 33.7873C116.816 32.8935 116.226 31.8344 115.821 30.6139C115.417 29.3939 115.222 28.0429 115.222 26.5626C115.222 24.7058 115.52 22.8496 116.123 20.9985C116.722 19.1434 117.612 17.4766 118.79 15.9952C119.958 14.5114 121.4 13.2984 123.097 12.3525C124.792 11.4129 126.742 10.9403 128.933 10.9403C130.54 10.9403 131.955 11.1904 133.177 11.6842C134.394 12.1768 135.397 12.8755 136.189 13.7693C136.973 14.6676 137.569 15.7222 137.97 16.9444C138.373 18.1621 138.572 19.5165 138.572 20.998C138.572 22.849 138.278 24.7053 137.694 26.5621C137.11 28.4097 136.243 30.0806 135.099 31.5654C133.957 33.0469 132.528 34.2594 130.813 35.2012C129.1 36.1431 127.113 36.6157 124.858 36.6157V36.6157ZM128.286 16.7819C127.269 16.7819 126.37 17.0772 125.6 17.6603C124.828 18.2502 124.179 18.9918 123.656 19.8862C123.127 20.7845 122.735 21.7641 122.47 22.829C122.208 23.8962 122.079 24.905 122.079 25.8634C122.079 27.4101 122.328 28.6146 122.819 29.4815C123.316 30.3438 124.209 30.7775 125.508 30.7775C126.528 30.7775 127.422 30.4845 128.196 29.8952C128.964 29.3098 129.614 28.5677 130.141 27.6716C130.666 26.7778 131.061 25.7953 131.326 24.7287C131.586 23.665 131.718 22.6505 131.718 21.6938C131.718 20.1511 131.469 18.9437 130.974 18.078C130.48 17.2157 129.583 16.7819 128.286 16.7819V16.7819ZM146.046 35.9691H139.182L144.974 11.5949H151.883L146.046 35.9691ZM149.379 8.62516C148.422 8.62516 147.555 8.3402 146.786 7.76914C146.013 7.20151 145.625 6.32775 145.625 5.15015C145.625 4.50242 145.758 3.89473 146.02 3.32138C146.281 2.74918 146.63 2.25651 147.064 1.83766C147.495 1.42224 148.001 1.09036 148.57 0.840303C149.14 0.594254 149.75 0.47123 150.397 0.47123C151.356 0.47123 152.223 0.756188 152.994 1.32725C153.766 1.90117 154.156 2.77493 154.156 3.94623C154.156 4.59626 154.017 5.20623 153.758 5.77843C153.499 6.35064 153.15 6.84331 152.718 7.26216C152.283 7.67816 151.783 8.00889 151.213 8.25666C150.639 8.50671 150.03 8.62516 149.379 8.62516V8.62516ZM156.827 12.7033C157.347 12.5511 157.929 12.368 158.561 12.1688C159.196 11.9697 159.905 11.7843 160.696 11.6172C161.48 11.445 162.364 11.3054 163.336 11.1972C164.308 11.0868 165.416 11.033 166.647 11.033C170.264 11.033 172.758 12.0864 174.135 14.187C175.51 16.2876 175.748 19.1623 174.856 22.8061L171.701 35.9668H164.796L167.854 23.0831C168.041 22.2785 168.187 21.5009 168.295 20.741C168.405 19.988 168.398 19.3242 168.271 18.7498C168.149 18.1821 167.862 17.7175 167.416 17.3576C166.963 17.0034 166.279 16.8254 165.352 16.8254C164.458 16.8254 163.548 16.9216 162.619 17.107L158.123 35.9663H151.216L156.827 12.7033Z" fill="url(#paint1_linear_2863_824)"/>
<defs>
<linearGradient id="paint0_linear_2863_824" x1="36.6172" y1="17.9283" x2="-6.34913e-10" y2="17.9283" gradientUnits="userSpaceOnUse">
<stop stop-color="white" stop-opacity="0.4"/>
<stop offset="0.515625" stop-color="white" stop-opacity="0.8"/>
<stop offset="1" stop-color="white" stop-opacity="0.4"/>
</linearGradient>
<linearGradient id="paint1_linear_2863_824" x1="175.384" y1="17.928" x2="37.4863" y2="17.928" gradientUnits="userSpaceOnUse">
<stop stop-color="white" stop-opacity="0.4"/>
<stop offset="0.515625" stop-color="white" stop-opacity="0.8"/>
<stop offset="1" stop-color="white" stop-opacity="0.4"/>
</linearGradient>
</defs>
</svg>
