<svg width="176" height="21" viewBox="0 0 176 21" fill="none" xmlns="http://www.w3.org/2000/svg">
<path d="M155.709 17.3838C156.652 18.3824 161.831 23.168 169.96 17.6139C175.838 13.0363 175.691 3.11193 175.126 0.114892C174.93 0.55111 168.102 15.5023 155.709 17.3838ZM175.126 0.112366C175.054 0.0826407 167.491 -0.948378 160.015 3.86666C155.373 6.85671 154.759 11.2329 154.971 14.149C165.839 12.9327 174.879 0.45532 175.126 0.112366Z" fill="url(#paint0_linear_2863_816)"/>
<path d="M175.126 0.112366C175.054 0.0826406 167.491 -0.948377 160.015 3.86666C155.373 6.85671 154.759 11.2329 154.971 14.149C165.839 12.9327 174.879 0.45532 175.126 0.112366Z" fill="url(#paint1_linear_2863_816)"/>
<path d="M12.1234 16.8004H3.65768V12.2916H12.1234C14.2398 12.2916 15.321 13.3038 15.321 14.6151C15.321 15.8803 14.2628 16.8005 12.1233 16.8005L12.1234 16.8004ZM11.8473 9.87607H3.65768V6.08031H11.8473C14.0787 6.08031 14.9529 6.86246 14.9529 7.94371C14.9529 8.93282 13.9407 9.87607 11.8473 9.87607V9.87607ZM14.0098 11.0263C17.5755 10.9113 18.8637 9.13993 18.8637 7.20757C18.8637 5.09113 17.1843 3.34277 13.0896 3.34277H0V19.4919H13.4807C16.8393 19.4919 19.3468 18.0887 19.3468 15.0751C19.3468 12.9356 17.9435 11.1183 14.0098 11.0263ZM23.6669 3.34277V19.4919H27.3246V3.34277H23.6669ZM42.1578 6.40239H50.2094V3.34277H30.4485V6.40239H38.5V19.4919H42.1577L42.1578 6.40239ZM53.3333 3.34277V19.4919H56.991V13.1887H65.5717V10.5432H56.991V6.12631H70.9317V3.34285L53.3333 3.34277ZM73.8946 3.34277V19.4919H77.5522V3.34277H73.8946ZM86.1282 7.27653L98.2517 19.4919H102.392V3.34277H98.7808V14.9831L87.1404 3.34277H82.4936V19.4919H86.1282V7.27653ZM107.334 3.34277V19.4919H125.231V16.7774H110.991V12.3375H119.526V9.83007H110.991V6.12631H125.231V3.34285L107.334 3.34277ZM149.726 3.34277H144.895L138.73 9.02489L132.611 3.34277H127.711L136.315 11.3024L127.389 19.4919H132.22L138.684 13.5338L145.125 19.4919H150.048L141.1 11.2793L149.726 3.34277Z" fill="url(#paint2_linear_2863_816)"/>
<defs>
<linearGradient id="paint0_linear_2863_816" x1="175.384" y1="9.91443" x2="154.936" y2="9.91443" gradientUnits="userSpaceOnUse">
<stop stop-color="white" stop-opacity="0.4"/>
<stop offset="0.515625" stop-color="white" stop-opacity="0.8"/>
<stop offset="1" stop-color="white" stop-opacity="0.4"/>
</linearGradient>
<linearGradient id="paint1_linear_2863_816" x1="175.126" y1="6.92672" x2="154.936" y2="6.92672" gradientUnits="userSpaceOnUse">
<stop stop-color="white" stop-opacity="0.4"/>
<stop offset="0.515625" stop-color="white" stop-opacity="0.8"/>
<stop offset="1" stop-color="white" stop-opacity="0.4"/>
</linearGradient>
<linearGradient id="paint2_linear_2863_816" x1="150.048" y1="11.2487" x2="-2.60169e-09" y2="11.2487" gradientUnits="userSpaceOnUse">
<stop stop-color="white" stop-opacity="0.4"/>
<stop offset="0.515625" stop-color="white" stop-opacity="0.8"/>
<stop offset="1" stop-color="white" stop-opacity="0.4"/>
</linearGradient>
</defs>
</svg>
