<svg width="152" height="40" viewBox="0 0 152 40" fill="none" xmlns="http://www.w3.org/2000/svg">
<path d="M24.0261 18.587C23.9859 14.1715 27.6835 12.0234 27.8526 11.9234C25.7585 8.90531 22.5127 8.49294 21.3721 8.46006C18.646 8.17648 16.0017 10.0725 14.6131 10.0725C13.1967 10.0725 11.0582 8.48746 8.75348 8.53404C5.78765 8.57925 3.01308 10.2767 1.49136 12.9125C-1.64909 18.287 0.693083 26.1849 3.70187 30.5291C5.20696 32.6567 6.96567 35.0323 9.26765 34.9487C11.5197 34.8569 12.361 33.5294 15.0787 33.5294C17.7715 33.5294 18.5615 34.9487 20.9092 34.8953C23.3262 34.8569 24.8479 32.7581 26.3004 30.6113C28.0397 28.1728 28.7382 25.7712 28.7659 25.6479C28.7091 25.6287 24.0718 23.8792 24.0261 18.587Z" fill="white"/>
<path d="M19.5893 5.60186C20.8006 4.10447 21.6294 2.06731 21.3993 0C19.6461 0.0767191 17.4536 1.19874 16.1911 2.66325C15.0741 3.95377 14.0762 6.06903 14.334 8.05824C16.3033 8.20346 18.3254 7.07597 19.5893 5.60186Z" fill="white"/>
<path d="M56.6175 34.6424H53.4701L51.746 29.2871H45.7534L44.1111 34.6424H41.0469L46.9841 16.4106H50.6512L56.6175 34.6424ZM51.2263 27.0403L49.6672 22.2797C49.5023 21.7933 49.1932 20.648 48.7372 18.8451H48.6818C48.5002 19.6205 48.2078 20.7658 47.8059 22.2797L46.2745 27.0403H51.2263V27.0403Z" fill="white"/>
<path d="M71.8852 27.9085C71.8852 30.1443 71.274 31.9116 70.0517 33.2089C68.9568 34.3638 67.5972 34.9406 65.9744 34.9406C64.2226 34.9406 62.9642 34.3186 62.1978 33.0747H62.1423V39.9999H59.1876V25.8247C59.1876 24.4191 59.1502 22.9765 59.0781 21.4969H61.6767L61.8416 23.5807H61.897C62.8824 22.0107 64.3778 21.2271 66.3846 21.2271C67.9534 21.2271 69.2631 21.8394 70.3108 23.0656C71.3614 24.2931 71.8852 25.9069 71.8852 27.9085ZM68.8751 28.0153C68.8751 26.7358 68.584 25.6809 67.9992 24.8507C67.3603 23.9848 66.5024 23.5519 65.4269 23.5519C64.6979 23.5519 64.0355 23.793 63.4437 24.2684C62.8505 24.7479 62.4625 25.374 62.2809 26.1494C62.1895 26.5111 62.1437 26.807 62.1437 27.0399V29.2319C62.1437 30.1881 62.4403 30.995 63.0335 31.654C63.6266 32.313 64.3972 32.6418 65.3452 32.6418C66.458 32.6418 67.3242 32.2171 67.9437 31.3704C68.5646 30.5224 68.8751 29.4045 68.8751 28.0153Z" fill="white"/>
<path d="M87.1807 27.9085C87.1807 30.1443 86.5695 31.9116 85.3458 33.2089C84.2523 34.3638 82.8927 34.9406 81.2699 34.9406C79.5181 34.9406 78.2597 34.3186 77.4947 33.0747H77.4392V39.9999H74.4845V25.8247C74.4845 24.4191 74.4471 22.9765 74.375 21.4969H76.9736L77.1385 23.5807H77.1939C78.1779 22.0107 79.6733 21.2271 81.6815 21.2271C83.2489 21.2271 84.5586 21.8394 85.6091 23.0656C86.6555 24.2931 87.1807 25.9069 87.1807 27.9085ZM84.1705 28.0153C84.1705 26.7358 83.8781 25.6809 83.2933 24.8507C82.6544 23.9848 81.7993 23.5519 80.7224 23.5519C79.9921 23.5519 79.331 23.793 78.7378 24.2684C78.1447 24.7479 77.758 25.374 77.5764 26.1494C77.4863 26.5111 77.4392 26.807 77.4392 27.0399V29.2319C77.4392 30.1881 77.7358 30.995 78.3262 31.654C78.9194 32.3116 79.6899 32.6418 80.6407 32.6418C81.7535 32.6418 82.6197 32.2171 83.2392 31.3704C83.8601 30.5224 84.1705 29.4045 84.1705 28.0153Z" fill="white"/>
<path d="M104.286 29.5302C104.286 31.081 103.741 32.3427 102.648 33.3168C101.446 34.3813 99.7733 34.9128 97.6237 34.9128C95.6391 34.9128 94.0481 34.5347 92.8438 33.7771L93.5284 31.3426C94.8256 32.1181 96.2489 32.5071 97.7997 32.5071C98.9126 32.5071 99.7788 32.2578 100.401 31.7619C101.021 31.2659 101.33 30.6001 101.33 29.7699C101.33 29.0301 101.075 28.4068 100.563 27.9012C100.055 27.3957 99.205 26.9258 98.0187 26.4915C94.7896 25.301 93.1764 23.557 93.1764 21.2637C93.1764 19.7649 93.7418 18.536 94.8741 17.5798C96.0022 16.6222 97.5073 16.144 99.3894 16.144C101.068 16.144 102.462 16.4331 103.575 17.0099L102.836 19.3909C101.797 18.832 100.621 18.5525 99.3062 18.5525C98.2668 18.5525 97.4546 18.8059 96.8726 19.3101C96.3806 19.7608 96.1339 20.3102 96.1339 20.9609C96.1339 21.6815 96.4152 22.2775 96.9807 22.746C97.4727 23.1789 98.3666 23.6474 99.6638 24.153C101.251 24.7845 102.416 25.523 103.166 26.3696C103.913 27.2135 104.286 28.2698 104.286 29.5302Z" fill="white"/>
<path d="M114.052 23.6888H110.795V30.0715C110.795 31.695 111.369 32.506 112.52 32.506C113.048 32.506 113.485 32.4608 113.832 32.3704L113.914 34.5884C113.332 34.8035 112.565 34.9117 111.616 34.9117C110.449 34.9117 109.537 34.5596 108.879 33.8568C108.223 33.1526 107.893 31.9717 107.893 30.3127V23.6861H105.953V21.4941H107.893V19.087L110.795 18.2212V21.4941H114.052V23.6888Z" fill="white"/>
<path d="M128.749 27.9615C128.749 29.9822 128.164 31.6413 126.997 32.9387C125.773 34.2744 124.149 34.9402 122.124 34.9402C120.173 34.9402 118.619 34.3004 117.461 33.0208C116.302 31.7413 115.723 30.1261 115.723 28.1793C115.723 26.1422 116.319 24.4735 117.515 23.1761C118.708 21.8774 120.318 21.228 122.343 21.228C124.294 21.228 125.865 21.8678 127.05 23.1487C128.183 24.3913 128.749 25.9956 128.749 27.9615ZM125.683 28.056C125.683 26.8436 125.421 25.8038 124.89 24.9366C124.271 23.8872 123.385 23.3638 122.238 23.3638C121.05 23.3638 120.148 23.8885 119.528 24.9366C118.998 25.8051 118.736 26.8614 118.736 28.1108C118.736 29.3233 118.998 30.3631 119.528 31.2289C120.167 32.2783 121.06 32.8017 122.211 32.8017C123.34 32.8017 124.225 32.2674 124.864 31.2015C125.409 30.3179 125.683 29.2671 125.683 28.056Z" fill="white"/>
<path d="M138.353 24.0657C138.061 24.0122 137.749 23.9848 137.422 23.9848C136.383 23.9848 135.579 24.3725 135.013 25.1493C134.521 25.8343 134.275 26.7001 134.275 27.7454V34.6433H131.321L131.349 25.637C131.349 24.1218 131.312 22.7423 131.238 21.4983H133.812L133.92 24.0136H134.002C134.314 23.1491 134.806 22.4532 135.479 21.9312C136.137 21.4613 136.848 21.2271 137.615 21.2271C137.888 21.2271 138.135 21.2462 138.353 21.2805V24.0657Z" fill="white"/>
<path d="M151.565 27.4484C151.565 27.9717 151.53 28.4129 151.457 28.7732H142.593C142.627 30.0719 143.056 31.0652 143.879 31.7501C144.626 32.3625 145.592 32.6694 146.778 32.6694C148.091 32.6694 149.288 32.4625 150.365 32.0474L150.828 34.075C149.569 34.6175 148.084 34.8874 146.369 34.8874C144.307 34.8874 142.688 34.2874 141.51 33.0886C140.335 31.8899 139.746 30.2801 139.746 28.2608C139.746 26.2784 140.294 24.6276 141.39 23.311C142.537 21.9054 144.088 21.2026 146.039 21.2026C147.956 21.2026 149.407 21.9054 150.393 23.311C151.173 24.4276 151.565 25.8085 151.565 27.4484ZM148.748 26.6908C148.767 25.825 148.574 25.0769 148.174 24.4454C147.662 23.633 146.877 23.2275 145.819 23.2275C144.853 23.2275 144.067 23.6234 143.467 24.418C142.975 25.0496 142.683 25.8072 142.593 26.6894H148.748V26.6908Z" fill="white"/>
<path d="M50.2486 5.19507C50.2486 6.80755 49.7594 8.02135 48.7823 8.83649C47.8773 9.58861 46.5912 9.96536 44.9254 9.96536C44.0994 9.96536 43.3926 9.92974 42.8008 9.8585V1.04813C43.5727 0.924835 44.4043 0.861816 45.3023 0.861816C46.8892 0.861816 48.0852 1.20294 48.8918 1.88519C49.7954 2.65649 50.2486 3.75933 50.2486 5.19507ZM48.7172 5.2348C48.7172 4.18951 48.4372 3.38807 47.8773 2.82911C47.3174 2.27153 46.4998 1.99205 45.4229 1.99205C44.9656 1.99205 44.5761 2.02219 44.2532 2.08521V8.78306C44.432 8.81046 44.7591 8.82279 45.2344 8.82279C46.3459 8.82279 47.2038 8.51728 47.808 7.90627C48.4123 7.29526 48.7172 6.40477 48.7172 5.2348Z" fill="white"/>
<path d="M58.3675 6.60353C58.3675 7.59677 58.0806 8.41054 57.5068 9.04895C56.9053 9.70517 56.1084 10.0326 55.1134 10.0326C54.1543 10.0326 53.3907 9.71887 52.8211 9.08868C52.2529 8.45986 51.9688 7.66663 51.9688 6.71039C51.9688 5.7103 52.2612 4.88968 52.8488 4.25264C53.4364 3.61559 54.2264 3.29639 55.2215 3.29639C56.1805 3.29639 56.9511 3.61011 57.5345 4.23894C58.0889 4.84995 58.3675 5.63906 58.3675 6.60353ZM56.861 6.65011C56.861 6.05416 56.7307 5.54316 56.4715 5.11709C56.1666 4.60198 55.7329 4.34442 55.1688 4.34442C54.5853 4.34442 54.1418 4.60198 53.8369 5.11709C53.5764 5.54316 53.4475 6.06238 53.4475 6.67614C53.4475 7.27208 53.5778 7.78308 53.8369 8.20915C54.1515 8.72426 54.5895 8.98182 55.1549 8.98182C55.7093 8.98182 56.1445 8.72015 56.4577 8.19545C56.7265 7.76116 56.861 7.24605 56.861 6.65011Z" fill="white"/>
<path d="M69.2548 3.42773L67.2106 9.88584H65.8801L65.0333 7.08148C64.8185 6.38142 64.6439 5.68547 64.5081 4.995H64.4817C64.3556 5.70465 64.181 6.39923 63.9565 7.08148L63.057 9.88584H61.7113L59.7891 3.42773H61.2817L62.0204 6.49787C62.1991 7.22396 62.346 7.9158 62.4639 8.57065H62.4902C62.5983 8.03088 62.7771 7.34315 63.0293 6.51157L63.9565 3.4291H65.14L66.0284 6.44581C66.2432 7.18149 66.4178 7.88977 66.5523 8.57202H66.5924C66.6908 7.90758 66.8391 7.1993 67.0359 6.44581L67.8287 3.4291H69.2548V3.42773Z" fill="white"/>
<path d="M76.7851 9.88572H75.3327V6.18677C75.3327 5.04694 74.8948 4.47703 74.0161 4.47703C73.5851 4.47703 73.2372 4.63321 72.967 4.94693C72.6995 5.26066 72.5637 5.63055 72.5637 6.05388V9.88436H71.1113V5.27299C71.1113 4.70582 71.0932 4.09069 71.0586 3.42488H72.335L72.4029 4.43456H72.4431C72.6122 4.12083 72.8644 3.86191 73.1957 3.65504C73.5892 3.41392 74.03 3.29199 74.5123 3.29199C75.122 3.29199 75.6293 3.48653 76.0326 3.87698C76.5343 4.3551 76.7851 5.06886 76.7851 6.01689V9.88572V9.88572Z" fill="white"/>
<path d="M80.7909 9.88573H79.3398V0.464355H80.7909V9.88573Z" fill="white"/>
<path d="M89.344 6.60353C89.344 7.59677 89.0571 8.41054 88.4834 9.04895C87.8819 9.70517 87.0836 10.0326 86.0899 10.0326C85.1295 10.0326 84.3659 9.71887 83.7976 9.08868C83.2294 8.45986 82.9453 7.66663 82.9453 6.71039C82.9453 5.7103 83.2377 4.88968 83.8254 4.25264C84.413 3.61559 85.2029 3.29639 86.1966 3.29639C87.1571 3.29639 87.9262 3.61011 88.5111 4.23894C89.0654 4.84995 89.344 5.63906 89.344 6.60353ZM87.8362 6.65011C87.8362 6.05416 87.7059 5.54316 87.4467 5.11709C87.1432 4.60198 86.708 4.34442 86.1454 4.34442C85.5605 4.34442 85.117 4.60198 84.8135 5.11709C84.553 5.54316 84.4241 6.06238 84.4241 6.67614C84.4241 7.27208 84.5543 7.78308 84.8135 8.20915C85.1281 8.72426 85.5661 8.98182 86.1315 8.98182C86.6859 8.98182 87.1196 8.72015 87.4329 8.19545C87.7031 7.76116 87.8362 7.24605 87.8362 6.65011Z" fill="white"/>
<path d="M96.3712 9.88601H95.0671L94.959 9.14211H94.9188C94.4726 9.73531 93.8364 10.0326 93.0104 10.0326C92.3937 10.0326 91.8948 9.83669 91.5192 9.44761C91.1783 9.09416 91.0078 8.65439 91.0078 8.13243C91.0078 7.34332 91.3404 6.7419 92.0098 6.32542C92.6778 5.90895 93.6175 5.70482 94.8274 5.71441V5.59385C94.8274 4.74309 94.3756 4.3184 93.4706 4.3184C92.8261 4.3184 92.2579 4.47868 91.7673 4.79652L91.4721 3.85397C92.0791 3.4827 92.8289 3.29639 93.7131 3.29639C95.4205 3.29639 96.277 4.18688 96.277 5.96785V8.34615C96.277 8.99141 96.3089 9.50515 96.3712 9.88601ZM94.8634 7.66663V6.67066C93.2613 6.64326 92.4602 7.07754 92.4602 7.97214C92.4602 8.30916 92.5517 8.56123 92.7388 8.72974C92.9259 8.89825 93.1643 8.98182 93.4484 8.98182C93.7671 8.98182 94.0651 8.88181 94.3367 8.68316C94.6098 8.48315 94.7775 8.2297 94.8398 7.91871C94.8551 7.84884 94.8634 7.7639 94.8634 7.66663Z" fill="white"/>
<path d="M104.623 9.88573H103.334L103.266 8.84866H103.226C102.815 9.63777 102.113 10.0323 101.128 10.0323C100.341 10.0323 99.6853 9.72682 99.1656 9.1158C98.6459 8.50479 98.3867 7.71157 98.3867 6.73751C98.3867 5.69221 98.6681 4.84556 99.2335 4.19893C99.7809 3.59614 100.452 3.29474 101.25 3.29474C102.127 3.29474 102.741 3.58655 103.09 4.17153H103.118V0.464355H104.572V8.14585C104.572 8.77468 104.589 9.35418 104.623 9.88573ZM103.118 7.16221V6.0854C103.118 5.89908 103.104 5.74838 103.078 5.6333C102.996 5.28807 102.82 4.99763 102.553 4.76336C102.282 4.5291 101.957 4.41128 101.581 4.41128C101.039 4.41128 100.615 4.62363 100.303 5.04969C99.9944 5.47576 99.8378 6.01964 99.8378 6.68408C99.8378 7.32249 99.986 7.84035 100.284 8.23901C100.599 8.66371 101.023 8.87606 101.553 8.87606C102.03 8.87606 102.411 8.69933 102.701 8.3445C102.981 8.01708 103.118 7.62252 103.118 7.16221Z" fill="white"/>
<path d="M117.047 6.60353C117.047 7.59677 116.76 8.41054 116.186 9.04895C115.585 9.70517 114.79 10.0326 113.793 10.0326C112.835 10.0326 112.072 9.71887 111.501 9.08868C110.933 8.45986 110.648 7.66663 110.648 6.71039C110.648 5.7103 110.941 4.88968 111.528 4.25264C112.116 3.61559 112.906 3.29639 113.903 3.29639C114.86 3.29639 115.632 3.61011 116.214 4.23894C116.769 4.84995 117.047 5.63906 117.047 6.60353ZM115.542 6.65011C115.542 6.05416 115.412 5.54316 115.153 5.11709C114.846 4.60198 114.414 4.34442 113.848 4.34442C113.266 4.34442 112.823 4.60198 112.517 5.11709C112.256 5.54316 112.127 6.06238 112.127 6.67614C112.127 7.27208 112.257 7.78308 112.517 8.20915C112.831 8.72426 113.269 8.98182 113.835 8.98182C114.389 8.98182 114.826 8.72015 115.139 8.19545C115.406 7.76116 115.542 7.24605 115.542 6.65011Z" fill="white"/>
<path d="M124.854 9.88572H123.403V6.18677C123.403 5.04694 122.965 4.47703 122.085 4.47703C121.654 4.47703 121.306 4.63321 121.037 4.94693C120.768 5.26066 120.634 5.63055 120.634 6.05388V9.88436H119.18V5.27299C119.18 4.70582 119.164 4.09069 119.129 3.42488H120.404L120.472 4.43456H120.512C120.683 4.12083 120.935 3.86191 121.265 3.65504C121.66 3.41392 122.099 3.29199 122.583 3.29199C123.191 3.29199 123.698 3.48653 124.102 3.87698C124.605 4.3551 124.854 5.06886 124.854 6.01689V9.88572V9.88572Z" fill="white"/>
<path d="M134.631 4.50313H133.032V7.6404C133.032 8.43773 133.316 8.83639 133.879 8.83639C134.139 8.83639 134.355 8.81447 134.526 8.76926L134.563 9.8584C134.276 9.96526 133.9 10.0187 133.435 10.0187C132.861 10.0187 132.415 9.84607 132.092 9.50084C131.768 9.1556 131.607 8.57473 131.607 7.75959V4.50313H130.652V3.4277H131.607V2.24403L133.031 1.81934V3.42633H134.63V4.50313H134.631Z" fill="white"/>
<path d="M142.318 9.88573H140.865V6.21418C140.865 5.05654 140.427 4.47704 139.549 4.47704C138.876 4.47704 138.416 4.81268 138.163 5.48398C138.121 5.62509 138.096 5.7977 138.096 6.00046V9.88437H136.645V0.464355H138.096V4.35648H138.123C138.581 3.6482 139.236 3.29474 140.086 3.29474C140.687 3.29474 141.185 3.48928 141.58 3.87973C142.072 4.36607 142.318 5.08942 142.318 6.04567V9.88573V9.88573Z" fill="white"/>
<path d="M150.25 6.35157C150.25 6.60913 150.23 6.82559 150.196 7.00232H145.84C145.859 7.64073 146.067 8.12707 146.47 8.46409C146.839 8.76549 147.314 8.91618 147.896 8.91618C148.541 8.91618 149.129 8.8148 149.658 8.61068L149.885 9.60802C149.266 9.8738 148.537 10.0067 147.693 10.0067C146.681 10.0067 145.884 9.71214 145.308 9.12305C144.728 8.53396 144.441 7.74348 144.441 6.75161C144.441 5.77755 144.709 4.96652 145.248 4.31989C145.811 3.62942 146.572 3.28418 147.532 3.28418C148.472 3.28418 149.185 3.62942 149.668 4.31989C150.057 4.86788 150.25 5.54602 150.25 6.35157ZM148.864 5.98031C148.875 5.55424 148.779 5.18709 148.582 4.87747C148.33 4.47881 147.946 4.27879 147.427 4.27879C146.953 4.27879 146.566 4.47333 146.271 4.86377C146.03 5.17476 145.887 5.54602 145.84 5.98031H148.864Z" fill="white"/>
</svg>
