<svg width="228" height="152" viewBox="0 0 228 152" fill="none" xmlns="http://www.w3.org/2000/svg">
<path d="M34.2745 76.0003L30.2898 79.9816L26.3086 76.0003L30.2898 72.0191L34.2745 76.0003ZM43.9349 66.3331L50.7574 73.159L54.7386 69.1778L43.9349 58.374L33.1311 69.1778L37.1124 73.159L43.9349 66.3331ZM57.5834 72.0191L53.6021 76.0003L57.5834 79.9816L61.5612 76.0003L57.5834 72.0191ZM43.9349 85.6676L37.1124 78.845L33.1311 82.8228L43.9349 93.6266L54.7386 82.8228L50.7574 78.845L43.9349 85.6676ZM43.9349 79.9816L47.9161 76.0003L43.9349 72.0191L39.9536 76.0003L43.9349 79.9816ZM85.9514 80.3638V80.3087C85.9514 77.712 84.5738 76.4136 82.3318 75.5595C83.7094 74.7846 84.8735 73.5689 84.8735 71.3888V71.3337C84.8735 68.2961 82.442 66.3331 78.4918 66.3331H69.5237V85.6676H78.7191C83.0826 85.6676 85.9583 83.9008 85.9583 80.3638H85.9514ZM80.6477 72.0983C80.6477 73.5344 79.4595 74.144 77.5826 74.144H73.6668V70.0629H77.865C79.6593 70.0629 80.6546 70.7792 80.6546 72.0501L80.6477 72.0983ZM81.7257 79.8335C81.7257 81.2696 80.5926 81.9308 78.7122 81.9308H73.6668V77.6844H78.5813C80.7648 77.6844 81.7326 78.4869 81.7326 79.7852L81.7257 79.8335ZM94.8886 85.6676V66.3331H90.6215V85.6676H94.8886ZM117.753 85.6676V66.3331H113.541V78.2389L104.483 66.3331H100.561V85.6676H104.759V73.376L114.12 85.6676H117.753ZM141.313 85.6676L133.013 66.1953H129.091L120.808 85.6676H125.144L126.918 81.3316H135.094L136.86 85.6676H141.313ZM133.582 77.5742H128.429L130.999 71.3062L133.582 77.5742ZM161.588 85.6676V66.3331H157.376V78.2389L148.315 66.3331H144.396V85.6676H148.591V73.376L157.955 85.6676H161.588ZM183.543 82.5473L180.84 79.8128C179.321 81.1904 177.968 82.0755 175.757 82.0755C172.444 82.0755 170.15 79.3203 170.15 76.0003V75.9452C170.15 72.6321 172.499 69.9251 175.757 69.9251C177.689 69.9251 179.201 70.7517 180.702 72.1052L183.399 68.9849C181.605 67.2182 179.424 66.0024 175.777 66.0024C169.84 66.0024 165.697 70.5037 165.697 75.99V76.0451C165.697 81.5968 169.923 85.9879 175.612 85.9879C179.335 85.9982 181.543 84.6723 183.53 82.5473H183.543ZM201.693 85.6676V81.8792H191.182V77.8118H200.298V74.0235H191.182V70.118H201.542V66.3296H186.956V85.6641L201.693 85.6676Z" fill="url(#paint0_linear_2274_844)"/>
<defs>
<linearGradient id="paint0_linear_2274_844" x1="201.693" y1="75.6322" x2="26.3086" y2="75.6322" gradientUnits="userSpaceOnUse">
<stop stop-color="white" stop-opacity="0.4"/>
<stop offset="0.515625" stop-color="white" stop-opacity="0.8"/>
<stop offset="1" stop-color="white" stop-opacity="0.4"/>
</linearGradient>
</defs>
</svg>
