<svg width="228" height="152" viewBox="0 0 228 152" fill="none" xmlns="http://www.w3.org/2000/svg">
<path d="M62.3778 80.4298C59.9322 90.2391 49.997 96.209 40.1866 93.7628C30.3801 91.3172 24.4103 81.3814 26.857 71.5726C29.3015 61.7622 39.2367 55.7918 49.0443 58.2374C58.8542 60.683 64.8234 70.6199 62.3778 80.4298V80.4298Z" fill="url(#paint0_linear_2274_835)"/>
<path d="M52.6905 73.3911C53.055 70.9547 51.1999 69.6449 48.6633 68.7711L49.4861 65.4707L47.4771 64.97L46.676 68.1835C46.1479 68.0519 45.6054 67.9277 45.0664 67.8047L45.8732 64.57L43.8654 64.0693L43.0419 67.3687C42.6048 67.2691 42.1756 67.1707 41.7591 67.0671L41.7614 67.0568L38.9907 66.365L38.4563 68.5108C38.4563 68.5108 39.9469 68.8524 39.9154 68.8736C40.7291 69.0767 40.8762 69.6152 40.8515 70.042L39.9143 73.802C39.9703 73.8163 40.043 73.8369 40.1231 73.8689C40.0562 73.8523 39.9847 73.834 39.9108 73.8163L38.5971 79.0834C38.4975 79.3306 38.2451 79.7014 37.6764 79.5607C37.6964 79.5898 36.2161 79.1962 36.2161 79.1962L35.2188 81.4958L37.8332 82.1476C38.3195 82.2695 38.7962 82.3971 39.2654 82.5172L38.434 85.8555L40.4407 86.3562L41.2641 83.0534C41.8123 83.2022 42.3444 83.3395 42.8651 83.4688L42.0446 86.7561L44.0536 87.2568L44.885 83.9249C48.3108 84.5732 50.8869 84.3117 51.9712 81.2132C52.845 78.7184 51.9277 77.2793 50.1253 76.3409C51.4379 76.0382 52.4267 75.1747 52.6905 73.3911V73.3911ZM48.1002 79.8279C47.4794 82.3227 43.2788 80.974 41.917 80.6358L43.0202 76.2133C44.3821 76.5531 48.7491 77.2261 48.1002 79.8279ZM48.7217 73.3551C48.1552 75.6245 44.659 74.4715 43.5249 74.1888L44.5251 70.1776C45.6592 70.4603 49.3116 70.9879 48.7217 73.3551V73.3551Z" fill="white"/>
<path d="M79.9646 68.7677C81.4495 68.7677 82.7324 69.0337 83.8104 69.5562C84.8936 70.0837 85.7874 70.7944 86.5044 71.6882C87.2116 72.5866 87.738 73.6365 88.0779 74.8399C88.4155 76.0467 88.5849 77.3439 88.5849 78.7326C88.5849 80.8658 88.1941 82.8811 87.405 84.7808C86.616 86.6834 85.5454 88.3336 84.1835 89.7413C82.8228 91.1472 81.2161 92.2555 79.3633 93.0744C77.5133 93.8938 75.502 94.3035 73.3425 94.3035C73.0633 94.3035 72.5723 94.2954 71.8788 94.2811C71.1853 94.2668 70.3882 94.1953 69.4956 94.0746C68.5972 93.9493 67.6473 93.7639 66.6443 93.5155C65.6418 93.2718 64.6896 92.9302 63.793 92.4964L71.8107 58.8073L78.9919 57.6943L76.1211 69.6494C76.7357 69.3725 77.3548 69.1579 77.9728 69.0017C78.5913 68.8478 79.2551 68.7677 79.9646 68.7677V68.7677ZM73.941 88.6066C75.0225 88.6066 76.0416 88.3405 76.9989 87.8181C77.9591 87.2951 78.7876 86.589 79.4817 85.7095C80.1758 84.826 80.7251 83.831 81.1256 82.7192C81.5262 81.6074 81.7287 80.4475 81.7287 79.2407C81.7287 77.7581 81.481 76.6017 80.9872 75.7657C80.4934 74.9332 79.5795 74.5143 78.2526 74.5143C77.8177 74.5143 77.2575 74.5973 76.5629 74.7455C75.8659 74.9028 75.2422 75.2296 74.6832 75.7211L71.6265 88.4172C71.8107 88.4498 71.9738 88.4807 72.1128 88.5099C72.249 88.5414 72.3995 88.5637 72.5494 88.5791C72.7079 88.5969 72.8893 88.606 73.1085 88.606C73.3276 88.606 73.6017 88.6066 73.941 88.6066V88.6066ZM96.0322 93.6586H89.1731L94.9656 69.2844H101.872L96.0322 93.6586ZM99.3698 66.3146C98.4125 66.3146 97.5445 66.0297 96.7743 65.4586C95.9978 64.891 95.6133 64.0172 95.6133 62.8396C95.6133 62.1919 95.7449 61.5842 96.0058 61.0108C96.2708 60.4386 96.617 59.946 97.0507 59.5271C97.4838 59.1117 97.9857 58.7798 98.5556 58.5298C99.1289 58.2837 99.7389 58.1607 100.389 58.1607C101.346 58.1607 102.209 58.4456 102.982 59.0167C103.752 59.5906 104.14 60.4644 104.14 61.6357C104.14 62.2857 104.009 62.8957 103.745 63.4679C103.484 64.0401 103.138 64.5328 102.704 64.9516C102.274 65.3676 101.768 65.6983 101.199 65.9461C100.625 66.1962 100.018 66.3146 99.3698 66.3146V66.3146ZM107.883 63.2115L115.067 62.0986L113.302 69.2832H120.996L119.607 74.9355H111.96L109.922 83.4613C109.735 84.172 109.628 84.8357 109.599 85.4526C109.565 86.0723 109.643 86.6044 109.829 87.0525C110.013 87.5017 110.344 87.8478 110.825 88.0927C111.303 88.3417 111.988 88.467 112.886 88.467C113.626 88.467 114.347 88.3966 115.044 88.257C115.737 88.1196 116.439 87.9285 117.15 87.6785L117.662 92.9634C116.735 93.3032 115.731 93.5956 114.649 93.8417C113.566 94.0912 112.284 94.2113 110.802 94.2113C108.671 94.2113 107.019 93.8949 105.842 93.2649C104.667 92.6303 103.836 91.7634 103.339 90.6659C102.848 89.5725 102.629 88.3119 102.69 86.8917C102.754 85.468 102.968 83.9717 103.339 82.3959L107.883 63.2115ZM120.694 83.9254C120.694 81.8259 121.034 79.8461 121.713 77.9927C122.391 76.1377 123.368 74.5155 124.636 73.1233C125.898 71.738 127.437 70.6405 129.248 69.8348C131.051 69.0337 133.069 68.6298 135.293 68.6298C136.685 68.6298 137.928 68.7614 139.023 69.0251C140.121 69.2912 141.115 69.6351 142.014 70.0666L139.649 75.4453C139.031 75.1947 138.389 74.9738 137.726 74.7735C137.062 74.5692 136.252 74.4708 135.293 74.4708C133.004 74.4708 131.194 75.2599 129.847 76.8329C128.505 78.407 127.83 80.5259 127.83 83.1838C127.83 84.7591 128.17 86.0328 128.852 87.0073C129.53 87.9817 130.784 88.4664 132.604 88.4664C133.502 88.4664 134.369 88.3726 135.2 88.1894C136.036 88.0041 136.775 87.7706 137.426 87.4948L137.938 93.0086C137.07 93.345 136.113 93.6489 135.064 93.9149C134.012 94.1719 132.76 94.3052 131.309 94.3052C129.392 94.3052 127.77 94.0248 126.443 93.4726C125.116 92.9119 124.019 92.1674 123.155 91.2244C122.286 90.2791 121.662 89.1754 121.277 87.9085C120.891 86.6428 120.694 85.313 120.694 83.9254V83.9254ZM151.164 94.3052C149.527 94.3052 148.105 94.0557 146.899 93.5619C145.696 93.0681 144.7 92.3751 143.912 91.4768C143.123 90.583 142.532 89.5238 142.128 88.3033C141.723 87.0834 141.529 85.7324 141.529 84.2521C141.529 82.3953 141.827 80.5391 142.429 78.688C143.029 76.8329 143.919 75.1661 145.096 73.6846C146.265 72.2009 147.706 70.9878 149.403 70.042C151.099 69.1024 153.049 68.6298 155.239 68.6298C156.847 68.6298 158.261 68.8798 159.484 69.3736C160.701 69.8663 161.704 70.565 162.496 71.4587C163.28 72.3571 163.876 73.4117 164.276 74.6339C164.68 75.8516 164.879 77.206 164.879 78.6874C164.879 80.5385 164.585 82.3947 164.001 84.2515C163.417 86.0992 162.55 87.77 161.405 89.2549C160.263 90.7363 158.835 91.9488 157.12 92.8907C155.406 93.8325 153.42 94.3052 151.164 94.3052V94.3052ZM154.592 74.4714C153.575 74.4714 152.676 74.7667 151.907 75.3497C151.134 75.9397 150.486 76.6813 149.963 77.5756C149.434 78.474 149.042 79.4536 148.777 80.5185C148.514 81.5856 148.386 82.5944 148.386 83.5529C148.386 85.0995 148.635 86.304 149.125 87.1709C149.623 88.0332 150.516 88.467 151.814 88.467C152.834 88.467 153.729 88.174 154.503 87.5846C155.271 86.9993 155.92 86.2571 156.447 85.361C156.973 84.4672 157.368 83.4848 157.633 82.4182C157.892 81.3545 158.024 80.3399 158.024 79.3832C158.024 77.8405 157.776 76.6332 157.281 75.7674C156.787 74.9051 155.889 74.4714 154.592 74.4714V74.4714ZM172.353 93.6586H165.488L171.281 69.2844H178.19L172.353 93.6586ZM175.685 66.3146C174.729 66.3146 173.861 66.0297 173.092 65.4586C172.32 64.891 171.932 64.0172 171.932 62.8396C171.932 62.1919 172.065 61.5842 172.327 61.0108C172.588 60.4386 172.937 59.946 173.37 59.5271C173.801 59.1117 174.308 58.7798 174.876 58.5298C175.446 58.2837 176.056 58.1607 176.704 58.1607C177.663 58.1607 178.529 58.4456 179.301 59.0167C180.073 59.5906 180.462 60.4644 180.462 61.6357C180.462 62.2857 180.324 62.8957 180.065 63.4679C179.805 64.0401 179.457 64.5328 179.025 64.9516C178.59 65.3676 178.09 65.6983 177.52 65.9461C176.945 66.1962 176.337 66.3146 175.685 66.3146V66.3146ZM183.133 70.3927C183.654 70.2405 184.235 70.0574 184.868 69.8583C185.502 69.6591 186.211 69.4738 187.003 69.3067C187.786 69.1344 188.671 68.9948 189.643 68.8867C190.615 68.7762 191.723 68.7224 192.953 68.7224C196.571 68.7224 199.065 69.7759 200.441 71.8764C201.817 73.977 202.055 76.8518 201.162 80.4956L198.007 93.6563H191.103L194.161 80.7725C194.347 79.968 194.494 79.1904 194.602 78.4305C194.711 77.6775 194.705 77.0137 194.577 76.4392C194.455 75.8716 194.168 75.407 193.723 75.047C193.27 74.6928 192.586 74.5149 191.659 74.5149C190.764 74.5149 189.854 74.611 188.926 74.7964L184.43 93.6557H177.523L183.133 70.3927Z" fill="url(#paint1_linear_2274_835)"/>
<defs>
<linearGradient id="paint0_linear_2274_835" x1="62.9258" y1="75.6178" x2="26.3086" y2="75.6178" gradientUnits="userSpaceOnUse">
<stop stop-color="white" stop-opacity="0.4"/>
<stop offset="0.515625" stop-color="white" stop-opacity="0.8"/>
<stop offset="1" stop-color="white" stop-opacity="0.4"/>
</linearGradient>
<linearGradient id="paint1_linear_2274_835" x1="201.69" y1="75.6174" x2="63.793" y2="75.6174" gradientUnits="userSpaceOnUse">
<stop stop-color="white" stop-opacity="0.4"/>
<stop offset="0.515625" stop-color="white" stop-opacity="0.8"/>
<stop offset="1" stop-color="white" stop-opacity="0.4"/>
</linearGradient>
</defs>
</svg>
