<svg width="228" height="152" viewBox="0 0 228 152" fill="none" xmlns="http://www.w3.org/2000/svg">
<path d="M182.02 83.2578C182.963 84.2564 188.142 89.0421 196.27 83.4879C202.148 78.9103 202.002 68.986 201.437 65.9889C201.24 66.4251 194.413 81.3763 182.02 83.2578ZM201.436 65.9864C201.364 65.9567 193.802 64.9256 186.326 69.7407C181.684 72.7307 181.07 77.107 181.282 80.023C192.15 78.8067 201.19 66.3293 201.436 65.9864Z" fill="url(#paint0_linear_2274_839)"/>
<path d="M201.436 65.9864C201.364 65.9567 193.802 64.9256 186.326 69.7407C181.684 72.7307 181.07 77.1069 181.282 80.023C192.15 78.8067 201.19 66.3293 201.436 65.9864Z" fill="url(#paint1_linear_2274_839)"/>
<path d="M38.432 82.6744H29.9663V78.1656H38.432C40.5484 78.1656 41.6296 79.1778 41.6296 80.4891C41.6296 81.7544 40.5714 82.6745 38.4319 82.6745L38.432 82.6744ZM38.1559 75.7501H29.9663V71.9543H38.1559C40.3873 71.9543 41.2615 72.7365 41.2615 73.8177C41.2615 74.8068 40.2493 75.7501 38.1559 75.7501V75.7501ZM40.3184 76.9003C43.884 76.7853 45.1723 75.0139 45.1723 73.0816C45.1723 70.9652 43.4929 69.2168 39.3981 69.2168H26.3086V85.366H39.7893C43.1479 85.366 45.6554 83.9627 45.6554 80.9491C45.6554 78.8096 44.2521 76.9923 40.3184 76.9003ZM49.9755 69.2168V85.366H53.6332V69.2168H49.9755ZM68.4664 72.2764H76.518V69.2168H56.7571V72.2764H64.8086V85.366H68.4663L68.4664 72.2764ZM79.6419 69.2168V85.366H83.2996V79.0627H91.8802V76.4172H83.2996V72.0003H97.2403V69.2169L79.6419 69.2168ZM100.203 69.2168V85.366H103.861V69.2168H100.203ZM112.437 73.1506L124.56 85.366H128.701V69.2168H125.089V80.8571L113.449 69.2168H108.802V85.366H112.437V73.1506ZM133.642 69.2168V85.366H151.54V82.6515H137.3V78.2116H145.835V75.7041H137.3V72.0003H151.54V69.2169L133.642 69.2168ZM176.035 69.2168H171.204L165.039 74.8989L158.92 69.2168H154.02L162.623 77.1764L153.698 85.366H158.528L164.993 79.4078L171.434 85.366H176.357L167.408 77.1533L176.035 69.2168Z" fill="url(#paint2_linear_2274_839)"/>
<defs>
<linearGradient id="paint0_linear_2274_839" x1="201.695" y1="75.7885" x2="181.246" y2="75.7885" gradientUnits="userSpaceOnUse">
<stop stop-color="white" stop-opacity="0.4"/>
<stop offset="0.515625" stop-color="white" stop-opacity="0.8"/>
<stop offset="1" stop-color="white" stop-opacity="0.4"/>
</linearGradient>
<linearGradient id="paint1_linear_2274_839" x1="201.436" y1="72.8007" x2="181.246" y2="72.8007" gradientUnits="userSpaceOnUse">
<stop stop-color="white" stop-opacity="0.4"/>
<stop offset="0.515625" stop-color="white" stop-opacity="0.8"/>
<stop offset="1" stop-color="white" stop-opacity="0.4"/>
</linearGradient>
<linearGradient id="paint2_linear_2274_839" x1="176.357" y1="77.1227" x2="26.3086" y2="77.1227" gradientUnits="userSpaceOnUse">
<stop stop-color="white" stop-opacity="0.4"/>
<stop offset="0.515625" stop-color="white" stop-opacity="0.8"/>
<stop offset="1" stop-color="white" stop-opacity="0.4"/>
</linearGradient>
</defs>
</svg>
