<svg width="228" height="152" viewBox="0 0 228 152" fill="none" xmlns="http://www.w3.org/2000/svg">
<path fill-rule="evenodd" clip-rule="evenodd" d="M39.9594 90.314C41.3186 90.314 42.5901 90.0655 43.7886 89.5832C43.7886 89.6271 46.2294 93.4125 46.2732 93.4271C44.113 94.5844 41.6937 95.1729 39.2432 95.1371C31.7455 95.1517 26.3086 90.1971 26.3086 82.3194C26.3086 74.3832 32.0086 69.4578 39.2432 69.4578C41.8009 69.4578 43.8324 70.0132 45.864 71.0948L43.5255 75.0409C42.2978 74.5586 41.0409 74.3394 39.7255 74.3394C35.2971 74.3394 31.8624 77.1601 31.8624 82.3194C31.8624 87.2009 35.1801 90.314 39.9594 90.314ZM58.8571 69.4578C66.2232 69.4578 71.5578 74.6755 71.5578 82.3194C71.5578 89.9194 66.2232 95.1371 58.8424 95.1371C51.5348 95.1371 46.2001 89.9194 46.2001 82.3194C46.2001 74.6755 51.5348 69.4578 58.8571 69.4578V69.4578ZM58.8571 74.164C54.7501 74.164 51.754 77.3355 51.754 82.3194C51.754 87.2594 54.7501 90.4309 58.8571 90.4309C63.0663 90.4309 66.0186 87.2594 66.0186 82.3194C66.0186 77.3355 63.0663 74.164 58.8571 74.164V74.164ZM75.0509 94.5817V70.0132H80.5463V94.5671H75.0509V94.5817ZM74.3201 62.4571C74.3771 61.583 74.7645 60.7633 75.4038 60.1644C76.043 59.5655 76.8861 59.2322 77.7621 59.2322C78.638 59.2322 79.4811 59.5655 80.1204 60.1644C80.7596 60.7633 81.147 61.583 81.204 62.4571C81.2042 63.3748 80.8447 64.2561 80.2026 64.9119C79.5605 65.5677 78.6869 65.9456 77.7694 65.9648C76.8518 65.9456 75.9783 65.5677 75.3362 64.9119C74.6941 64.2561 74.3346 63.3748 74.3348 62.4571H74.3201ZM85.3401 71.5625C88.9398 70.2094 92.7486 69.4971 96.594 69.4578C102.879 69.4578 106.854 71.8401 106.854 78.7678V94.5817H101.432V79.2794C101.432 75.7278 99.2248 74.4563 96.1701 74.4563C94.2263 74.4563 92.2825 74.7194 90.8355 75.1725V94.5671H85.3548V71.5625H85.3401ZM111.458 56.8594H116.953V70.6709C118.122 70.0571 120.388 69.4578 122.551 69.4578C129.654 69.4578 134.974 73.9886 134.974 81.8809C134.974 89.8171 129.712 95.1371 120.622 95.1371C117.07 95.1371 113.957 94.4063 111.458 93.5294V56.8594V56.8594ZM116.953 89.9194C118.006 90.2555 119.394 90.4309 120.782 90.4309C125.825 90.4309 129.435 87.654 129.435 81.9978C129.435 77.2186 126.044 74.3978 121.893 74.3978C119.73 74.3978 118.064 74.9532 116.953 75.5671V89.9194ZM150.861 78.1101C150.861 75.4501 148.844 74.2225 146.126 74.2225C143.305 74.2225 141.083 75.0555 139.037 76.2248V71.4455C141.485 70.1153 144.231 69.4312 147.017 69.4578C152.396 69.4578 156.225 71.6794 156.225 77.8325V94.0848C153.886 94.6986 150.569 95.0786 147.792 95.0786C141.419 95.0786 136.757 93.1494 136.757 87.5955C136.757 82.5971 141.025 80.1563 148.128 80.1563H150.846V78.1101H150.861ZM150.861 83.8101H148.522C144.693 83.8101 142.194 84.9355 142.194 87.4348C142.194 89.9778 144.532 90.9717 147.85 90.9717C148.683 90.9717 149.852 90.8694 150.846 90.7086V83.8248L150.861 83.8101ZM160.215 87.9317C162.357 89.6286 164.982 90.601 167.712 90.7086C170.153 90.7086 171.761 89.8755 171.761 87.9317C171.761 85.9294 170.314 85.2132 167.157 84.3801C162.042 83.2109 159.893 81.1648 159.893 76.8825C159.893 71.8986 163.664 69.4578 168.662 69.4578C171.439 69.4578 173.646 70.0571 175.707 71.3432V76.3855C173.748 74.8223 171.329 73.949 168.823 73.9009C166.441 73.9009 165.169 75.0701 165.169 76.6778C165.169 78.2855 166.207 79.104 169.042 79.8932C174.655 81.1063 177.081 83.2109 177.081 87.6394C177.081 92.8132 173.149 95.1371 167.829 95.1371C165.161 95.1903 162.53 94.5023 160.229 93.1494V87.9317H160.215ZM184.608 83.5471V83.6494C184.944 88.034 188.7 90.4309 192.544 90.4309C195.92 90.4309 198.361 89.6417 200.802 88.034V92.8571C198.58 94.4209 195.306 95.1371 192.149 95.1371C184.491 95.1371 179.288 90.2555 179.288 82.4948C179.288 74.6755 184.389 69.4578 191.156 69.4578C198.317 69.4578 201.693 74.0617 201.693 80.7701V83.5471H184.593H184.608ZM196.534 79.9955C196.417 76.1663 194.532 74.0617 190.98 74.0617C187.823 74.0617 185.499 76.2832 184.769 79.9955H196.534Z" fill="url(#paint0_linear_2274_833)"/>
<defs>
<linearGradient id="paint0_linear_2274_833" x1="201.693" y1="75.5999" x2="26.3086" y2="75.5999" gradientUnits="userSpaceOnUse">
<stop stop-color="white" stop-opacity="0.4"/>
<stop offset="0.515625" stop-color="white" stop-opacity="0.8"/>
<stop offset="1" stop-color="white" stop-opacity="0.4"/>
</linearGradient>
</defs>
</svg>
