<svg width="20" height="20" viewBox="0 0 20 20" fill="none" xmlns="http://www.w3.org/2000/svg">
<path fill-rule="evenodd" clip-rule="evenodd" d="M7.91118 9.14034L10.0028 7.0496L12.0953 9.14204L13.3117 7.92485L10.0028 4.61523L6.69396 7.924L7.91118 9.14034ZM4.61719 10L5.83397 8.78329L7.05074 10L5.83397 11.2168L4.61719 10ZM10.0028 12.9509L7.91118 10.8594L6.69226 12.0748L6.69396 12.0765L10.0028 15.3845L13.3117 12.0748L13.3126 12.074L12.0953 10.8585L10.0028 12.9509ZM12.9529 10.0003L14.1696 8.78359L15.3864 10.0003L14.1696 11.2171L12.9529 10.0003ZM10.0028 8.76438L11.2371 9.99942H11.2379L11.2371 10.0003L10.0028 11.2353L8.7686 10.002L8.7669 9.99942L8.7686 9.99772L8.98465 9.78168L9.09013 9.67705L10.0028 8.76438Z" fill="#F3BA2F"/>
</svg>
