<svg width="20" height="20" viewBox="0 0 20 20" fill="none" xmlns="http://www.w3.org/2000/svg">
<path fill-rule="evenodd" clip-rule="evenodd" d="M6.77604 3.876C7.79225 3.33702 8.94599 3.06351 10.0942 3.08085C11.4785 3.09696 12.8588 3.53992 13.9856 4.34838C13.7909 4.88736 13.6095 5.43129 13.4114 5.96903C12.7939 6.19856 12.1788 6.43429 11.5613 6.66351C10.7707 6.1648 9.85124 5.87549 8.91848 5.82623C8.06515 5.77853 7.20193 5.93589 6.41721 6.27507C5.36762 6.72763 4.46762 7.51627 3.87514 8.49479C3.48418 9.13351 3.23569 9.8537 3.12102 10.5928C2.97484 8.98173 3.42051 7.32267 4.3576 6.00403C4.98253 5.11782 5.81762 4.38091 6.77604 3.876Z" fill="#29ABE2"/>
<path fill-rule="evenodd" clip-rule="evenodd" d="M16.9061 9.85449C16.9311 11.0449 16.6477 12.243 16.0815 13.2913C15.4795 14.4107 14.5615 15.3567 13.4634 15.9939C12.3641 16.6338 11.0839 16.9554 9.81398 16.9191C8.31655 16.8826 6.83551 16.3417 5.67188 15.3951C5.89873 14.7716 6.13733 14.1524 6.3682 13.5307C6.95852 13.3216 7.54976 13.115 8.13946 12.9041C8.8874 13.4777 9.78152 13.8578 10.7143 13.9907C11.7277 14.1437 12.7788 13.9956 13.7206 13.5942C14.1712 13.4164 14.5853 13.1525 14.967 12.8557C15.919 12.1043 16.6103 11.0319 16.9061 9.85449Z" fill="#29ABE2"/>
<path fill-rule="evenodd" clip-rule="evenodd" d="M14.8564 5.07617C16.1273 6.32047 16.8746 8.07493 16.9043 9.85449C16.6085 11.0319 15.9171 12.1043 14.9652 12.8557C14.5835 13.1525 14.1694 13.4164 13.7187 13.5942C14.0083 12.9044 14.1737 12.1591 14.1718 11.4098C14.1879 9.94649 13.5945 8.48164 12.5508 7.45666C12.5567 7.45077 12.5687 7.439 12.5749 7.43312C13.1318 7.22217 13.6897 7.01432 14.2466 6.80338C14.4549 6.22971 14.6527 5.6517 14.8564 5.07617Z" fill="#3F4F59"/>
<path fill-rule="evenodd" clip-rule="evenodd" d="M3.87521 8.49414C4.46769 7.51561 5.36769 6.72697 6.41728 6.27441C6.07762 7.05779 5.92247 7.92139 5.96759 8.77385C6.02786 9.97942 6.49208 11.1627 7.2771 12.0793C6.69513 12.2825 6.11502 12.4897 5.53335 12.6935C5.29568 13.3217 5.06172 13.9514 4.82559 14.5802C3.84338 13.4856 3.23947 12.0585 3.12109 10.5921C3.23576 9.85304 3.48425 9.13285 3.87521 8.49414Z" fill="#3F4F59"/>
</svg>
