<svg width="20" height="20" viewBox="0 0 20 20" fill="none" xmlns="http://www.w3.org/2000/svg">
<path fill-rule="evenodd" clip-rule="evenodd" d="M10.1657 5.98926H7.43533V9.61563H5.76953V10.8244H7.43533V14.4508H10.1657C11.6069 14.4508 11.9175 14.2999 12.5385 13.998C12.5868 13.9746 12.6368 13.9502 12.6895 13.925C13.4201 13.5744 13.9879 13.0808 14.3928 12.4442C14.7978 11.8076 15.0003 11.0662 15.0003 10.22C15.0003 9.37387 14.7978 8.63248 14.3928 7.99585C13.9879 7.35922 13.4201 6.86563 12.6895 6.51508C11.9589 6.16453 11.1176 5.98926 10.1657 5.98926ZM9.46434 10.8244V12.8431H10.0655C10.9423 12.8431 11.6416 12.6074 12.1634 12.136C12.6853 11.6645 12.9462 11.0259 12.9462 10.22C12.9462 9.41416 12.6853 8.77552 12.1634 8.30409C11.6416 7.83266 10.9423 7.59695 10.0655 7.59695H9.46434V9.61563H11.4057V10.8244H9.46434Z" fill="#E42DDD"/>
</svg>
