<svg width="20" height="20" viewBox="0 0 20 20" fill="none" xmlns="http://www.w3.org/2000/svg">
<path fill-rule="evenodd" clip-rule="evenodd" d="M5.65625 6.22695C6.62647 6.05464 7.70472 6.25495 8.45426 6.98007C9.00565 7.5013 9.32243 8.24869 9.49275 9.00613C9.83339 8.98171 10.1674 9.02838 10.5034 9.06643C10.6969 8.12592 11.1661 7.2012 11.9534 6.7051C12.6632 6.24848 13.5347 6.12859 14.3412 6.27936C14.1358 6.63474 13.9383 6.99587 13.7275 7.34766C13.2848 7.31033 12.8156 7.38715 12.4465 7.67074C11.9958 8.0053 11.7526 8.58469 11.6758 9.15689C11.8646 9.15689 12.0542 9.15689 12.243 9.15833C12.4114 9.49936 12.5843 9.83751 12.7606 10.1735C12.4001 10.1728 12.0402 10.1735 11.6797 10.1728C11.807 10.7019 12.0091 11.2447 12.4107 11.5994C12.7712 11.9246 13.2795 12.0215 13.7275 11.8844C13.9383 12.2355 14.1351 12.5952 14.3406 12.9491C13.5897 13.1135 12.7646 13.0862 12.09 12.6547C11.2642 12.1428 10.7725 11.188 10.5133 10.2252C10.17 10.2532 9.83339 10.1972 9.49341 10.1692C9.23627 11.1506 8.74586 12.1335 7.90354 12.6547C7.2322 13.0855 6.41109 13.1142 5.66288 12.9491C5.86832 12.5952 6.06515 12.2355 6.27589 11.8844C6.72257 12.0201 7.23021 11.9217 7.58875 11.5972C7.99102 11.244 8.19514 10.7019 8.32437 10.1728C7.96385 10.1735 7.60333 10.1728 7.24281 10.1735C7.41909 9.83751 7.59206 9.49864 7.76105 9.15761C7.9486 9.15761 8.13616 9.15761 8.32371 9.15618C8.24484 8.60192 8.0215 8.03977 7.59272 7.70089C7.22027 7.39289 6.73251 7.31033 6.27523 7.34766C6.06382 6.9772 5.86965 6.59597 5.65625 6.22695Z" fill="white"/>
</svg>
