<svg width="48" height="48" viewBox="0 0 48 48" fill="none" xmlns="http://www.w3.org/2000/svg">
<g clip-path="url(#clip0_2309_976)">
<path d="M29.332 13.3335H18.6654C15.7198 13.3335 13.332 15.7213 13.332 18.6668V29.3335C13.332 32.279 15.7198 34.6668 18.6654 34.6668H29.332C32.2775 34.6668 34.6654 32.279 34.6654 29.3335V18.6668C34.6654 15.7213 32.2775 13.3335 29.332 13.3335Z" stroke="white" stroke-opacity="0.7" stroke-width="2" stroke-linecap="round" stroke-linejoin="round"/>
<path d="M24 28C26.2091 28 28 26.2091 28 24C28 21.7909 26.2091 20 24 20C21.7909 20 20 21.7909 20 24C20 26.2091 21.7909 28 24 28Z" stroke="white" stroke-opacity="0.7" stroke-width="2" stroke-linecap="round" stroke-linejoin="round"/>
<path d="M30 18V18.001" stroke="white" stroke-opacity="0.7" stroke-width="2" stroke-linecap="round" stroke-linejoin="round"/>
</g>
<defs>
<clipPath id="clip0_2309_976">
<rect width="32" height="32" fill="white" transform="translate(8 8)"/>
</clipPath>
</defs>
</svg>
