<svg width="20" height="20" viewBox="0 0 20 20" fill="none" xmlns="http://www.w3.org/2000/svg">
<path fill-rule="evenodd" clip-rule="evenodd" d="M5.5518 14.0905L5.86287 14.4016C7.23565 14.9764 8.60843 15.558 9.98798 16.126V13.6239L7.41824 12.5622L6.35653 9.99244L7.41824 7.4227L5.5518 5.88086L3.84766 9.98568L5.5518 14.0905Z" fill="#598282"/>
<path fill-rule="evenodd" clip-rule="evenodd" d="M9.98696 3.8457C8.61418 4.41375 7.23464 4.99532 5.86185 5.57013L5.55078 5.88121L7.41722 7.41629L9.98696 6.35458V3.8457Z" fill="#FBBB31"/>
<path fill-rule="evenodd" clip-rule="evenodd" d="M9.98771 7.41602L8.1686 8.17341L7.41797 9.98575L8.1686 11.8049L9.98771 12.5555V7.41602Z" fill="#598282"/>
<path fill-rule="evenodd" clip-rule="evenodd" d="M9.98723 16.126C11.36 15.558 12.7328 14.9764 14.1056 14.4016L14.4166 14.0905L16.1208 9.98568L14.4166 5.88086L12.5502 7.41594L13.6119 9.98568L12.5502 12.5554L9.98047 13.6171V16.126H9.98723Z" fill="#326464"/>
<path fill-rule="evenodd" clip-rule="evenodd" d="M14.4245 5.88121L14.1134 5.56337C12.7338 4.99532 11.3611 4.42051 9.98828 3.8457V6.34782L12.558 7.40952L14.4245 5.88121Z" fill="#FAAA00"/>
<path fill-rule="evenodd" clip-rule="evenodd" d="M9.98828 12.5555L11.8074 11.8049L12.558 9.98575L11.8074 8.17341L9.98828 7.41602V12.5555Z" fill="#326464"/>
</svg>
