<svg width="20" height="20" viewBox="0 0 20 20" fill="none" xmlns="http://www.w3.org/2000/svg">
<path fill-rule="evenodd" clip-rule="evenodd" d="M4.73338 13.0755C5.22256 13.0755 5.61911 12.671 5.61911 12.172C5.61911 11.6731 5.22256 11.2686 4.73338 11.2686C4.24421 11.2686 3.84766 11.6731 3.84766 12.172C3.84766 12.671 4.24421 13.0755 4.73338 13.0755Z" fill="#4A90E2"/>
<path fill-rule="evenodd" clip-rule="evenodd" d="M10.0117 9.49935H10.0857C10.5282 9.53709 10.8789 9.91372 10.8974 10.3651C10.8974 10.8731 10.5097 11.2686 10.0117 11.2686C9.5137 11.2686 9.12597 10.8542 9.12597 10.3651C9.12597 9.72504 8.92322 9.48048 8.24025 9.48048C7.55728 9.48048 7.35452 9.72504 7.35452 10.384V10.4406C7.33602 10.8919 6.94829 11.2686 6.48729 11.2686C5.98929 11.2686 5.60156 10.8542 5.60156 10.3651C5.60156 9.89485 5.9523 9.51822 6.3948 9.48048H6.46879C7.24354 9.48048 7.35452 9.3114 7.35452 8.59587C7.35452 8.08788 7.76074 7.69238 8.24025 7.69238C8.73825 7.69238 9.12597 8.10675 9.12597 8.59587C9.12597 9.3114 9.23696 9.49935 10.0117 9.49935ZM14.4033 8.59587C14.4033 8.08788 14.8096 7.69238 15.2891 7.69238C15.7686 7.69238 16.1563 8.08788 16.1563 8.55813C16.1563 9.06611 15.7501 9.46161 15.2706 9.46161C14.5876 9.46161 14.3848 9.70617 14.3848 10.3651V10.4217C14.3663 10.8919 13.9786 11.2686 13.5176 11.2686H13.4991C12.8346 11.2874 12.6319 11.532 12.6319 12.1721V12.2475C12.6134 12.6989 12.2257 13.0755 11.7647 13.0755C11.2667 13.0755 10.8789 12.6612 10.8789 12.1721C10.8789 11.7207 11.2297 11.3441 11.6722 11.2874C11.6907 11.2686 11.7277 11.2686 11.7647 11.2686C12.5209 11.2686 12.6504 11.0995 12.6504 10.4028V10.384C12.6504 9.91372 13.0011 9.53709 13.4436 9.49935H13.5176C14.2924 9.49935 14.4033 9.3114 14.4033 8.59587Z" fill="#4A90E2"/>
</svg>
