<svg width="16" height="16" viewBox="0 0 16 16" fill="none" xmlns="http://www.w3.org/2000/svg">
<g clip-path="url(#clip0_2276_1209)">
<path d="M6.66797 3.33333C6.66797 2.97971 6.80844 2.64057 7.05849 2.39052C7.30854 2.14048 7.64768 2 8.0013 2C8.35492 2 8.69406 2.14048 8.94411 2.39052C9.19416 2.64057 9.33464 2.97971 9.33464 3.33333C10.1002 3.69535 10.7529 4.25888 11.2227 4.96353C11.6924 5.66818 11.9616 6.48738 12.0013 7.33333V9.33333C12.0515 9.7478 12.1983 10.1447 12.4298 10.4921C12.6614 10.8395 12.9713 11.1276 13.3346 11.3333H2.66797C3.03126 11.1276 3.34117 10.8395 3.57276 10.4921C3.80435 10.1447 3.95113 9.7478 4.0013 9.33333V7.33333C4.04101 6.48738 4.31017 5.66818 4.77994 4.96353C5.2497 4.25888 5.90236 3.69535 6.66797 3.33333" stroke="#E42DDD" stroke-width="1.25" stroke-linecap="round" stroke-linejoin="round"/>
<path d="M6 11.333V11.9997C6 12.5301 6.21071 13.0388 6.58579 13.4139C6.96086 13.789 7.46957 13.9997 8 13.9997C8.53043 13.9997 9.03914 13.789 9.41421 13.4139C9.78929 13.0388 10 12.5301 10 11.9997V11.333" stroke="#E42DDD" stroke-width="1.25" stroke-linecap="round" stroke-linejoin="round"/>
<path d="M13.9994 4.48467C13.5621 3.5335 12.9271 2.68646 12.1367 2" stroke="#E42DDD" stroke-width="1.25" stroke-linecap="round" stroke-linejoin="round"/>
<path d="M2 4.48467C2.4369 3.53363 3.07143 2.6866 3.86133 2" stroke="#E42DDD" stroke-width="1.25" stroke-linecap="round" stroke-linejoin="round"/>
</g>
<defs>
<clipPath id="clip0_2276_1209">
<rect width="16" height="16" fill="white"/>
</clipPath>
</defs>
</svg>
