<svg width="20" height="20" viewBox="0 0 20 20" fill="none" xmlns="http://www.w3.org/2000/svg">
<path fill-rule="evenodd" clip-rule="evenodd" d="M10.0058 4.88798C9.87129 4.88798 9.73798 4.8948 9.6053 4.90534V3.85996C9.73798 3.8519 9.86943 3.8457 10.0058 3.8457C10.2073 3.84632 10.4082 3.85624 10.6091 3.87608V4.92332C10.4089 4.89976 10.2073 4.88798 10.0058 4.88798ZM5.0437 8.76878C4.36476 11.5081 6.03513 14.279 8.77445 14.958V16.0263C6.35507 15.5346 4.46459 13.6435 3.97228 11.2241C3.2952 7.89453 5.44486 4.64679 8.77445 3.96971V5.03803C6.93542 5.49376 5.49942 6.92976 5.0437 8.76878Z" fill="#231F20"/>
<path fill-rule="evenodd" clip-rule="evenodd" d="M11.4395 5.09201V4.01562L11.4402 4.01873C13.6866 4.56002 15.4406 6.31347 15.9813 8.55986C16.7762 11.8628 14.7431 15.1849 11.4402 15.9804V14.9047C13.0727 14.4254 14.3605 13.1667 14.8776 11.5459H13.7535C13.4013 12.3973 12.7701 13.1035 11.9629 13.548C10.0017 14.6281 7.53705 13.9145 6.45694 11.9533C5.37684 9.99214 6.0905 7.5275 8.05167 6.4474C10.0128 5.3673 12.4775 6.08158 13.5576 8.04213H14.7282C14.1336 6.61233 12.9251 5.52851 11.4395 5.09201ZM9.77537 10.9489L10.9609 12.6322L10.9652 12.6329H12.4266L11.0675 10.7833C11.0675 10.7833 12.1241 10.5037 12.1241 9.09991C12.1241 7.69615 10.9286 7.36381 10.1765 7.36381H7.80242V8.32983H10.0581C10.6323 8.32983 10.8883 8.71549 10.8883 9.13773C10.8883 9.55998 10.685 9.91464 10.1189 9.91464H7.8018V10.9489H9.77537Z" fill="#D31F26"/>
<path fill-rule="evenodd" clip-rule="evenodd" d="M10.6093 15.0723C10.409 15.0958 10.2075 15.1076 10.006 15.1076C9.8696 15.1076 9.73816 15.1008 9.60547 15.0902V16.1344C9.73816 16.1431 9.87146 16.1486 10.006 16.1486C10.2112 16.1486 10.4109 16.1381 10.6093 16.1183V15.0723V15.0723Z" fill="#231F20"/>
</svg>
