<svg width="20" height="20" viewBox="0 0 20 20" fill="none" xmlns="http://www.w3.org/2000/svg">
<path fill-rule="evenodd" clip-rule="evenodd" d="M9.89484 8.32071C10.9021 7.84639 12.1 7.908 13.056 8.50879C13.2653 8.63999 13.4592 8.79428 13.634 8.96875C14.2031 9.53749 14.5199 10.2148 14.5858 10.9593C14.5863 10.9643 14.5877 10.9749 14.5896 10.9897C14.598 11.0556 14.6172 11.2046 14.6172 11.314V14.0048C14.6172 14.1557 14.5284 14.3251 14.4217 14.4316C14.315 14.5381 14.1602 14.6126 14.0097 14.6126C14.0097 14.6126 11.2316 14.6221 11.0367 14.6051C10.2924 14.5389 9.53778 14.2023 8.96899 13.6337C8.79467 13.4589 8.64061 13.2649 8.50975 13.0555C7.90891 12.0994 7.84749 10.9009 8.32204 9.89366L8.32041 9.89194C8.56801 9.34429 8.46916 8.70215 8.06831 8.25431C8.06237 8.24762 8.05672 8.2407 8.05107 8.23379C8.04187 8.22254 8.0327 8.21132 8.02238 8.20112L5.9845 6.16266C5.9844 6.16256 5.98345 6.16093 5.98278 6.16093C5.83084 6.02509 5.63174 5.97228 5.44135 5.99371L5.44068 5.99227C5.14126 6.0488 4.83996 5.90361 4.69764 5.63421C4.55531 5.36481 4.60519 5.03412 4.82065 4.81868C5.03611 4.60324 5.36683 4.55336 5.63626 4.69568C5.90568 4.83799 6.05088 5.13926 5.99435 5.43865L5.99598 5.43923C5.97352 5.63456 6.03571 5.83017 6.16685 5.97668C6.16719 5.97745 6.16781 5.97807 6.16858 5.9784L8.19689 8.00721C8.21673 8.02698 8.23714 8.04611 8.25813 8.06461C8.70483 8.46544 9.346 8.56496 9.89322 8.31841L9.89484 8.32071ZM13.3158 11.3398C13.3158 11.3141 13.3121 11.1454 13.234 10.7617H13.2344C13.168 10.4367 12.9699 10.1407 12.7191 9.88983C11.9407 9.11149 10.6689 9.11225 9.89044 9.8904C9.11203 10.6686 9.11184 11.9375 9.89044 12.7158C10.1318 12.9592 10.4323 13.1357 10.7624 13.228C11.048 13.3068 11.3587 13.3105 11.3843 13.3105H12.7083C12.859 13.3105 13.0355 13.2433 13.1422 13.1369C13.2488 13.0304 13.3158 12.8537 13.3158 12.7028V11.3398Z" fill="#00CBA0"/>
</svg>
