<svg width="16" height="16" viewBox="0 0 16 16" fill="none" xmlns="http://www.w3.org/2000/svg">
<g clip-path="url(#clip0_2276_1215)">
<path d="M11.332 7.33301H4.66536C3.92898 7.33301 3.33203 7.92996 3.33203 8.66634V12.6663C3.33203 13.4027 3.92898 13.9997 4.66536 13.9997H11.332C12.0684 13.9997 12.6654 13.4027 12.6654 12.6663V8.66634C12.6654 7.92996 12.0684 7.33301 11.332 7.33301Z" stroke="#E42DDD" stroke-width="1.25" stroke-linecap="round" stroke-linejoin="round"/>
<path d="M7.9987 11.3333C8.36689 11.3333 8.66536 11.0349 8.66536 10.6667C8.66536 10.2985 8.36689 10 7.9987 10C7.63051 10 7.33203 10.2985 7.33203 10.6667C7.33203 11.0349 7.63051 11.3333 7.9987 11.3333Z" stroke="#E42DDD" stroke-width="1.25" stroke-linecap="round" stroke-linejoin="round"/>
<path d="M5.33203 7.33333V4.66667C5.33203 3.95942 5.61298 3.28115 6.11308 2.78105C6.61318 2.28095 7.29145 2 7.9987 2C8.70594 2 9.38422 2.28095 9.88432 2.78105C10.3844 3.28115 10.6654 3.95942 10.6654 4.66667V7.33333" stroke="#E42DDD" stroke-width="1.25" stroke-linecap="round" stroke-linejoin="round"/>
</g>
<defs>
<clipPath id="clip0_2276_1215">
<rect width="16" height="16" fill="white"/>
</clipPath>
</defs>
</svg>
