<svg width="470" height="503" viewBox="0 0 470 503" fill="none" xmlns="http://www.w3.org/2000/svg">
<rect width="264" height="360" rx="20" fill="#353548"/>
<path opacity="0.4" d="M209.209 43.1289C207.533 43.1289 206.4 42.3071 206.303 40.9805L206.298 40.9053H207.265L207.275 40.9805C207.388 41.7593 208.14 42.2373 209.263 42.2373C210.38 42.2373 211.083 41.7324 211.083 40.9321V40.9268C211.083 40.2446 210.638 39.8633 209.574 39.627L208.715 39.439C207.2 39.106 206.491 38.4238 206.491 37.2905V37.2852C206.497 36.0122 207.625 35.1206 209.22 35.1206C210.734 35.1206 211.841 35.9961 211.927 37.2637L211.932 37.3442H210.965L210.955 37.269C210.836 36.4795 210.176 36.0122 209.193 36.0122C208.156 36.0176 207.479 36.5117 207.479 37.2583V37.2637C207.479 37.8975 207.947 38.2949 208.957 38.5151L209.816 38.7031C211.406 39.0522 212.072 39.6968 212.072 40.8784V40.8838C212.072 42.2588 210.981 43.1289 209.209 43.1289ZM215.359 43.1074C213.753 43.1074 212.786 41.9849 212.786 40.2285V40.2231C212.786 38.4937 213.774 37.3066 215.3 37.3066C216.825 37.3066 217.754 38.4399 217.754 40.1157V40.4595H213.731C213.753 41.6089 214.387 42.2803 215.38 42.2803C216.089 42.2803 216.589 41.9258 216.75 41.4478L216.766 41.3994H217.685L217.674 41.4531C217.491 42.377 216.578 43.1074 215.359 43.1074ZM215.294 38.1338C214.483 38.1338 213.85 38.687 213.748 39.729H216.804C216.712 38.644 216.111 38.1338 215.294 38.1338ZM220.999 43.1074C219.393 43.1074 218.426 41.9849 218.426 40.2285V40.2231C218.426 38.4937 219.414 37.3066 220.939 37.3066C222.465 37.3066 223.394 38.4399 223.394 40.1157V40.4595H219.371C219.393 41.6089 220.026 42.2803 221.02 42.2803C221.729 42.2803 222.229 41.9258 222.39 41.4478L222.406 41.3994H223.324L223.313 41.4531C223.131 42.377 222.218 43.1074 220.999 43.1074ZM220.934 38.1338C220.123 38.1338 219.489 38.687 219.387 39.729H222.443C222.352 38.644 221.75 38.1338 220.934 38.1338ZM228.228 43.1074C227.116 43.1074 226.37 42.436 226.37 41.4209V41.4102C226.37 40.4595 227.111 39.8633 228.395 39.7881L229.995 39.6968V39.2295C229.995 38.5474 229.549 38.1338 228.771 38.1338C228.051 38.1338 227.6 38.4775 227.492 38.9771L227.481 39.0254H226.579L226.584 38.9663C226.665 38.0479 227.465 37.3066 228.781 37.3066C230.103 37.3066 230.93 38.021 230.93 39.1382V43H229.995V42.0923H229.974C229.646 42.7046 228.975 43.1074 228.228 43.1074ZM227.326 41.4209C227.326 41.958 227.766 42.2964 228.438 42.2964C229.318 42.2964 229.995 41.6895 229.995 40.8784V40.4219L228.502 40.5132C227.755 40.5562 227.326 40.8892 227.326 41.4102V41.4209ZM232.165 43V35.2495H233.1V43H232.165ZM234.41 43V35.2495H235.345V43H234.41Z" fill="white"/>
<path d="M178.997 151.779V150.871C177.724 150.758 176.714 149.996 176.628 148.798L176.623 148.723H177.558L177.568 148.787C177.676 149.405 178.073 149.926 178.997 150.028V147.444L178.874 147.412C177.536 147.09 176.816 146.494 176.816 145.43V145.425C176.816 144.275 177.729 143.497 178.997 143.378V142.471H179.642V143.373C180.877 143.486 181.806 144.275 181.881 145.403L181.887 145.484H180.952L180.947 145.436C180.872 144.759 180.367 144.313 179.642 144.222V146.687L179.808 146.725C181.188 147.058 181.962 147.627 181.962 148.76V148.766C181.962 150.055 180.904 150.78 179.642 150.876V151.779H178.997ZM177.751 145.382C177.751 145.908 178.079 146.306 178.997 146.531V144.222C178.181 144.334 177.751 144.855 177.751 145.376V145.382ZM179.674 147.605L179.642 147.6V150.039C180.641 149.958 181.027 149.448 181.027 148.825V148.819C181.027 148.234 180.732 147.863 179.674 147.605ZM185.254 151V144.275H185.233L183.181 145.704V144.732L185.244 143.25H186.189V151H185.254ZM190.958 151.129C189.53 151.129 188.015 150.141 188.015 147.267V147.256C188.015 144.646 189.127 143.121 191.023 143.121C192.339 143.121 193.322 143.873 193.58 145L193.596 145.07H192.613L192.591 145.011C192.36 144.372 191.807 143.975 191.012 143.975C189.567 143.975 188.998 145.376 188.955 147.004C188.95 147.058 188.95 147.111 188.95 147.17H188.971C189.283 146.483 190.078 145.924 191.13 145.924C192.607 145.924 193.703 147.015 193.703 148.486V148.497C193.703 150.022 192.543 151.129 190.958 151.129ZM189.181 148.486C189.181 149.48 189.954 150.27 190.948 150.27C191.936 150.27 192.72 149.496 192.72 148.519V148.508C192.72 147.498 191.984 146.773 190.964 146.773C189.949 146.773 189.181 147.493 189.181 148.481V148.486ZM194.546 152.52L195.019 149.894H195.997L195.212 152.52H194.546ZM200.111 151.129C198.682 151.129 197.167 150.141 197.167 147.267V147.256C197.167 144.646 198.279 143.121 200.175 143.121C201.491 143.121 202.474 143.873 202.732 145L202.748 145.07H201.765L201.744 145.011C201.513 144.372 200.959 143.975 200.165 143.975C198.72 143.975 198.15 145.376 198.107 147.004C198.102 147.058 198.102 147.111 198.102 147.17H198.124C198.435 146.483 199.23 145.924 200.283 145.924C201.76 145.924 202.855 147.015 202.855 148.486V148.497C202.855 150.022 201.695 151.129 200.111 151.129ZM198.333 148.486C198.333 149.48 199.106 150.27 200.1 150.27C201.088 150.27 201.873 149.496 201.873 148.519V148.508C201.873 147.498 201.137 146.773 200.116 146.773C199.101 146.773 198.333 147.493 198.333 148.481V148.486ZM206.798 151.129C205.015 151.129 203.957 149.587 203.957 147.127V147.117C203.957 144.657 205.015 143.121 206.798 143.121C208.581 143.121 209.65 144.657 209.65 147.117V147.127C209.65 149.587 208.581 151.129 206.798 151.129ZM206.798 150.286C207.979 150.286 208.678 149.072 208.678 147.127V147.117C208.678 145.172 207.979 143.969 206.798 143.969C205.616 143.969 204.929 145.172 204.929 147.117V147.127C204.929 149.072 205.616 150.286 206.798 150.286ZM213.431 151.129C211.949 151.129 210.891 150.205 210.778 148.943L210.772 148.884H211.723L211.729 148.927C211.825 149.695 212.513 150.28 213.442 150.28C214.495 150.28 215.225 149.55 215.225 148.508V148.497C215.22 147.477 214.484 146.746 213.458 146.746C212.932 146.746 212.48 146.902 212.137 147.213C211.997 147.342 211.874 147.493 211.771 147.67H210.917L211.315 143.25H215.751V144.109H212.11L211.847 146.714H211.868C212.233 146.193 212.878 145.914 213.63 145.914C215.118 145.914 216.192 146.993 216.192 148.481V148.492C216.187 150.044 215.042 151.129 213.431 151.129ZM217.755 151.075C217.411 151.075 217.143 150.807 217.143 150.463C217.143 150.119 217.411 149.851 217.755 149.851C218.099 149.851 218.367 150.119 218.367 150.463C218.367 150.807 218.099 151.075 217.755 151.075ZM221.112 151V144.275H221.09L219.039 145.704V144.732L221.101 143.25H222.046V151H221.112ZM226.623 151.129C225.022 151.129 223.985 150.237 223.883 149.013L223.878 148.948H224.807L224.812 149.002C224.893 149.765 225.591 150.291 226.623 150.291C227.638 150.291 228.331 149.722 228.331 148.9V148.889C228.331 147.938 227.648 147.407 226.563 147.407H225.591V146.59H226.521C227.444 146.59 228.089 146.021 228.089 145.248V145.237C228.089 144.426 227.557 143.958 226.612 143.958C225.699 143.958 225.049 144.442 224.968 145.226L224.963 145.28H224.034L224.039 145.226C224.163 143.964 225.162 143.121 226.612 143.121C228.089 143.121 229.061 143.942 229.061 145.119V145.129C229.061 146.085 228.384 146.741 227.417 146.945V146.966C228.545 147.063 229.313 147.767 229.313 148.868V148.878C229.313 150.173 228.175 151.129 226.623 151.129Z" fill="white"/>
<path d="M84.334 144.171C82.0713 144.171 80.5811 143.104 80.4648 141.334L80.458 141.231H82.1465L82.1602 141.313C82.29 142.161 83.1582 142.688 84.3955 142.688C85.6396 142.688 86.4189 142.134 86.4189 141.286V141.279C86.4189 140.541 85.9062 140.145 84.6348 139.878L83.5752 139.659C81.6338 139.256 80.6768 138.354 80.6768 136.884V136.877C80.6836 135.141 82.208 133.965 84.334 133.965C86.4873 133.965 87.8955 135.1 87.998 136.788L88.0049 136.904H86.3164L86.3027 136.822C86.1865 135.961 85.4277 135.448 84.3203 135.448C83.165 135.455 82.4473 135.995 82.4473 136.781V136.788C82.4473 137.485 82.9873 137.896 84.1768 138.142L85.2432 138.36C87.2939 138.784 88.1895 139.618 88.1895 141.156V141.163C88.1895 143.002 86.7402 144.171 84.334 144.171ZM92.5439 144.144C90.4111 144.144 89.0371 142.722 89.0371 140.377V140.363C89.0371 138.039 90.4316 136.604 92.5371 136.604C94.6494 136.604 96.0508 138.025 96.0508 140.363V140.377C96.0508 142.729 94.6699 144.144 92.5439 144.144ZM92.5508 142.77C93.624 142.77 94.3145 141.895 94.3145 140.377V140.363C94.3145 138.853 93.6172 137.984 92.5371 137.984C91.4775 137.984 90.7734 138.859 90.7734 140.363V140.377C90.7734 141.901 91.4639 142.77 92.5508 142.77ZM97.1924 144V134.136H98.8945V144H97.1924ZM102.483 144.123C101.034 144.123 100.057 143.228 100.057 141.936V141.922C100.057 140.637 101.055 139.864 102.812 139.755L104.705 139.639V139.14C104.705 138.408 104.227 137.964 103.365 137.964C102.559 137.964 102.066 138.34 101.957 138.873L101.943 138.935H100.364L100.371 138.853C100.474 137.567 101.588 136.604 103.427 136.604C105.238 136.604 106.407 137.561 106.407 139.017V144H104.705V142.886H104.664C104.247 143.645 103.44 144.123 102.483 144.123ZM101.752 141.867C101.752 142.462 102.244 142.824 102.989 142.824C103.967 142.824 104.705 142.175 104.705 141.313V140.767L103.051 140.869C102.21 140.924 101.752 141.286 101.752 141.86V141.867ZM107.781 144V136.754H109.483V138.005H109.518C109.743 137.13 110.345 136.604 111.179 136.604C111.391 136.604 111.589 136.638 111.719 136.672V138.21C111.575 138.155 111.315 138.114 111.028 138.114C110.064 138.114 109.483 138.723 109.483 139.796V144H107.781ZM113.496 135.715C112.963 135.715 112.546 135.291 112.546 134.785C112.546 134.266 112.963 133.849 113.496 133.849C114.029 133.849 114.439 134.266 114.439 134.785C114.439 135.291 114.029 135.715 113.496 135.715ZM112.642 144V136.754H114.344V144H112.642ZM118.623 144.144C116.723 144.144 115.636 143.241 115.485 141.895L115.479 141.833H117.153L117.167 141.895C117.297 142.517 117.769 142.886 118.63 142.886C119.457 142.886 119.956 142.551 119.956 142.018V142.011C119.956 141.573 119.703 141.327 118.951 141.156L117.748 140.89C116.36 140.582 115.663 139.905 115.663 138.832V138.825C115.663 137.499 116.818 136.604 118.568 136.604C120.373 136.604 121.426 137.595 121.487 138.846L121.494 138.921H119.908L119.901 138.866C119.826 138.285 119.361 137.861 118.568 137.861C117.816 137.861 117.345 138.21 117.345 138.743V138.75C117.345 139.167 117.625 139.44 118.377 139.611L119.587 139.878C121.084 140.213 121.665 140.801 121.665 141.854V141.86C121.665 143.228 120.4 144.144 118.623 144.144Z" fill="white"/>
<path d="M125.121 144L128.004 139.752V139.729L125.156 135.545H126.428L128.689 138.949H128.725L131.01 135.545H132.211L129.287 139.781V139.805L132.146 144H130.881L128.631 140.625H128.596L126.316 144H125.121ZM133.295 144V135.545H134.35V143.051H138.428V144H133.295ZM139.588 144V135.545H142.758C144.387 135.545 145.453 136.541 145.453 138.064V138.076C145.453 139.248 144.809 140.156 143.754 140.49L145.711 144H144.475L142.664 140.654H140.643V144H139.588ZM140.643 139.723H142.664C143.748 139.723 144.363 139.137 144.363 138.1V138.088C144.363 137.08 143.701 136.482 142.617 136.482H140.643V139.723Z" fill="white" fill-opacity="0.5"/>
<path d="M80.5469 159.539V158.748H82.627V156.727H83.418V158.748H85.5029V159.539H83.418V161.561H82.627V159.539H80.5469ZM87.0215 162L90.21 155.755V155.735H86.416V154.954H91.0791V155.77L87.9443 162H87.0215ZM91.709 162.068C91.3965 162.068 91.1523 161.824 91.1523 161.512C91.1523 161.199 91.3965 160.955 91.709 160.955C92.0215 160.955 92.2656 161.199 92.2656 161.512C92.2656 161.824 92.0215 162.068 91.709 162.068ZM93.3545 162V161.395L95.835 158.807C96.7871 157.815 97.0068 157.435 97.0068 156.849V156.839C97.002 156.121 96.46 155.604 95.6934 155.604C94.8145 155.604 94.1602 156.209 94.1602 156.966V156.99H93.3105V156.961C93.3105 155.74 94.3652 154.837 95.6787 154.837C96.9531 154.837 97.8857 155.691 97.8857 156.795V156.805C97.8857 157.576 97.5293 158.157 96.2354 159.48L94.5605 161.199V161.219H98.0029V162H93.3545ZM102.124 162V160.535H98.584V159.739L101.675 154.954H102.974V159.764H103.97V160.535H102.974V162H102.124ZM99.4531 159.764H102.124V155.706H102.095L99.4531 159.744V159.764ZM106.118 158.431C105.229 158.431 104.692 157.752 104.692 156.663V156.658C104.692 155.574 105.229 154.896 106.118 154.896C107.007 154.896 107.544 155.574 107.544 156.658V156.663C107.544 157.752 107.007 158.431 106.118 158.431ZM106.436 162H105.635L110.156 154.954H110.947L106.436 162ZM106.118 157.845C106.592 157.845 106.865 157.405 106.865 156.663V156.658C106.865 155.916 106.592 155.481 106.118 155.481C105.645 155.481 105.371 155.916 105.371 156.658V156.663C105.371 157.405 105.645 157.845 106.118 157.845ZM110.459 162.059C109.57 162.059 109.033 161.38 109.033 160.291V160.286C109.033 159.202 109.57 158.523 110.459 158.523C111.348 158.523 111.885 159.202 111.885 160.286V160.291C111.885 161.38 111.348 162.059 110.459 162.059ZM110.459 161.473C110.933 161.473 111.206 161.033 111.206 160.291V160.286C111.206 159.544 110.933 159.109 110.459 159.109C109.985 159.109 109.712 159.544 109.712 160.286V160.291C109.712 161.033 109.985 161.473 110.459 161.473Z" fill="#B0FA03"/>
<rect x="28" y="128" width="32" height="32" rx="12" fill="#B7CBFB" fill-opacity="0.1"/>
<path fill-rule="evenodd" clip-rule="evenodd" d="M40.8984 146.987C41.5455 146.649 42.3859 147.255 42.3209 147.972C42.3279 148.793 41.2202 149.286 40.6365 148.699C40.0703 148.247 40.2233 147.241 40.8984 146.987Z" fill="#1E1E1E"/>
<path fill-rule="evenodd" clip-rule="evenodd" d="M38.1123 138.154C40.1431 136.415 42.9528 135.644 45.5778 136.125C48.2802 136.584 50.7189 138.349 52.0376 140.768C53.3053 143.042 53.5356 145.865 52.6583 148.32C51.4732 151.806 48.0657 154.349 44.4121 154.488C46.4095 153.525 47.9286 151.608 48.3523 149.412C48.7321 147.65 48.391 145.77 47.4925 144.219C47.9251 143.492 48.769 142.932 49.6341 143.154C50.2653 143.334 50.6099 144.265 49.9699 144.65C49.8169 144.318 49.5655 143.786 49.1119 144.01C48.5246 144.251 48.7743 145.105 49.1857 145.408C49.882 145.973 50.995 145.529 51.2956 144.729C51.686 143.737 51.0635 142.54 50.1 142.168C49.4583 141.888 48.7409 142.042 48.1009 142.239C48.8921 141.1 49.6517 139.939 50.4077 138.776C49.2666 139.544 48.1238 140.309 46.9914 141.091C47.1778 140.431 47.3413 139.703 47.0319 139.053C46.624 138.03 45.2701 137.408 44.2908 138.002C43.6086 138.413 43.3009 139.485 43.9057 140.095C44.2416 140.495 45.1242 140.648 45.2561 139.992C45.3686 139.568 44.8956 139.38 44.602 139.24C44.9712 138.505 45.9717 138.991 46.1 139.65C46.26 140.495 45.7097 141.286 45.0293 141.725C43.0213 140.525 40.4402 140.368 38.3198 141.358C36.7884 142.048 35.584 143.324 34.8086 144.805C34.9721 142.259 36.1484 139.783 38.1123 138.154Z" fill="#FFC53B"/>
<path fill-rule="evenodd" clip-rule="evenodd" d="M46.6006 146.897C46.133 144.138 43.2916 142.109 40.5523 142.575C38.9083 142.801 37.4033 143.849 36.6086 145.318C35.7066 146.936 35.7206 149.024 36.642 150.63C37.8569 152.845 40.7017 153.946 43.0683 153.072C45.5545 152.269 47.1615 149.471 46.6006 146.897ZM40.6349 148.7C40.0688 148.248 40.2217 147.241 40.8969 146.988C41.5439 146.649 42.3844 147.255 42.3193 147.973C42.3264 148.794 41.2187 149.286 40.6349 148.7Z" fill="#FFC53B"/>
<path d="M178.997 259.779V258.871C177.724 258.758 176.714 257.996 176.628 256.798L176.623 256.723H177.558L177.568 256.787C177.676 257.405 178.073 257.926 178.997 258.028V255.444L178.874 255.412C177.536 255.09 176.816 254.494 176.816 253.43V253.425C176.816 252.275 177.729 251.497 178.997 251.378V250.471H179.642V251.373C180.877 251.486 181.806 252.275 181.881 253.403L181.887 253.484H180.952L180.947 253.436C180.872 252.759 180.367 252.313 179.642 252.222V254.687L179.808 254.725C181.188 255.058 181.962 255.627 181.962 256.76V256.766C181.962 258.055 180.904 258.78 179.642 258.876V259.779H178.997ZM177.751 253.382C177.751 253.908 178.079 254.306 178.997 254.531V252.222C178.181 252.334 177.751 252.855 177.751 253.376V253.382ZM179.674 255.605L179.642 255.6V258.039C180.641 257.958 181.027 257.448 181.027 256.825V256.819C181.027 256.234 180.732 255.863 179.674 255.605ZM185.254 259V252.275H185.233L183.181 253.704V252.732L185.244 251.25H186.189V259H185.254ZM190.958 259.129C189.53 259.129 188.015 258.141 188.015 255.267V255.256C188.015 252.646 189.127 251.121 191.023 251.121C192.339 251.121 193.322 251.873 193.58 253L193.596 253.07H192.613L192.591 253.011C192.36 252.372 191.807 251.975 191.012 251.975C189.567 251.975 188.998 253.376 188.955 255.004C188.95 255.058 188.95 255.111 188.95 255.17H188.971C189.283 254.483 190.078 253.924 191.13 253.924C192.607 253.924 193.703 255.015 193.703 256.486V256.497C193.703 258.022 192.543 259.129 190.958 259.129ZM189.181 256.486C189.181 257.48 189.954 258.27 190.948 258.27C191.936 258.27 192.72 257.496 192.72 256.519V256.508C192.72 255.498 191.984 254.773 190.964 254.773C189.949 254.773 189.181 255.493 189.181 256.481V256.486ZM194.546 260.52L195.019 257.894H195.997L195.212 260.52H194.546ZM200.111 259.129C198.682 259.129 197.167 258.141 197.167 255.267V255.256C197.167 252.646 198.279 251.121 200.175 251.121C201.491 251.121 202.474 251.873 202.732 253L202.748 253.07H201.765L201.744 253.011C201.513 252.372 200.959 251.975 200.165 251.975C198.72 251.975 198.15 253.376 198.107 255.004C198.102 255.058 198.102 255.111 198.102 255.17H198.124C198.435 254.483 199.23 253.924 200.283 253.924C201.76 253.924 202.855 255.015 202.855 256.486V256.497C202.855 258.022 201.695 259.129 200.111 259.129ZM198.333 256.486C198.333 257.48 199.106 258.27 200.1 258.27C201.088 258.27 201.873 257.496 201.873 256.519V256.508C201.873 255.498 201.137 254.773 200.116 254.773C199.101 254.773 198.333 255.493 198.333 256.481V256.486ZM206.798 259.129C205.015 259.129 203.957 257.587 203.957 255.127V255.117C203.957 252.657 205.015 251.121 206.798 251.121C208.581 251.121 209.65 252.657 209.65 255.117V255.127C209.65 257.587 208.581 259.129 206.798 259.129ZM206.798 258.286C207.979 258.286 208.678 257.072 208.678 255.127V255.117C208.678 253.172 207.979 251.969 206.798 251.969C205.616 251.969 204.929 253.172 204.929 255.117V255.127C204.929 257.072 205.616 258.286 206.798 258.286ZM213.431 259.129C211.949 259.129 210.891 258.205 210.778 256.943L210.772 256.884H211.723L211.729 256.927C211.825 257.695 212.513 258.28 213.442 258.28C214.495 258.28 215.225 257.55 215.225 256.508V256.497C215.22 255.477 214.484 254.746 213.458 254.746C212.932 254.746 212.48 254.902 212.137 255.213C211.997 255.342 211.874 255.493 211.771 255.67H210.917L211.315 251.25H215.751V252.109H212.11L211.847 254.714H211.868C212.233 254.193 212.878 253.914 213.63 253.914C215.118 253.914 216.192 254.993 216.192 256.481V256.492C216.187 258.044 215.042 259.129 213.431 259.129ZM217.755 259.075C217.411 259.075 217.143 258.807 217.143 258.463C217.143 258.119 217.411 257.851 217.755 257.851C218.099 257.851 218.367 258.119 218.367 258.463C218.367 258.807 218.099 259.075 217.755 259.075ZM221.112 259V252.275H221.09L219.039 253.704V252.732L221.101 251.25H222.046V259H221.112ZM226.623 259.129C225.022 259.129 223.985 258.237 223.883 257.013L223.878 256.948H224.807L224.812 257.002C224.893 257.765 225.591 258.291 226.623 258.291C227.638 258.291 228.331 257.722 228.331 256.9V256.889C228.331 255.938 227.648 255.407 226.563 255.407H225.591V254.59H226.521C227.444 254.59 228.089 254.021 228.089 253.248V253.237C228.089 252.426 227.557 251.958 226.612 251.958C225.699 251.958 225.049 252.442 224.968 253.226L224.963 253.28H224.034L224.039 253.226C224.163 251.964 225.162 251.121 226.612 251.121C228.089 251.121 229.061 251.942 229.061 253.119V253.129C229.061 254.085 228.384 254.741 227.417 254.945V254.966C228.545 255.063 229.313 255.767 229.313 256.868V256.878C229.313 258.173 228.175 259.129 226.623 259.129Z" fill="white"/>
<path d="M80.8682 252V242.136H84.9629C86.7607 242.136 87.916 243.106 87.916 244.604V244.617C87.916 245.677 87.1162 246.627 86.0566 246.771V246.805C87.4443 246.928 88.3877 247.898 88.3877 249.197V249.211C88.3877 250.934 87.1094 252 85.0039 252H80.8682ZM84.5186 243.51H82.6318V246.306H84.2178C85.4893 246.306 86.1729 245.786 86.1729 244.856V244.843C86.1729 243.988 85.5645 243.51 84.5186 243.51ZM84.498 247.584H82.6318V250.626H84.6006C85.8926 250.626 86.5898 250.1 86.5898 249.108V249.095C86.5898 248.104 85.8789 247.584 84.498 247.584ZM89.6455 252V242.136H91.2314L96.0371 249.047H96.0781V242.136H97.8281V252H96.2559L91.4365 245.062H91.4023V252H89.6455ZM99.5713 252V242.136H103.666C105.464 242.136 106.619 243.106 106.619 244.604V244.617C106.619 245.677 105.819 246.627 104.76 246.771V246.805C106.147 246.928 107.091 247.898 107.091 249.197V249.211C107.091 250.934 105.812 252 103.707 252H99.5713ZM103.222 243.51H101.335V246.306H102.921C104.192 246.306 104.876 245.786 104.876 244.856V244.843C104.876 243.988 104.268 243.51 103.222 243.51ZM103.201 247.584H101.335V250.626H103.304C104.596 250.626 105.293 250.1 105.293 249.108V249.095C105.293 248.104 104.582 247.584 103.201 247.584Z" fill="white"/>
<path d="M111.104 252V243.545H114.309C115.756 243.545 116.734 244.389 116.734 245.654V245.666C116.734 246.539 116.078 247.389 115.205 247.512V247.535C116.424 247.676 117.162 248.496 117.162 249.615V249.627C117.162 251.115 116.096 252 114.297 252H111.104ZM114.068 244.477H112.158V247.189H113.74C114.988 247.189 115.668 246.691 115.668 245.777V245.766C115.668 244.934 115.088 244.477 114.068 244.477ZM114.039 248.098H112.158V251.068H114.139C115.404 251.068 116.078 250.559 116.078 249.586V249.574C116.078 248.596 115.387 248.098 114.039 248.098ZM118.357 252V243.545H119.383L124.035 250.219H124.064V243.545H125.107V252H124.082L119.43 245.326H119.4V252H118.357ZM126.748 252V243.545H129.953C131.4 243.545 132.379 244.389 132.379 245.654V245.666C132.379 246.539 131.723 247.389 130.85 247.512V247.535C132.068 247.676 132.807 248.496 132.807 249.615V249.627C132.807 251.115 131.74 252 129.941 252H126.748ZM129.713 244.477H127.803V247.189H129.385C130.633 247.189 131.312 246.691 131.312 245.777V245.766C131.312 244.934 130.732 244.477 129.713 244.477ZM129.684 248.098H127.803V251.068H129.783C131.049 251.068 131.723 250.559 131.723 249.586V249.574C131.723 248.596 131.031 248.098 129.684 248.098Z" fill="white" fill-opacity="0.5"/>
<path d="M80.5811 267.539V266.748H83.7061V267.539H80.5811ZM84.8584 270V269.395L87.3389 266.807C88.291 265.815 88.5107 265.435 88.5107 264.849V264.839C88.5059 264.121 87.9639 263.604 87.1973 263.604C86.3184 263.604 85.6641 264.209 85.6641 264.966V264.99H84.8145V264.961C84.8145 263.74 85.8691 262.837 87.1826 262.837C88.457 262.837 89.3896 263.691 89.3896 264.795V264.805C89.3896 265.576 89.0332 266.157 87.7393 267.48L86.0645 269.199V269.219H89.5068V270H84.8584ZM91.0254 270.068C90.7129 270.068 90.4688 269.824 90.4688 269.512C90.4688 269.199 90.7129 268.955 91.0254 268.955C91.3379 268.955 91.582 269.199 91.582 269.512C91.582 269.824 91.3379 270.068 91.0254 270.068ZM95.2197 270.117C93.9209 270.117 92.5439 269.219 92.5439 266.606V266.597C92.5439 264.224 93.5547 262.837 95.2783 262.837C96.4746 262.837 97.3682 263.521 97.6025 264.546L97.6172 264.609H96.7236L96.7041 264.556C96.4941 263.975 95.9912 263.613 95.2686 263.613C93.9551 263.613 93.4375 264.888 93.3984 266.367C93.3936 266.416 93.3936 266.465 93.3936 266.519H93.4131C93.6963 265.894 94.4189 265.386 95.376 265.386C96.7188 265.386 97.7148 266.377 97.7148 267.715V267.725C97.7148 269.111 96.6602 270.117 95.2197 270.117ZM93.6035 267.715C93.6035 268.618 94.3066 269.336 95.21 269.336C96.1084 269.336 96.8213 268.633 96.8213 267.744V267.734C96.8213 266.816 96.1523 266.157 95.2246 266.157C94.3018 266.157 93.6035 266.812 93.6035 267.71V267.715ZM99.248 270L102.437 263.755V263.735H98.6426V262.954H103.306V263.77L100.171 270H99.248ZM105.61 266.431C104.722 266.431 104.185 265.752 104.185 264.663V264.658C104.185 263.574 104.722 262.896 105.61 262.896C106.499 262.896 107.036 263.574 107.036 264.658V264.663C107.036 265.752 106.499 266.431 105.61 266.431ZM105.928 270H105.127L109.648 262.954H110.439L105.928 270ZM105.61 265.845C106.084 265.845 106.357 265.405 106.357 264.663V264.658C106.357 263.916 106.084 263.481 105.61 263.481C105.137 263.481 104.863 263.916 104.863 264.658V264.663C104.863 265.405 105.137 265.845 105.61 265.845ZM109.951 270.059C109.062 270.059 108.525 269.38 108.525 268.291V268.286C108.525 267.202 109.062 266.523 109.951 266.523C110.84 266.523 111.377 267.202 111.377 268.286V268.291C111.377 269.38 110.84 270.059 109.951 270.059ZM109.951 269.473C110.425 269.473 110.698 269.033 110.698 268.291V268.286C110.698 267.544 110.425 267.109 109.951 267.109C109.478 267.109 109.204 267.544 109.204 268.286V268.291C109.204 269.033 109.478 269.473 109.951 269.473Z" fill="#FF2458"/>
<rect x="28" y="236" width="32" height="32" rx="12" fill="#B7CBFB" fill-opacity="0.1"/>
<path fill-rule="evenodd" clip-rule="evenodd" d="M40.6532 250.625L43.9998 247.28L47.3478 250.628L49.294 248.68L43.9998 243.385L38.7057 248.679L40.6532 250.625ZM35.3828 252L37.3297 250.054L39.2765 252L37.3297 253.947L35.3828 252ZM43.9998 256.722L40.6532 253.375L38.7029 255.32L38.7057 255.323L43.9998 260.616L49.294 255.32L49.2954 255.319L47.3478 253.374L43.9998 256.722ZM48.7199 252.001L50.6667 250.054L52.6136 252.001L50.6667 253.948L48.7199 252.001ZM43.9998 250.023L45.9746 251.999H45.976L45.9746 252.001L43.9998 253.977L42.0251 252.004L42.0223 251.999L42.0251 251.997L42.3708 251.651L42.5395 251.484L43.9998 250.023Z" fill="#F3BA2F"/>
<path d="M178.997 313.779V312.871C177.724 312.758 176.714 311.996 176.628 310.798L176.623 310.723H177.558L177.568 310.787C177.676 311.405 178.073 311.926 178.997 312.028V309.444L178.874 309.412C177.536 309.09 176.816 308.494 176.816 307.43V307.425C176.816 306.275 177.729 305.497 178.997 305.378V304.471H179.642V305.373C180.877 305.486 181.806 306.275 181.881 307.403L181.887 307.484H180.952L180.947 307.436C180.872 306.759 180.367 306.313 179.642 306.222V308.687L179.808 308.725C181.188 309.058 181.962 309.627 181.962 310.76V310.766C181.962 312.055 180.904 312.78 179.642 312.876V313.779H178.997ZM177.751 307.382C177.751 307.908 178.079 308.306 178.997 308.531V306.222C178.181 306.334 177.751 306.855 177.751 307.376V307.382ZM179.674 309.605L179.642 309.6V312.039C180.641 311.958 181.027 311.448 181.027 310.825V310.819C181.027 310.234 180.732 309.863 179.674 309.605ZM185.254 313V306.275H185.233L183.181 307.704V306.732L185.244 305.25H186.189V313H185.254ZM190.958 313.129C189.53 313.129 188.015 312.141 188.015 309.267V309.256C188.015 306.646 189.127 305.121 191.023 305.121C192.339 305.121 193.322 305.873 193.58 307L193.596 307.07H192.613L192.591 307.011C192.36 306.372 191.807 305.975 191.012 305.975C189.567 305.975 188.998 307.376 188.955 309.004C188.95 309.058 188.95 309.111 188.95 309.17H188.971C189.283 308.483 190.078 307.924 191.13 307.924C192.607 307.924 193.703 309.015 193.703 310.486V310.497C193.703 312.022 192.543 313.129 190.958 313.129ZM189.181 310.486C189.181 311.48 189.954 312.27 190.948 312.27C191.936 312.27 192.72 311.496 192.72 310.519V310.508C192.72 309.498 191.984 308.773 190.964 308.773C189.949 308.773 189.181 309.493 189.181 310.481V310.486ZM194.546 314.52L195.019 311.894H195.997L195.212 314.52H194.546ZM200.111 313.129C198.682 313.129 197.167 312.141 197.167 309.267V309.256C197.167 306.646 198.279 305.121 200.175 305.121C201.491 305.121 202.474 305.873 202.732 307L202.748 307.07H201.765L201.744 307.011C201.513 306.372 200.959 305.975 200.165 305.975C198.72 305.975 198.15 307.376 198.107 309.004C198.102 309.058 198.102 309.111 198.102 309.17H198.124C198.435 308.483 199.23 307.924 200.283 307.924C201.76 307.924 202.855 309.015 202.855 310.486V310.497C202.855 312.022 201.695 313.129 200.111 313.129ZM198.333 310.486C198.333 311.48 199.106 312.27 200.1 312.27C201.088 312.27 201.873 311.496 201.873 310.519V310.508C201.873 309.498 201.137 308.773 200.116 308.773C199.101 308.773 198.333 309.493 198.333 310.481V310.486ZM206.798 313.129C205.015 313.129 203.957 311.587 203.957 309.127V309.117C203.957 306.657 205.015 305.121 206.798 305.121C208.581 305.121 209.65 306.657 209.65 309.117V309.127C209.65 311.587 208.581 313.129 206.798 313.129ZM206.798 312.286C207.979 312.286 208.678 311.072 208.678 309.127V309.117C208.678 307.172 207.979 305.969 206.798 305.969C205.616 305.969 204.929 307.172 204.929 309.117V309.127C204.929 311.072 205.616 312.286 206.798 312.286ZM213.431 313.129C211.949 313.129 210.891 312.205 210.778 310.943L210.772 310.884H211.723L211.729 310.927C211.825 311.695 212.513 312.28 213.442 312.28C214.495 312.28 215.225 311.55 215.225 310.508V310.497C215.22 309.477 214.484 308.746 213.458 308.746C212.932 308.746 212.48 308.902 212.137 309.213C211.997 309.342 211.874 309.493 211.771 309.67H210.917L211.315 305.25H215.751V306.109H212.11L211.847 308.714H211.868C212.233 308.193 212.878 307.914 213.63 307.914C215.118 307.914 216.192 308.993 216.192 310.481V310.492C216.187 312.044 215.042 313.129 213.431 313.129ZM217.755 313.075C217.411 313.075 217.143 312.807 217.143 312.463C217.143 312.119 217.411 311.851 217.755 311.851C218.099 311.851 218.367 312.119 218.367 312.463C218.367 312.807 218.099 313.075 217.755 313.075ZM221.112 313V306.275H221.09L219.039 307.704V306.732L221.101 305.25H222.046V313H221.112ZM226.623 313.129C225.022 313.129 223.985 312.237 223.883 311.013L223.878 310.948H224.807L224.812 311.002C224.893 311.765 225.591 312.291 226.623 312.291C227.638 312.291 228.331 311.722 228.331 310.9V310.889C228.331 309.938 227.648 309.407 226.563 309.407H225.591V308.59H226.521C227.444 308.59 228.089 308.021 228.089 307.248V307.237C228.089 306.426 227.557 305.958 226.612 305.958C225.699 305.958 225.049 306.442 224.968 307.226L224.963 307.28H224.034L224.039 307.226C224.163 305.964 225.162 305.121 226.612 305.121C228.089 305.121 229.061 305.942 229.061 307.119V307.129C229.061 308.085 228.384 308.741 227.417 308.945V308.966C228.545 309.063 229.313 309.767 229.313 310.868V310.878C229.313 312.173 228.175 313.129 226.623 313.129Z" fill="white"/>
<path d="M80.8682 306V296.136H84.9629C86.7607 296.136 87.916 297.106 87.916 298.604V298.617C87.916 299.677 87.1162 300.627 86.0566 300.771V300.805C87.4443 300.928 88.3877 301.898 88.3877 303.197V303.211C88.3877 304.934 87.1094 306 85.0039 306H80.8682ZM84.5186 297.51H82.6318V300.306H84.2178C85.4893 300.306 86.1729 299.786 86.1729 298.856V298.843C86.1729 297.988 85.5645 297.51 84.5186 297.51ZM84.498 301.584H82.6318V304.626H84.6006C85.8926 304.626 86.5898 304.1 86.5898 303.108V303.095C86.5898 302.104 85.8789 301.584 84.498 301.584ZM89.6455 306V296.136H91.2314L96.0371 303.047H96.0781V296.136H97.8281V306H96.2559L91.4365 299.062H91.4023V306H89.6455ZM99.5713 306V296.136H103.666C105.464 296.136 106.619 297.106 106.619 298.604V298.617C106.619 299.677 105.819 300.627 104.76 300.771V300.805C106.147 300.928 107.091 301.898 107.091 303.197V303.211C107.091 304.934 105.812 306 103.707 306H99.5713ZM103.222 297.51H101.335V300.306H102.921C104.192 300.306 104.876 299.786 104.876 298.856V298.843C104.876 297.988 104.268 297.51 103.222 297.51ZM103.201 301.584H101.335V304.626H103.304C104.596 304.626 105.293 304.1 105.293 303.108V303.095C105.293 302.104 104.582 301.584 103.201 301.584Z" fill="white"/>
<path d="M111.104 306V297.545H114.309C115.756 297.545 116.734 298.389 116.734 299.654V299.666C116.734 300.539 116.078 301.389 115.205 301.512V301.535C116.424 301.676 117.162 302.496 117.162 303.615V303.627C117.162 305.115 116.096 306 114.297 306H111.104ZM114.068 298.477H112.158V301.189H113.74C114.988 301.189 115.668 300.691 115.668 299.777V299.766C115.668 298.934 115.088 298.477 114.068 298.477ZM114.039 302.098H112.158V305.068H114.139C115.404 305.068 116.078 304.559 116.078 303.586V303.574C116.078 302.596 115.387 302.098 114.039 302.098ZM118.357 306V297.545H119.383L124.035 304.219H124.064V297.545H125.107V306H124.082L119.43 299.326H119.4V306H118.357ZM126.748 306V297.545H129.953C131.4 297.545 132.379 298.389 132.379 299.654V299.666C132.379 300.539 131.723 301.389 130.85 301.512V301.535C132.068 301.676 132.807 302.496 132.807 303.615V303.627C132.807 305.115 131.74 306 129.941 306H126.748ZM129.713 298.477H127.803V301.189H129.385C130.633 301.189 131.312 300.691 131.312 299.777V299.766C131.312 298.934 130.732 298.477 129.713 298.477ZM129.684 302.098H127.803V305.068H129.783C131.049 305.068 131.723 304.559 131.723 303.586V303.574C131.723 302.596 131.031 302.098 129.684 302.098Z" fill="white" fill-opacity="0.5"/>
<path d="M80.5811 321.539V320.748H83.7061V321.539H80.5811ZM84.8584 324V323.395L87.3389 320.807C88.291 319.815 88.5107 319.435 88.5107 318.849V318.839C88.5059 318.121 87.9639 317.604 87.1973 317.604C86.3184 317.604 85.6641 318.209 85.6641 318.966V318.99H84.8145V318.961C84.8145 317.74 85.8691 316.837 87.1826 316.837C88.457 316.837 89.3896 317.691 89.3896 318.795V318.805C89.3896 319.576 89.0332 320.157 87.7393 321.48L86.0645 323.199V323.219H89.5068V324H84.8584ZM91.0254 324.068C90.7129 324.068 90.4688 323.824 90.4688 323.512C90.4688 323.199 90.7129 322.955 91.0254 322.955C91.3379 322.955 91.582 323.199 91.582 323.512C91.582 323.824 91.3379 324.068 91.0254 324.068ZM95.2197 324.117C93.9209 324.117 92.5439 323.219 92.5439 320.606V320.597C92.5439 318.224 93.5547 316.837 95.2783 316.837C96.4746 316.837 97.3682 317.521 97.6025 318.546L97.6172 318.609H96.7236L96.7041 318.556C96.4941 317.975 95.9912 317.613 95.2686 317.613C93.9551 317.613 93.4375 318.888 93.3984 320.367C93.3936 320.416 93.3936 320.465 93.3936 320.519H93.4131C93.6963 319.894 94.4189 319.386 95.376 319.386C96.7188 319.386 97.7148 320.377 97.7148 321.715V321.725C97.7148 323.111 96.6602 324.117 95.2197 324.117ZM93.6035 321.715C93.6035 322.618 94.3066 323.336 95.21 323.336C96.1084 323.336 96.8213 322.633 96.8213 321.744V321.734C96.8213 320.816 96.1523 320.157 95.2246 320.157C94.3018 320.157 93.6035 320.812 93.6035 321.71V321.715ZM99.248 324L102.437 317.755V317.735H98.6426V316.954H103.306V317.77L100.171 324H99.248ZM105.61 320.431C104.722 320.431 104.185 319.752 104.185 318.663V318.658C104.185 317.574 104.722 316.896 105.61 316.896C106.499 316.896 107.036 317.574 107.036 318.658V318.663C107.036 319.752 106.499 320.431 105.61 320.431ZM105.928 324H105.127L109.648 316.954H110.439L105.928 324ZM105.61 319.845C106.084 319.845 106.357 319.405 106.357 318.663V318.658C106.357 317.916 106.084 317.481 105.61 317.481C105.137 317.481 104.863 317.916 104.863 318.658V318.663C104.863 319.405 105.137 319.845 105.61 319.845ZM109.951 324.059C109.062 324.059 108.525 323.38 108.525 322.291V322.286C108.525 321.202 109.062 320.523 109.951 320.523C110.84 320.523 111.377 321.202 111.377 322.286V322.291C111.377 323.38 110.84 324.059 109.951 324.059ZM109.951 323.473C110.425 323.473 110.698 323.033 110.698 322.291V322.286C110.698 321.544 110.425 321.109 109.951 321.109C109.478 321.109 109.204 321.544 109.204 322.286V322.291C109.204 323.033 109.478 323.473 109.951 323.473Z" fill="#FF2458"/>
<rect x="28" y="290" width="32" height="32" rx="12" fill="#B7CBFB" fill-opacity="0.1"/>
<path fill-rule="evenodd" clip-rule="evenodd" d="M45.4629 297.385L36.8978 300.176L42.6899 302.726L51.2285 299.919L45.4629 297.385ZM36.6172 300.425L42.4617 302.959V313.385L36.6172 310.851V300.425ZM45.305 308.534V302.155L51.3864 300.152V310.706L45.305 308.534Z" fill="#83BD67"/>
<path d="M31.2812 44V35.6191H28.3281V34.1357H35.9844V35.6191H33.0381V44H31.2812ZM35.8613 44V36.7539H37.5635V38.0049H37.5977C37.8232 37.1299 38.4248 36.6035 39.2588 36.6035C39.4707 36.6035 39.6689 36.6377 39.7988 36.6719V38.21C39.6553 38.1553 39.3955 38.1143 39.1084 38.1143C38.1445 38.1143 37.5635 38.7227 37.5635 39.7959V44H35.8613ZM43.5859 44.1436C41.4121 44.1436 40.0996 42.7012 40.0996 40.3975V40.3906C40.0996 38.1074 41.4326 36.6035 43.5039 36.6035C45.5752 36.6035 46.8604 38.0596 46.8604 40.2471V40.7939H41.7881C41.8154 42.0654 42.5127 42.8174 43.6201 42.8174C44.4678 42.8174 45.0215 42.3662 45.1855 41.8809L45.1992 41.833H46.792L46.7715 41.9082C46.5459 43.0225 45.4795 44.1436 43.5859 44.1436ZM43.5244 37.9365C42.6221 37.9365 41.9453 38.5449 41.8086 39.6592H45.2061C45.083 38.5107 44.4268 37.9365 43.5244 37.9365ZM47.9609 44V36.7539H49.6631V37.8887H49.6973C50.0732 37.1094 50.8115 36.6035 51.9121 36.6035C53.5049 36.6035 54.4141 37.6289 54.4141 39.3105V44H52.7119V39.6523C52.7119 38.6201 52.2334 38.0391 51.2627 38.0391C50.2852 38.0391 49.6631 38.75 49.6631 39.7959V44H47.9609ZM58.4746 44.1436C56.6426 44.1436 55.4805 42.708 55.4805 40.377V40.3701C55.4805 38.0322 56.6494 36.6035 58.4678 36.6035C59.4932 36.6035 60.3203 37.1299 60.7305 37.998H60.7715V34.1357H62.4736V44H60.7715V42.7695H60.7305C60.3203 43.624 59.5205 44.1436 58.4746 44.1436ZM58.9873 42.708C60.04 42.708 60.7715 41.7988 60.7715 40.377V40.3701C60.7715 38.9551 60.0332 38.0391 58.9873 38.0391C57.9004 38.0391 57.2168 38.9277 57.2168 40.3701V40.377C57.2168 41.8193 57.8936 42.708 58.9873 42.708ZM64.8047 35.7148C64.2715 35.7148 63.8545 35.291 63.8545 34.7852C63.8545 34.2656 64.2715 33.8486 64.8047 33.8486C65.3379 33.8486 65.748 34.2656 65.748 34.7852C65.748 35.291 65.3379 35.7148 64.8047 35.7148ZM63.9502 44V36.7539H65.6523V44H63.9502ZM67.1016 44V36.7539H68.8037V37.8887H68.8379C69.2139 37.1094 69.9521 36.6035 71.0527 36.6035C72.6455 36.6035 73.5547 37.6289 73.5547 39.3105V44H71.8525V39.6523C71.8525 38.6201 71.374 38.0391 70.4033 38.0391C69.4258 38.0391 68.8037 38.75 68.8037 39.7959V44H67.1016ZM78.1895 46.5361C76.2686 46.5361 75.0586 45.6611 74.8535 44.5264L74.8398 44.4648H76.5146L76.5352 44.5195C76.7197 44.9365 77.3008 45.251 78.1895 45.251C79.2969 45.251 79.9053 44.6631 79.9053 43.7402V42.6943H79.8711C79.4678 43.4668 78.6475 43.959 77.6084 43.959C75.79 43.959 74.6211 42.5645 74.6211 40.3086V40.3018C74.6211 38.0117 75.8037 36.6035 77.6357 36.6035C78.6611 36.6035 79.4541 37.1504 79.8643 37.9844H79.9053V36.7539H81.6074V43.7949C81.6074 45.4355 80.2881 46.5361 78.1895 46.5361ZM78.1416 42.6465C79.2012 42.6465 79.9121 41.751 79.9121 40.3428V40.3359C79.9121 38.9346 79.1943 38.0391 78.1416 38.0391C77.0479 38.0391 76.3574 38.9209 76.3574 40.3291V40.3359C76.3574 41.7646 77.0479 42.6465 78.1416 42.6465Z" fill="white"/>
<path d="M178.997 97.7788V96.8711C177.724 96.7583 176.714 95.9956 176.628 94.7979L176.623 94.7227H177.558L177.568 94.7871C177.676 95.4048 178.073 95.9258 178.997 96.0278V93.4443L178.874 93.4121C177.536 93.0898 176.816 92.4937 176.816 91.4302V91.4248C176.816 90.2754 177.729 89.4966 178.997 89.3784V88.4707H179.642V89.373C180.877 89.4858 181.806 90.2754 181.881 91.4033L181.887 91.4839H180.952L180.947 91.4355C180.872 90.7588 180.367 90.313 179.642 90.2217V92.687L179.808 92.7246C181.188 93.0576 181.962 93.627 181.962 94.7603V94.7656C181.962 96.0547 180.904 96.7798 179.642 96.8765V97.7788H178.997ZM177.751 91.3818C177.751 91.9082 178.079 92.3057 178.997 92.5312V90.2217C178.181 90.3345 177.751 90.8555 177.751 91.3765V91.3818ZM179.674 93.6055L179.642 93.6001V96.0386C180.641 95.958 181.027 95.4478 181.027 94.8247V94.8193C181.027 94.2339 180.732 93.8633 179.674 93.6055ZM185.888 97.1289C184.288 97.1289 183.251 96.2373 183.149 95.0127L183.144 94.9482H184.073L184.078 95.002C184.159 95.7646 184.857 96.291 185.888 96.291C186.903 96.291 187.596 95.7217 187.596 94.8999V94.8892C187.596 93.9385 186.914 93.4067 185.829 93.4067H184.857V92.5903H185.786C186.71 92.5903 187.354 92.021 187.354 91.2476V91.2368C187.354 90.4258 186.823 89.9585 185.877 89.9585C184.964 89.9585 184.314 90.4419 184.234 91.2261L184.229 91.2798H183.299L183.305 91.2261C183.428 89.9639 184.427 89.1206 185.877 89.1206C187.354 89.1206 188.327 89.9424 188.327 91.1187V91.1294C188.327 92.0854 187.65 92.7407 186.683 92.9448V92.9663C187.811 93.063 188.579 93.7666 188.579 94.8677V94.8784C188.579 96.1729 187.44 97.1289 185.888 97.1289ZM192.591 97.1289C191.163 97.1289 189.648 96.1406 189.648 93.2671V93.2563C189.648 90.646 190.76 89.1206 192.656 89.1206C193.972 89.1206 194.955 89.8726 195.212 91.0005L195.229 91.0703H194.246L194.224 91.0112C193.993 90.3721 193.44 89.9746 192.645 89.9746C191.2 89.9746 190.631 91.3765 190.588 93.0039C190.583 93.0576 190.583 93.1113 190.583 93.1704H190.604C190.916 92.4829 191.71 91.9243 192.763 91.9243C194.24 91.9243 195.336 93.0146 195.336 94.4863V94.4971C195.336 96.0225 194.176 97.1289 192.591 97.1289ZM190.813 94.4863C190.813 95.48 191.587 96.2695 192.581 96.2695C193.569 96.2695 194.353 95.4961 194.353 94.5186V94.5078C194.353 93.498 193.617 92.7729 192.597 92.7729C191.582 92.7729 190.813 93.4927 190.813 94.481V94.4863ZM196.179 98.52L196.652 95.8936H197.629L196.845 98.52H196.179ZM200.487 97V90.2754H200.465L198.414 91.7041V90.7319L200.476 89.2495H201.421V97H200.487ZM206.057 97.1289C204.413 97.1289 203.242 96.2051 203.242 94.9053V94.8945C203.242 93.9385 203.914 93.1436 204.907 92.9126V92.8911C204.059 92.6279 203.521 91.9834 203.521 91.167V91.1562C203.521 89.9854 204.59 89.1206 206.057 89.1206C207.523 89.1206 208.592 89.9854 208.592 91.1562V91.167C208.592 91.9834 208.055 92.6279 207.206 92.8911V92.9126C208.2 93.1436 208.871 93.9385 208.871 94.8945V94.9053C208.871 96.2051 207.7 97.1289 206.057 97.1289ZM206.057 92.5312C206.991 92.5312 207.63 91.9995 207.63 91.2476V91.2368C207.63 90.4849 206.991 89.9531 206.057 89.9531C205.122 89.9531 204.483 90.4849 204.483 91.2368V91.2476C204.483 91.9995 205.122 92.5312 206.057 92.5312ZM206.057 96.2856C207.125 96.2856 207.888 95.6841 207.888 94.8462V94.8354C207.888 93.9868 207.131 93.3799 206.057 93.3799C204.982 93.3799 204.225 93.9868 204.225 94.8354V94.8462C204.225 95.6841 204.988 96.2856 206.057 96.2856ZM212.647 97.1289C211.165 97.1289 210.106 96.2051 209.994 94.9429L209.988 94.8838H210.939L210.944 94.9268C211.041 95.6948 211.729 96.2803 212.658 96.2803C213.71 96.2803 214.441 95.5498 214.441 94.5078V94.4971C214.436 93.4766 213.7 92.7461 212.674 92.7461C212.147 92.7461 211.696 92.9019 211.353 93.2134C211.213 93.3423 211.089 93.4927 210.987 93.6699H210.133L210.531 89.2495H214.967V90.1089H211.326L211.062 92.7139H211.084C211.449 92.1929 212.094 91.9136 212.846 91.9136C214.333 91.9136 215.408 92.9932 215.408 94.481V94.4917C215.402 96.0439 214.258 97.1289 212.647 97.1289ZM216.971 97.0752C216.627 97.0752 216.358 96.8066 216.358 96.4629C216.358 96.1191 216.627 95.8506 216.971 95.8506C217.314 95.8506 217.583 96.1191 217.583 96.4629C217.583 96.8066 217.314 97.0752 216.971 97.0752ZM220.328 97V90.2754H220.306L218.254 91.7041V90.7319L220.317 89.2495H221.262V97H220.328ZM225.892 97.1289C224.41 97.1289 223.352 96.2051 223.239 94.9429L223.233 94.8838H224.184L224.189 94.9268C224.286 95.6948 224.974 96.2803 225.903 96.2803C226.956 96.2803 227.686 95.5498 227.686 94.5078V94.4971C227.681 93.4766 226.945 92.7461 225.919 92.7461C225.393 92.7461 224.941 92.9019 224.598 93.2134C224.458 93.3423 224.334 93.4927 224.232 93.6699H223.378L223.776 89.2495H228.212V90.1089H224.571L224.308 92.7139H224.329C224.694 92.1929 225.339 91.9136 226.091 91.9136C227.579 91.9136 228.653 92.9932 228.653 94.481V94.4917C228.647 96.0439 227.503 97.1289 225.892 97.1289Z" fill="white"/>
<path d="M80.8682 90V80.1357H84.9629C86.7607 80.1357 87.916 81.1064 87.916 82.6035V82.6172C87.916 83.6768 87.1162 84.627 86.0566 84.7705V84.8047C87.4443 84.9277 88.3877 85.8984 88.3877 87.1973V87.2109C88.3877 88.9336 87.1094 90 85.0039 90H80.8682ZM84.5186 81.5098H82.6318V84.3057H84.2178C85.4893 84.3057 86.1729 83.7861 86.1729 82.8564V82.8428C86.1729 81.9883 85.5645 81.5098 84.5186 81.5098ZM84.498 85.584H82.6318V88.626H84.6006C85.8926 88.626 86.5898 88.0996 86.5898 87.1084V87.0947C86.5898 86.1035 85.8789 85.584 84.498 85.584ZM90.377 81.7148C89.8438 81.7148 89.4268 81.291 89.4268 80.7852C89.4268 80.2656 89.8438 79.8486 90.377 79.8486C90.9102 79.8486 91.3203 80.2656 91.3203 80.7852C91.3203 81.291 90.9102 81.7148 90.377 81.7148ZM89.5225 90V82.7539H91.2246V90H89.5225ZM95.3672 90.1436C93.8496 90.1436 93.1318 89.5283 93.1318 88.0381V84.0664H92.1064V82.7539H93.1318V80.915H94.8613V82.7539H96.208V84.0664H94.8613V87.8945C94.8613 88.6055 95.1758 88.8311 95.7979 88.8311C95.9619 88.8311 96.0918 88.8105 96.208 88.8037V90.082C96.0098 90.1094 95.709 90.1436 95.3672 90.1436ZM100.439 90.1436C98.2861 90.1436 96.9395 88.6943 96.9395 86.3701V86.3633C96.9395 84.0527 98.3066 82.6035 100.419 82.6035C102.326 82.6035 103.516 83.8135 103.618 85.2627L103.625 85.3174H102.019L102.005 85.2559C101.861 84.5518 101.342 83.9844 100.439 83.9844C99.3662 83.9844 98.6758 84.8936 98.6758 86.377V86.3838C98.6758 87.8945 99.373 88.7695 100.446 88.7695C101.308 88.7695 101.854 88.2568 102.012 87.498L102.025 87.4365H103.632L103.625 87.4844C103.495 88.9951 102.271 90.1436 100.439 90.1436ZM107.856 90.1436C105.724 90.1436 104.35 88.7217 104.35 86.377V86.3633C104.35 84.0391 105.744 82.6035 107.85 82.6035C109.962 82.6035 111.363 84.0254 111.363 86.3633V86.377C111.363 88.7285 109.982 90.1436 107.856 90.1436ZM107.863 88.7695C108.937 88.7695 109.627 87.8945 109.627 86.377V86.3633C109.627 84.8525 108.93 83.9844 107.85 83.9844C106.79 83.9844 106.086 84.8594 106.086 86.3633V86.377C106.086 87.9014 106.776 88.7695 107.863 88.7695ZM113.359 81.7148C112.826 81.7148 112.409 81.291 112.409 80.7852C112.409 80.2656 112.826 79.8486 113.359 79.8486C113.893 79.8486 114.303 80.2656 114.303 80.7852C114.303 81.291 113.893 81.7148 113.359 81.7148ZM112.505 90V82.7539H114.207V90H112.505ZM115.656 90V82.7539H117.358V83.8887H117.393C117.769 83.1094 118.507 82.6035 119.607 82.6035C121.2 82.6035 122.109 83.6289 122.109 85.3105V90H120.407V85.6523C120.407 84.6201 119.929 84.0391 118.958 84.0391C117.98 84.0391 117.358 84.75 117.358 85.7959V90H115.656Z" fill="white"/>
<path d="M126.402 90V81.5449H129.607C131.055 81.5449 132.033 82.3887 132.033 83.6543V83.666C132.033 84.5391 131.377 85.3887 130.504 85.5117V85.5352C131.723 85.6758 132.461 86.4961 132.461 87.6152V87.627C132.461 89.1152 131.395 90 129.596 90H126.402ZM129.367 82.4766H127.457V85.1895H129.039C130.287 85.1895 130.967 84.6914 130.967 83.7773V83.7656C130.967 82.9336 130.387 82.4766 129.367 82.4766ZM129.338 86.0977H127.457V89.0684H129.438C130.703 89.0684 131.377 88.5586 131.377 87.5859V87.5742C131.377 86.5957 130.686 86.0977 129.338 86.0977ZM135.795 90V82.4941H133.129V81.5449H139.516V82.4941H136.85V90H135.795ZM143.635 90.1406C141.285 90.1406 139.773 88.4297 139.773 85.7695V85.7637C139.773 83.1035 141.279 81.4043 143.635 81.4043C145.393 81.4043 146.758 82.4707 147.08 84.0703L147.092 84.1289H146.025L145.984 84C145.656 82.9746 144.824 82.377 143.635 82.377C141.947 82.377 140.857 83.707 140.857 85.7637V85.7695C140.857 87.8262 141.953 89.168 143.635 89.168C144.818 89.168 145.639 88.582 146.008 87.4688L146.025 87.416H147.092L147.08 87.4746C146.758 89.0918 145.404 90.1406 143.635 90.1406Z" fill="white" fill-opacity="0.5"/>
<path d="M80.5469 105.539V104.748H82.627V102.727H83.418V104.748H85.5029V105.539H83.418V107.561H82.627V105.539H80.5469ZM89.9658 108V106.535H86.4258V105.739L89.5166 100.954H90.8154V105.764H91.8115V106.535H90.8154V108H89.9658ZM87.2949 105.764H89.9658V101.706H89.9365L87.2949 105.744V105.764ZM93.1641 108.068C92.8516 108.068 92.6074 107.824 92.6074 107.512C92.6074 107.199 92.8516 106.955 93.1641 106.955C93.4766 106.955 93.7207 107.199 93.7207 107.512C93.7207 107.824 93.4766 108.068 93.1641 108.068ZM94.8096 108V107.395L97.29 104.807C98.2422 103.815 98.4619 103.435 98.4619 102.849V102.839C98.457 102.121 97.915 101.604 97.1484 101.604C96.2695 101.604 95.6152 102.209 95.6152 102.966V102.99H94.7656V102.961C94.7656 101.74 95.8203 100.837 97.1338 100.837C98.4082 100.837 99.3408 101.691 99.3408 102.795V102.805C99.3408 103.576 98.9844 104.157 97.6904 105.48L96.0156 107.199V107.219H99.458V108H94.8096ZM101.772 104.431C100.884 104.431 100.347 103.752 100.347 102.663V102.658C100.347 101.574 100.884 100.896 101.772 100.896C102.661 100.896 103.198 101.574 103.198 102.658V102.663C103.198 103.752 102.661 104.431 101.772 104.431ZM102.09 108H101.289L105.811 100.954H106.602L102.09 108ZM101.772 103.845C102.246 103.845 102.52 103.405 102.52 102.663V102.658C102.52 101.916 102.246 101.481 101.772 101.481C101.299 101.481 101.025 101.916 101.025 102.658V102.663C101.025 103.405 101.299 103.845 101.772 103.845ZM106.113 108.059C105.225 108.059 104.688 107.38 104.688 106.291V106.286C104.688 105.202 105.225 104.523 106.113 104.523C107.002 104.523 107.539 105.202 107.539 106.286V106.291C107.539 107.38 107.002 108.059 106.113 108.059ZM106.113 107.473C106.587 107.473 106.86 107.033 106.86 106.291V106.286C106.86 105.544 106.587 105.109 106.113 105.109C105.64 105.109 105.366 105.544 105.366 106.286V106.291C105.366 107.033 105.64 107.473 106.113 107.473Z" fill="#B0FA03"/>
<rect x="28" y="74" width="32" height="32" rx="12" fill="#B7CBFB" fill-opacity="0.1"/>
<path fill-rule="evenodd" clip-rule="evenodd" d="M48.8182 88.141C49.0339 86.6967 47.9343 85.9203 46.4306 85.4024L46.9184 83.4459L45.7271 83.1491L45.2523 85.054C44.9395 84.976 44.618 84.9024 44.2984 84.8295L44.7767 82.912L43.5865 82.6152L43.0984 84.571C42.8392 84.512 42.5848 84.4537 42.3379 84.3923L42.3393 84.3862L40.6969 83.9761L40.3801 85.248C40.3801 85.248 41.2637 85.4505 41.245 85.4631C41.7274 85.5835 41.8149 85.9027 41.8 86.1557L41.2444 88.3846C41.2776 88.393 41.3207 88.4053 41.3682 88.4242L41.2427 88.393L40.4635 91.5153C40.4045 91.6618 40.2549 91.8816 39.9178 91.7982C39.9296 91.8155 39.0522 91.5821 39.0522 91.5821L38.4609 92.9457L40.011 93.332C40.186 93.3759 40.3589 93.421 40.5299 93.4656L40.5299 93.4656L40.5302 93.4657C40.6408 93.4945 40.7506 93.5232 40.8597 93.5511L40.3669 95.5303L41.5564 95.8271L42.0448 93.8693C42.3695 93.9575 42.6849 94.0389 42.9936 94.1156L42.5072 96.0642L43.6981 96.361L44.1909 94.3859C46.2217 94.7702 47.7491 94.6152 48.3911 92.7788C48.9091 91.2999 48.3657 90.4469 47.2972 89.8902C48.0754 89.7101 48.6615 89.1983 48.8179 88.141H48.8182ZM46.0968 91.9566C45.7588 93.3139 43.6337 92.7523 42.6623 92.4956L42.6622 92.4955C42.5752 92.4726 42.4975 92.452 42.4312 92.4355L43.0852 89.8139C43.1663 89.8342 43.2654 89.8564 43.3777 89.8816L43.3777 89.8816C44.3827 90.1071 46.4423 90.5693 46.0972 91.9566H46.0968ZM43.5797 88.6651C44.3903 88.8813 46.1571 89.3527 46.4649 88.1197C46.7795 86.8582 45.0615 86.478 44.2224 86.2923C44.1281 86.2715 44.0449 86.253 43.9769 86.2361L43.384 88.6139C43.4401 88.6278 43.5059 88.6454 43.5797 88.6651Z" fill="#F7931A"/>
<path d="M178.997 205.779V204.871C177.724 204.758 176.714 203.996 176.628 202.798L176.623 202.723H177.558L177.568 202.787C177.676 203.405 178.073 203.926 178.997 204.028V201.444L178.874 201.412C177.536 201.09 176.816 200.494 176.816 199.43V199.425C176.816 198.275 177.729 197.497 178.997 197.378V196.471H179.642V197.373C180.877 197.486 181.806 198.275 181.881 199.403L181.887 199.484H180.952L180.947 199.436C180.872 198.759 180.367 198.313 179.642 198.222V200.687L179.808 200.725C181.188 201.058 181.962 201.627 181.962 202.76V202.766C181.962 204.055 180.904 204.78 179.642 204.876V205.779H178.997ZM177.751 199.382C177.751 199.908 178.079 200.306 178.997 200.531V198.222C178.181 198.334 177.751 198.855 177.751 199.376V199.382ZM179.674 201.605L179.642 201.6V204.039C180.641 203.958 181.027 203.448 181.027 202.825V202.819C181.027 202.234 180.732 201.863 179.674 201.605ZM185.888 205.129C184.288 205.129 183.251 204.237 183.149 203.013L183.144 202.948H184.073L184.078 203.002C184.159 203.765 184.857 204.291 185.888 204.291C186.903 204.291 187.596 203.722 187.596 202.9V202.889C187.596 201.938 186.914 201.407 185.829 201.407H184.857V200.59H185.786C186.71 200.59 187.354 200.021 187.354 199.248V199.237C187.354 198.426 186.823 197.958 185.877 197.958C184.964 197.958 184.314 198.442 184.234 199.226L184.229 199.28H183.299L183.305 199.226C183.428 197.964 184.427 197.121 185.877 197.121C187.354 197.121 188.327 197.942 188.327 199.119V199.129C188.327 200.085 187.65 200.741 186.683 200.945V200.966C187.811 201.063 188.579 201.767 188.579 202.868V202.878C188.579 204.173 187.44 205.129 185.888 205.129ZM192.591 205.129C191.163 205.129 189.648 204.141 189.648 201.267V201.256C189.648 198.646 190.76 197.121 192.656 197.121C193.972 197.121 194.955 197.873 195.212 199L195.229 199.07H194.246L194.224 199.011C193.993 198.372 193.44 197.975 192.645 197.975C191.2 197.975 190.631 199.376 190.588 201.004C190.583 201.058 190.583 201.111 190.583 201.17H190.604C190.916 200.483 191.71 199.924 192.763 199.924C194.24 199.924 195.336 201.015 195.336 202.486V202.497C195.336 204.022 194.176 205.129 192.591 205.129ZM190.813 202.486C190.813 203.48 191.587 204.27 192.581 204.27C193.569 204.27 194.353 203.496 194.353 202.519V202.508C194.353 201.498 193.617 200.773 192.597 200.773C191.582 200.773 190.813 201.493 190.813 202.481V202.486ZM196.179 206.52L196.652 203.894H197.629L196.845 206.52H196.179ZM200.487 205V198.275H200.465L198.414 199.704V198.732L200.476 197.25H201.421V205H200.487ZM206.057 205.129C204.413 205.129 203.242 204.205 203.242 202.905V202.895C203.242 201.938 203.914 201.144 204.907 200.913V200.891C204.059 200.628 203.521 199.983 203.521 199.167V199.156C203.521 197.985 204.59 197.121 206.057 197.121C207.523 197.121 208.592 197.985 208.592 199.156V199.167C208.592 199.983 208.055 200.628 207.206 200.891V200.913C208.2 201.144 208.871 201.938 208.871 202.895V202.905C208.871 204.205 207.7 205.129 206.057 205.129ZM206.057 200.531C206.991 200.531 207.63 200 207.63 199.248V199.237C207.63 198.485 206.991 197.953 206.057 197.953C205.122 197.953 204.483 198.485 204.483 199.237V199.248C204.483 200 205.122 200.531 206.057 200.531ZM206.057 204.286C207.125 204.286 207.888 203.684 207.888 202.846V202.835C207.888 201.987 207.131 201.38 206.057 201.38C204.982 201.38 204.225 201.987 204.225 202.835V202.846C204.225 203.684 204.988 204.286 206.057 204.286ZM212.647 205.129C211.165 205.129 210.106 204.205 209.994 202.943L209.988 202.884H210.939L210.944 202.927C211.041 203.695 211.729 204.28 212.658 204.28C213.71 204.28 214.441 203.55 214.441 202.508V202.497C214.436 201.477 213.7 200.746 212.674 200.746C212.147 200.746 211.696 200.902 211.353 201.213C211.213 201.342 211.089 201.493 210.987 201.67H210.133L210.531 197.25H214.967V198.109H211.326L211.062 200.714H211.084C211.449 200.193 212.094 199.914 212.846 199.914C214.333 199.914 215.408 200.993 215.408 202.481V202.492C215.402 204.044 214.258 205.129 212.647 205.129ZM216.971 205.075C216.627 205.075 216.358 204.807 216.358 204.463C216.358 204.119 216.627 203.851 216.971 203.851C217.314 203.851 217.583 204.119 217.583 204.463C217.583 204.807 217.314 205.075 216.971 205.075ZM220.328 205V198.275H220.306L218.254 199.704V198.732L220.317 197.25H221.262V205H220.328ZM225.892 205.129C224.41 205.129 223.352 204.205 223.239 202.943L223.233 202.884H224.184L224.189 202.927C224.286 203.695 224.974 204.28 225.903 204.28C226.956 204.28 227.686 203.55 227.686 202.508V202.497C227.681 201.477 226.945 200.746 225.919 200.746C225.393 200.746 224.941 200.902 224.598 201.213C224.458 201.342 224.334 201.493 224.232 201.67H223.378L223.776 197.25H228.212V198.109H224.571L224.308 200.714H224.329C224.694 200.193 225.339 199.914 226.091 199.914C227.579 199.914 228.653 200.993 228.653 202.481V202.492C228.647 204.044 227.503 205.129 225.892 205.129Z" fill="white"/>
<path d="M80.6289 198V196.824L85.8721 189.66V189.619H80.7725V188.136H87.998V189.312L82.7754 196.476V196.517H88.1279V198H80.6289ZM93.8838 198.171C91.0469 198.171 89.2559 196.216 89.2559 193.064V193.058C89.2559 189.906 91.0537 187.965 93.8838 187.965C96.1533 187.965 97.8213 189.38 98.0811 191.39L98.0879 191.458H96.3584L96.3242 191.328C96.0371 190.2 95.1689 189.496 93.8838 189.496C92.1611 189.496 91.0605 190.87 91.0605 193.058V193.064C91.0605 195.259 92.168 196.64 93.8838 196.64C95.1416 196.64 96.0234 195.963 96.3447 194.746L96.3652 194.678H98.0947L98.0811 194.746C97.8281 196.77 96.1533 198.171 93.8838 198.171ZM102.47 198.144C100.337 198.144 98.9629 196.722 98.9629 194.377V194.363C98.9629 192.039 100.357 190.604 102.463 190.604C104.575 190.604 105.977 192.025 105.977 194.363V194.377C105.977 196.729 104.596 198.144 102.47 198.144ZM102.477 196.77C103.55 196.77 104.24 195.895 104.24 194.377V194.363C104.24 192.853 103.543 191.984 102.463 191.984C101.403 191.984 100.699 192.859 100.699 194.363V194.377C100.699 195.901 101.39 196.77 102.477 196.77ZM107.973 189.715C107.439 189.715 107.022 189.291 107.022 188.785C107.022 188.266 107.439 187.849 107.973 187.849C108.506 187.849 108.916 188.266 108.916 188.785C108.916 189.291 108.506 189.715 107.973 189.715ZM107.118 198V190.754H108.82V198H107.118ZM110.27 198V190.754H111.972V191.889H112.006C112.382 191.109 113.12 190.604 114.221 190.604C115.813 190.604 116.723 191.629 116.723 193.311V198H115.021V193.652C115.021 192.62 114.542 192.039 113.571 192.039C112.594 192.039 111.972 192.75 111.972 193.796V198H110.27Z" fill="white"/>
<path d="M120.459 198L123.342 193.752V193.729L120.494 189.545H121.766L124.027 192.949H124.062L126.348 189.545H127.549L124.625 193.781V193.805L127.484 198H126.219L123.969 194.625H123.934L121.654 198H120.459ZM128.387 198V197.25L133.221 190.518V190.494H128.551V189.545H134.539V190.295L129.729 197.027V197.051H134.639V198H128.387ZM139.572 198.141C137.223 198.141 135.711 196.43 135.711 193.77V193.764C135.711 191.104 137.217 189.404 139.572 189.404C141.33 189.404 142.695 190.471 143.018 192.07L143.029 192.129H141.963L141.922 192C141.594 190.975 140.762 190.377 139.572 190.377C137.885 190.377 136.795 191.707 136.795 193.764V193.77C136.795 195.826 137.891 197.168 139.572 197.168C140.756 197.168 141.576 196.582 141.945 195.469L141.963 195.416H143.029L143.018 195.475C142.695 197.092 141.342 198.141 139.572 198.141Z" fill="white" fill-opacity="0.5"/>
<path d="M80.5811 213.539V212.748H83.7061V213.539H80.5811ZM87.2314 216.117C85.7764 216.117 84.834 215.307 84.7412 214.193L84.7363 214.135H85.5811L85.5859 214.184C85.6592 214.877 86.2939 215.355 87.2314 215.355C88.1543 215.355 88.7842 214.838 88.7842 214.091V214.081C88.7842 213.217 88.1641 212.733 87.1777 212.733H86.2939V211.991H87.1387C87.9785 211.991 88.5645 211.474 88.5645 210.771V210.761C88.5645 210.023 88.0811 209.599 87.2217 209.599C86.3916 209.599 85.8008 210.038 85.7275 210.751L85.7227 210.8H84.8779L84.8828 210.751C84.9951 209.604 85.9033 208.837 87.2217 208.837C88.5645 208.837 89.4482 209.584 89.4482 210.653V210.663C89.4482 211.532 88.833 212.128 87.9541 212.313V212.333C88.9795 212.421 89.6777 213.061 89.6777 214.062V214.071C89.6777 215.248 88.6426 216.117 87.2314 216.117ZM91.1328 216.068C90.8203 216.068 90.5762 215.824 90.5762 215.512C90.5762 215.199 90.8203 214.955 91.1328 214.955C91.4453 214.955 91.6895 215.199 91.6895 215.512C91.6895 215.824 91.4453 216.068 91.1328 216.068ZM96.1279 216V214.535H92.5879V213.739L95.6787 208.954H96.9775V213.764H97.9736V214.535H96.9775V216H96.1279ZM93.457 213.764H96.1279V209.706H96.0986L93.457 213.744V213.764ZM100.122 212.431C99.2334 212.431 98.6963 211.752 98.6963 210.663V210.658C98.6963 209.574 99.2334 208.896 100.122 208.896C101.011 208.896 101.548 209.574 101.548 210.658V210.663C101.548 211.752 101.011 212.431 100.122 212.431ZM100.439 216H99.6387L104.16 208.954H104.951L100.439 216ZM100.122 211.845C100.596 211.845 100.869 211.405 100.869 210.663V210.658C100.869 209.916 100.596 209.481 100.122 209.481C99.6484 209.481 99.375 209.916 99.375 210.658V210.663C99.375 211.405 99.6484 211.845 100.122 211.845ZM104.463 216.059C103.574 216.059 103.037 215.38 103.037 214.291V214.286C103.037 213.202 103.574 212.523 104.463 212.523C105.352 212.523 105.889 213.202 105.889 214.286V214.291C105.889 215.38 105.352 216.059 104.463 216.059ZM104.463 215.473C104.937 215.473 105.21 215.033 105.21 214.291V214.286C105.21 213.544 104.937 213.109 104.463 213.109C103.989 213.109 103.716 213.544 103.716 214.286V214.291C103.716 215.033 103.989 215.473 104.463 215.473Z" fill="#FF2458"/>
<rect x="28" y="182" width="32" height="32" rx="12" fill="#B7CBFB" fill-opacity="0.1"/>
<path fill-rule="evenodd" clip-rule="evenodd" d="M46.6666 200.982H49.2158V203.212H41.5567L51.0646 193.696C51.3746 193.386 51.4665 192.915 51.3057 192.512C51.1335 192.11 50.7431 191.846 50.2952 191.846H38.9385C38.3299 191.846 37.8477 192.328 37.8477 192.938V200.982L42.5672 196.259H40.0179V194.018H47.6656L38.1692 203.534C37.8591 203.844 37.7673 204.315 37.928 204.718C38.1003 205.12 38.4907 205.384 38.9385 205.384H50.2952C50.8923 205.384 51.3861 204.901 51.3861 204.292V196.259L46.6666 200.982Z" fill="#23B852"/>
<g filter="url(#filter0_f_2276_1077)">
<rect x="193" y="161" width="38" height="298" fill="#151515" fill-opacity="0.3"/>
</g>
<g filter="url(#filter1_f_2276_1077)">
<rect x="77" y="289" width="38" height="115" fill="#151515" fill-opacity="0.3"/>
</g>
<rect x="206.5" y="134.5" width="263" height="355" rx="19.5" fill="url(#paint0_linear_2276_1077)" stroke="url(#paint1_linear_2276_1077)"/>
<path opacity="0.5" d="M359.242 404V397.12H356.798V396.25H362.652V397.12H360.208V404H359.242ZM364.376 404.107C362.771 404.107 361.804 402.985 361.804 401.229V401.223C361.804 399.494 362.792 398.307 364.317 398.307C365.843 398.307 366.772 399.44 366.772 401.116V401.459H362.749C362.771 402.609 363.404 403.28 364.398 403.28C365.107 403.28 365.606 402.926 365.768 402.448L365.784 402.399H366.702L366.691 402.453C366.509 403.377 365.596 404.107 364.376 404.107ZM364.312 399.134C363.501 399.134 362.867 399.687 362.765 400.729H365.821C365.73 399.644 365.128 399.134 364.312 399.134ZM367.717 404V398.414H368.652V399.359H368.673C368.861 398.715 369.345 398.307 369.973 398.307C370.134 398.307 370.274 398.333 370.349 398.344V399.252C370.274 399.225 370.075 399.198 369.85 399.198C369.125 399.198 368.652 399.703 368.652 400.552V404H367.717ZM371.112 404V398.414H372.046V399.23H372.068C372.32 398.677 372.879 398.307 373.599 398.307C374.361 398.307 374.925 398.699 375.167 399.381H375.188C375.5 398.709 376.155 398.307 376.939 398.307C378.046 398.307 378.76 399.032 378.76 400.144V404H377.826V400.358C377.826 399.59 377.401 399.134 376.666 399.134C375.924 399.134 375.403 399.687 375.403 400.45V404H374.469V400.256C374.469 399.58 374.018 399.134 373.325 399.134C372.583 399.134 372.046 399.719 372.046 400.498V404H371.112ZM384.642 404.129C383.111 404.129 382.042 403.227 382.042 401.938V401.932C382.042 401.019 382.547 400.326 383.567 399.784L383.852 399.633C383.186 398.887 382.901 398.409 382.896 397.85V397.845C382.896 396.856 383.734 396.121 384.851 396.121C385.984 396.121 386.812 396.835 386.812 397.839V397.845C386.812 398.607 386.371 399.166 385.152 399.832L387.059 401.873C387.311 401.325 387.44 400.643 387.44 399.843V399.612H388.332V399.848C388.332 400.922 388.101 401.83 387.676 402.528L389.019 403.968V404H387.837L387.128 403.221C386.505 403.812 385.662 404.129 384.642 404.129ZM383.809 397.893C383.809 398.317 384.072 398.661 384.647 399.284C385.598 398.779 385.909 398.403 385.909 397.882V397.877C385.909 397.286 385.479 396.878 384.856 396.878C384.25 396.878 383.809 397.297 383.809 397.888V397.893ZM382.998 401.873C382.998 402.738 383.696 403.323 384.728 403.323C385.506 403.323 386.119 403.071 386.564 402.609L384.384 400.213L384.131 400.353C383.315 400.82 382.998 401.277 382.998 401.868V401.873ZM395.207 404.129C393.053 404.129 391.667 402.561 391.667 400.122V400.117C391.667 397.678 393.047 396.121 395.207 396.121C396.818 396.121 398.069 397.098 398.365 398.564L398.375 398.618H397.398L397.36 398.5C397.06 397.56 396.297 397.012 395.207 397.012C393.66 397.012 392.661 398.231 392.661 400.117V400.122C392.661 402.007 393.665 403.237 395.207 403.237C396.292 403.237 397.043 402.7 397.382 401.68L397.398 401.631H398.375L398.365 401.685C398.069 403.167 396.829 404.129 395.207 404.129ZM401.689 404.107C400.137 404.107 399.101 402.985 399.101 401.207V401.196C399.101 399.418 400.143 398.307 401.684 398.307C403.226 398.307 404.273 399.413 404.273 401.196V401.207C404.273 402.99 403.231 404.107 401.689 404.107ZM401.695 403.28C402.678 403.28 403.317 402.518 403.317 401.207V401.196C403.317 399.886 402.672 399.134 401.684 399.134C400.712 399.134 400.057 399.891 400.057 401.196V401.207C400.057 402.523 400.707 403.28 401.695 403.28ZM405.218 404V398.414H406.153V399.209H406.174C406.475 398.688 407.044 398.307 407.893 398.307C409.118 398.307 409.827 399.102 409.827 400.375V404H408.892V400.541C408.892 399.633 408.468 399.134 407.608 399.134C406.728 399.134 406.153 399.762 406.153 400.713V404H405.218ZM413.119 404.107C411.69 404.107 410.745 402.969 410.745 401.207V401.202C410.745 399.44 411.701 398.307 413.103 398.307C413.893 398.307 414.542 398.704 414.892 399.349H414.913V396.25H415.848V404H414.913V403.055H414.892C414.542 403.705 413.919 404.107 413.119 404.107ZM413.302 403.28C414.247 403.28 414.918 402.458 414.918 401.207V401.202C414.918 399.956 414.242 399.134 413.302 399.134C412.313 399.134 411.701 399.929 411.701 401.202V401.207C411.701 402.491 412.313 403.28 413.302 403.28ZM417.636 397.469C417.314 397.469 417.051 397.206 417.051 396.883C417.051 396.556 417.314 396.298 417.636 396.298C417.964 396.298 418.222 396.556 418.222 396.883C418.222 397.206 417.964 397.469 417.636 397.469ZM417.169 404V398.414H418.104V404H417.169ZM421.192 404.107C420.166 404.107 419.661 403.646 419.661 402.577V399.188H418.845V398.414H419.661V396.905H420.628V398.414H421.691V399.188H420.628V402.571C420.628 403.167 420.891 403.334 421.391 403.334C421.503 403.334 421.611 403.318 421.691 403.312V404.07C421.573 404.086 421.375 404.107 421.192 404.107ZM423.222 397.469C422.9 397.469 422.637 397.206 422.637 396.883C422.637 396.556 422.9 396.298 423.222 396.298C423.55 396.298 423.808 396.556 423.808 396.883C423.808 397.206 423.55 397.469 423.222 397.469ZM422.755 404V398.414H423.689V404H422.755ZM427.277 404.107C425.725 404.107 424.688 402.985 424.688 401.207V401.196C424.688 399.418 425.73 398.307 427.272 398.307C428.813 398.307 429.861 399.413 429.861 401.196V401.207C429.861 402.99 428.819 404.107 427.277 404.107ZM427.283 403.28C428.266 403.28 428.905 402.518 428.905 401.207V401.196C428.905 399.886 428.26 399.134 427.272 399.134C426.3 399.134 425.645 399.891 425.645 401.196V401.207C425.645 402.523 426.294 403.28 427.283 403.28ZM430.806 404V398.414H431.741V399.209H431.762C432.063 398.688 432.632 398.307 433.481 398.307C434.706 398.307 435.415 399.102 435.415 400.375V404H434.48V400.541C434.48 399.633 434.056 399.134 433.196 399.134C432.315 399.134 431.741 399.762 431.741 400.713V404H430.806Z" fill="white"/>
<rect x="240" y="358" width="196" height="1" rx="0.5" fill="url(#paint2_linear_2276_1077)"/>
<rect x="240" y="247.32" width="196" height="51.3202" rx="8" fill="white"/>
<path opacity="0.7" d="M259.402 264.98V262.573L257.417 259.387H258.212L259.739 261.899H259.762L261.29 259.387H262.084L260.1 262.573V264.98H259.402ZM263.553 265.058C262.433 265.058 261.685 264.248 261.685 262.965V262.957C261.685 261.674 262.437 260.872 263.549 260.872C264.662 260.872 265.418 261.67 265.418 262.957V262.965C265.418 264.252 264.666 265.058 263.553 265.058ZM263.557 264.461C264.266 264.461 264.728 263.911 264.728 262.965V262.957C264.728 262.011 264.263 261.469 263.549 261.469C262.848 261.469 262.375 262.015 262.375 262.957V262.965C262.375 263.915 262.844 264.461 263.557 264.461ZM267.476 265.058C266.592 265.058 266.08 264.484 266.08 263.566V260.949H266.755V263.446C266.755 264.101 267.061 264.461 267.681 264.461C268.317 264.461 268.732 264.008 268.732 263.321V260.949H269.406V264.98H268.732V264.407H268.716C268.499 264.783 268.088 265.058 267.476 265.058ZM274.364 265.073C272.802 265.073 271.802 263.938 271.802 262.155V262.151C271.802 260.403 272.802 259.294 274.364 259.294C275.651 259.294 276.422 260.034 276.682 261.023L276.701 261.097H275.969L275.953 261.054C275.693 260.345 275.151 259.938 274.364 259.938C273.213 259.938 272.515 260.771 272.515 262.151V262.155C272.515 263.562 273.224 264.43 274.364 264.43C275.356 264.43 276.038 263.787 276.038 262.849V262.748H274.461V262.135H276.736V262.666C276.736 264.178 275.856 265.073 274.364 265.073ZM279.186 265.058C278.027 265.058 277.329 264.248 277.329 262.98V262.976C277.329 261.728 278.042 260.872 279.143 260.872C280.244 260.872 280.915 261.69 280.915 262.899V263.147H278.011C278.027 263.977 278.484 264.461 279.201 264.461C279.713 264.461 280.074 264.205 280.19 263.86L280.201 263.825H280.864L280.856 263.864C280.725 264.531 280.066 265.058 279.186 265.058ZM279.139 261.469C278.554 261.469 278.097 261.868 278.023 262.62H280.229C280.163 261.837 279.729 261.469 279.139 261.469ZM282.907 265.058C282.167 265.058 281.802 264.725 281.802 263.953V261.507H281.213V260.949H281.802V259.86H282.5V260.949H283.267V261.507H282.5V263.949C282.5 264.38 282.69 264.5 283.05 264.5C283.132 264.5 283.209 264.488 283.267 264.484V265.031C283.182 265.042 283.039 265.058 282.907 265.058Z" fill="#17073C"/>
<path d="M261.075 284.9V283.835C259.375 283.733 258.151 282.826 258.05 281.361L258.043 281.272H259.521L259.534 281.342C259.648 281.976 260.092 282.465 261.075 282.566V280.01L260.72 279.934C259.071 279.566 258.208 278.811 258.208 277.498V277.485C258.208 276.046 259.382 275.081 261.075 274.974V273.908H261.76V274.974C263.403 275.088 264.519 276.001 264.634 277.422L264.64 277.523H263.162L263.156 277.466C263.061 276.775 262.547 276.344 261.76 276.249V278.703L262.147 278.786C263.866 279.173 264.748 279.877 264.748 281.234V281.247C264.748 282.82 263.473 283.733 261.76 283.835V284.9H261.075ZM259.737 277.384C259.737 277.942 260.105 278.329 261.075 278.551V276.242C260.194 276.337 259.737 276.832 259.737 277.378V277.384ZM263.226 281.374C263.226 280.777 262.896 280.422 261.76 280.162V282.572C262.794 282.496 263.226 282.014 263.226 281.386V281.374ZM271.116 283.98V276.388H271.078L268.712 278.012V276.509L271.103 274.828H272.721V283.98H271.116ZM274.23 285.852L274.731 282.49H276.26L275.334 285.852H274.23ZM277.662 283.98V282.864L280.897 279.712C282.095 278.538 282.356 278.075 282.356 277.397V277.384C282.349 276.566 281.734 275.982 280.852 275.982C279.837 275.982 279.127 276.661 279.108 277.542V277.587H277.573V277.542C277.573 275.868 278.981 274.669 280.84 274.669C282.673 274.669 283.954 275.779 283.954 277.289V277.301C283.954 278.38 283.453 279.109 281.842 280.657L279.825 282.572V282.642H284.093V283.98H277.662ZM288.743 284.139C286.65 284.139 285.191 283.048 285.191 281.488V281.475C285.191 280.314 286.034 279.414 287.246 279.166V279.128C286.206 278.849 285.521 278.088 285.521 277.111V277.098C285.521 275.697 286.859 274.669 288.743 274.669C290.633 274.669 291.965 275.697 291.965 277.098V277.111C291.965 278.088 291.28 278.849 290.24 279.128V279.166C291.451 279.414 292.301 280.314 292.301 281.475V281.488C292.301 283.048 290.836 284.139 288.743 284.139ZM288.743 278.608C289.694 278.608 290.348 278.056 290.348 277.263V277.251C290.348 276.458 289.688 275.906 288.743 275.906C287.798 275.906 287.138 276.458 287.138 277.251V277.263C287.138 278.056 287.791 278.608 288.743 278.608ZM288.743 282.889C289.84 282.889 290.614 282.262 290.614 281.386V281.374C290.614 280.492 289.846 279.858 288.743 279.858C287.639 279.858 286.872 280.492 286.872 281.374V281.386C286.872 282.262 287.652 282.889 288.743 282.889ZM294.014 283.98L298.029 276.198V276.166H293.272V274.828H299.64V276.191L295.726 283.98H294.014ZM300.483 284.082C299.97 284.082 299.564 283.676 299.564 283.162C299.564 282.655 299.97 282.249 300.483 282.249C300.997 282.249 301.397 282.655 301.397 283.162C301.397 283.676 300.997 284.082 300.483 284.082ZM306.002 284.139C303.756 284.139 302.405 282.319 302.405 279.407V279.395C302.405 276.483 303.756 274.669 306.002 274.669C308.241 274.669 309.598 276.483 309.598 279.395V279.407C309.598 282.319 308.241 284.139 306.002 284.139ZM306.002 282.801C307.232 282.801 307.949 281.519 307.949 279.407V279.395C307.949 277.282 307.232 276.014 306.002 276.014C304.765 276.014 304.054 277.282 304.054 279.395V279.407C304.054 281.519 304.765 282.801 306.002 282.801ZM314.285 284.139C312.04 284.139 310.689 282.319 310.689 279.407V279.395C310.689 276.483 312.04 274.669 314.285 274.669C316.524 274.669 317.882 276.483 317.882 279.395V279.407C317.882 282.319 316.524 284.139 314.285 284.139ZM314.285 282.801C315.516 282.801 316.233 281.519 316.233 279.407V279.395C316.233 277.282 315.516 276.014 314.285 276.014C313.049 276.014 312.338 277.282 312.338 279.395V279.407C312.338 281.519 313.049 282.801 314.285 282.801Z" fill="#17073C"/>
<path d="M401.876 277.104C400.07 277.104 398.946 276.043 398.946 274.469V269.862H400.218V274.366C400.218 275.352 400.82 275.999 401.876 275.999C402.932 275.999 403.529 275.352 403.529 274.366V269.862H404.796V274.469C404.796 276.043 403.686 277.104 401.876 277.104ZM408.561 277.104C406.928 277.104 405.852 276.334 405.768 275.056L405.763 274.982H406.982L406.992 275.042C407.086 275.653 407.712 276.033 408.605 276.033C409.503 276.033 410.065 275.634 410.065 275.022V275.017C410.065 274.484 409.695 274.198 408.778 274.006L408.013 273.848C406.612 273.557 405.921 272.906 405.921 271.845V271.84C405.926 270.587 407.026 269.738 408.561 269.738C410.115 269.738 411.131 270.557 411.205 271.776L411.21 271.86H409.991L409.981 271.8C409.898 271.179 409.35 270.809 408.551 270.809C407.717 270.814 407.199 271.204 407.199 271.771V271.776C407.199 272.279 407.589 272.575 408.447 272.753L409.217 272.91C410.697 273.216 411.343 273.818 411.343 274.928V274.933C411.343 276.26 410.297 277.104 408.561 277.104ZM412.295 276.98V269.862H414.895C417.016 269.862 418.279 271.144 418.279 273.394V273.404C418.279 275.658 417.026 276.98 414.895 276.98H412.295ZM413.568 275.905H414.762C416.192 275.905 416.982 275.032 416.982 273.409V273.399C416.982 271.81 416.178 270.937 414.762 270.937H413.568V275.905Z" fill="#17073C"/>
<rect x="240" y="434.32" width="196" height="33.3202" rx="8" fill="white"/>
<path d="M293.751 454.98V448.932H291.619V447.862H297.145V448.932H295.019V454.98H293.751ZM298.186 455.069C297.14 455.069 296.434 454.423 296.434 453.491V453.481C296.434 452.553 297.155 451.996 298.423 451.917L299.789 451.833V451.473C299.789 450.945 299.444 450.624 298.822 450.624C298.24 450.624 297.885 450.896 297.806 451.28L297.796 451.325H296.656L296.661 451.266C296.735 450.338 297.539 449.643 298.867 449.643C300.174 449.643 301.017 450.333 301.017 451.384V454.98H299.789V454.176H299.759C299.459 454.724 298.876 455.069 298.186 455.069ZM297.658 453.441C297.658 453.87 298.013 454.132 298.551 454.132C299.256 454.132 299.789 453.663 299.789 453.042V452.647L298.595 452.721C297.988 452.76 297.658 453.022 297.658 453.436V453.441ZM302.063 454.98V447.862H303.292V451.922H303.316L305.27 449.751H306.691L304.619 452.001L306.775 454.98H305.359L303.706 452.731L303.292 453.165V454.98H302.063ZM309.3 455.084C307.732 455.084 306.785 454.043 306.785 452.381V452.376C306.785 450.728 307.746 449.643 309.241 449.643C310.736 449.643 311.664 450.693 311.664 452.272V452.667H308.003C308.023 453.584 308.526 454.127 309.325 454.127C309.937 454.127 310.336 453.801 310.455 453.451L310.465 453.417H311.614L311.599 453.471C311.437 454.275 310.667 455.084 309.3 455.084ZM309.256 450.605C308.605 450.605 308.116 451.044 308.018 451.848H310.47C310.381 451.019 309.907 450.605 309.256 450.605ZM314.604 454.98V447.862H317.204C319.325 447.862 320.588 449.144 320.588 451.394V451.404C320.588 453.658 319.335 454.98 317.204 454.98H314.604ZM315.877 453.905H317.07C318.501 453.905 319.29 453.032 319.29 451.409V451.399C319.29 449.81 318.486 448.937 317.07 448.937H315.877V453.905ZM323.79 455.084C322.25 455.084 321.259 454.058 321.259 452.366V452.356C321.259 450.679 322.265 449.643 323.785 449.643C325.309 449.643 326.32 450.669 326.32 452.356V452.366C326.32 454.063 325.324 455.084 323.79 455.084ZM323.795 454.092C324.569 454.092 325.067 453.461 325.067 452.366V452.356C325.067 451.266 324.564 450.639 323.785 450.639C323.02 450.639 322.512 451.271 322.512 452.356V452.366C322.512 453.466 323.01 454.092 323.795 454.092ZM328.101 454.98L326.686 449.751H327.919L328.802 453.767H328.827L329.848 449.751H331.027L332.048 453.767H332.078L332.961 449.751H334.174L332.758 454.98H331.466L330.435 451.157H330.41L329.384 454.98H328.101ZM334.786 454.98V449.751H336.014V450.57H336.039C336.31 450.008 336.843 449.643 337.638 449.643C338.787 449.643 339.443 450.383 339.443 451.596V454.98H338.215V451.843C338.215 451.098 337.869 450.679 337.169 450.679C336.463 450.679 336.014 451.192 336.014 451.946V454.98H334.786ZM342.576 454.98V447.862H345.319C346.759 447.862 347.741 448.814 347.741 450.24V450.249C347.741 451.67 346.759 452.627 345.319 452.627H343.849V454.98H342.576ZM345.003 448.903H343.849V451.601H345.003C345.916 451.601 346.448 451.108 346.448 450.254V450.244C346.448 449.391 345.916 448.903 345.003 448.903ZM349.709 455.069C348.663 455.069 347.958 454.423 347.958 453.491V453.481C347.958 452.553 348.678 451.996 349.946 451.917L351.313 451.833V451.473C351.313 450.945 350.967 450.624 350.346 450.624C349.764 450.624 349.408 450.896 349.329 451.28L349.32 451.325H348.18L348.185 451.266C348.259 450.338 349.063 449.643 350.39 449.643C351.697 449.643 352.541 450.333 352.541 451.384V454.98H351.313V454.176H351.283C350.982 454.724 350.4 455.069 349.709 455.069ZM349.181 453.441C349.181 453.87 349.537 454.132 350.074 454.132C350.78 454.132 351.313 453.663 351.313 453.042V452.647L350.119 452.721C349.512 452.76 349.181 453.022 349.181 453.436V453.441ZM354.213 456.717C353.977 456.717 353.73 456.687 353.582 456.663V455.725C353.676 455.745 353.819 455.77 353.991 455.77C354.46 455.77 354.722 455.637 354.879 455.198L354.953 454.985L353.074 449.751H354.416L355.639 453.935H355.674L356.902 449.751H358.195L356.315 455.158C355.915 456.308 355.304 456.717 354.213 456.717ZM358.762 454.98V449.751H359.99V450.59H360.015C360.237 450.018 360.775 449.643 361.465 449.643C362.196 449.643 362.723 450.027 362.916 450.698H362.945C363.197 450.047 363.819 449.643 364.573 449.643C365.605 449.643 366.28 450.343 366.28 451.389V454.98H365.052V451.695C365.052 451.049 364.717 450.679 364.115 450.679C363.523 450.679 363.118 451.118 363.118 451.749V454.98H361.924V451.631C361.924 451.044 361.569 450.679 360.997 450.679C360.405 450.679 359.99 451.142 359.99 451.779V454.98H358.762ZM369.566 455.084C367.997 455.084 367.05 454.043 367.05 452.381V452.376C367.05 450.728 368.012 449.643 369.507 449.643C371.002 449.643 371.929 450.693 371.929 452.272V452.667H368.269C368.288 453.584 368.791 454.127 369.591 454.127C370.202 454.127 370.602 453.801 370.72 453.451L370.73 453.417H371.88L371.865 453.471C371.702 454.275 370.933 455.084 369.566 455.084ZM369.522 450.605C368.87 450.605 368.382 451.044 368.283 451.848H370.735C370.646 451.019 370.173 450.605 369.522 450.605ZM372.723 454.98V449.751H373.952V450.57H373.976C374.248 450.008 374.781 449.643 375.575 449.643C376.724 449.643 377.38 450.383 377.38 451.596V454.98H376.152V451.843C376.152 451.098 375.807 450.679 375.106 450.679C374.401 450.679 373.952 451.192 373.952 451.946V454.98H372.723ZM380.311 455.084C379.216 455.084 378.698 454.64 378.698 453.565V450.698H377.958V449.751H378.698V448.424H379.946V449.751H380.918V450.698H379.946V453.461C379.946 453.974 380.173 454.137 380.622 454.137C380.74 454.137 380.834 454.122 380.918 454.117V455.04C380.774 455.059 380.557 455.084 380.311 455.084Z" fill="#17073C"/>
<rect x="240" y="172" width="196" height="51.3202" rx="8" fill="white"/>
<path opacity="0.7" d="M259.402 189.66V187.253L257.417 184.067H258.212L259.739 186.579H259.762L261.29 184.067H262.084L260.1 187.253V189.66H259.402ZM263.553 189.738C262.433 189.738 261.685 188.928 261.685 187.645V187.637C261.685 186.354 262.437 185.551 263.549 185.551C264.662 185.551 265.418 186.35 265.418 187.637V187.645C265.418 188.931 264.666 189.738 263.553 189.738ZM263.557 189.141C264.266 189.141 264.728 188.59 264.728 187.645V187.637C264.728 186.691 264.263 186.148 263.549 186.148C262.848 186.148 262.375 186.695 262.375 187.637V187.645C262.375 188.594 262.844 189.141 263.557 189.141ZM267.476 189.738C266.592 189.738 266.08 189.164 266.08 188.245V185.629H266.755V188.125C266.755 188.78 267.061 189.141 267.681 189.141C268.317 189.141 268.732 188.687 268.732 188.001V185.629H269.406V189.66H268.732V189.086H268.716C268.499 189.462 268.088 189.738 267.476 189.738ZM270.286 189.66V185.629H270.961V186.311H270.976C271.112 185.846 271.461 185.551 271.914 185.551C272.03 185.551 272.131 185.571 272.185 185.579V186.234C272.131 186.214 271.988 186.195 271.825 186.195C271.302 186.195 270.961 186.559 270.961 187.172V189.66H270.286ZM274.469 189.66V184.067H276.589C277.546 184.067 278.194 184.625 278.194 185.462V185.47C278.194 186.048 277.759 186.61 277.182 186.691V186.707C277.988 186.8 278.477 187.342 278.477 188.083V188.09C278.477 189.075 277.771 189.66 276.581 189.66H274.469ZM276.43 184.683H275.166V186.478H276.213C277.038 186.478 277.488 186.148 277.488 185.544V185.536C277.488 184.985 277.104 184.683 276.43 184.683ZM276.411 187.079H275.166V189.044H276.476C277.314 189.044 277.759 188.707 277.759 188.063V188.055C277.759 187.408 277.302 187.079 276.411 187.079ZM280.341 189.738C279.539 189.738 279 189.253 279 188.521V188.513C279 187.827 279.535 187.396 280.461 187.342L281.616 187.276V186.939C281.616 186.447 281.295 186.148 280.732 186.148C280.213 186.148 279.887 186.396 279.81 186.757L279.802 186.792H279.151L279.155 186.749C279.213 186.086 279.791 185.551 280.74 185.551C281.694 185.551 282.291 186.067 282.291 186.873V189.66H281.616V189.005H281.601C281.364 189.447 280.88 189.738 280.341 189.738ZM279.69 188.521C279.69 188.908 280.008 189.152 280.492 189.152C281.128 189.152 281.616 188.714 281.616 188.129V187.8L280.539 187.865C280 187.896 279.69 188.137 279.69 188.513V188.521ZM283.182 189.66V184.067H283.857V189.66H283.182ZM285.946 189.738C285.144 189.738 284.605 189.253 284.605 188.521V188.513C284.605 187.827 285.14 187.396 286.066 187.342L287.221 187.276V186.939C287.221 186.447 286.899 186.148 286.337 186.148C285.818 186.148 285.492 186.396 285.415 186.757L285.407 186.792H284.756L284.76 186.749C284.818 186.086 285.396 185.551 286.345 185.551C287.299 185.551 287.896 186.067 287.896 186.873V189.66H287.221V189.005H287.206C286.969 189.447 286.485 189.738 285.946 189.738ZM285.295 188.521C285.295 188.908 285.613 189.152 286.097 189.152C286.733 189.152 287.221 188.714 287.221 188.129V187.8L286.144 187.865C285.605 187.896 285.295 188.137 285.295 188.513V188.521ZM288.752 189.66V185.629H289.427V186.203H289.442C289.659 185.827 290.07 185.551 290.683 185.551C291.566 185.551 292.078 186.125 292.078 187.044V189.66H291.404V187.164C291.404 186.509 291.097 186.148 290.477 186.148C289.841 186.148 289.427 186.602 289.427 187.288V189.66H288.752ZM294.609 189.738C293.466 189.738 292.741 188.924 292.741 187.641V187.637C292.741 186.365 293.481 185.551 294.601 185.551C295.605 185.551 296.198 186.218 296.284 186.908L296.288 186.939H295.629L295.621 186.908C295.52 186.505 295.195 186.148 294.601 186.148C293.9 186.148 293.431 186.73 293.431 187.645V187.648C293.431 188.586 293.911 189.141 294.609 189.141C295.16 189.141 295.512 188.831 295.625 188.381L295.633 188.35H296.295L296.291 188.377C296.183 189.145 295.52 189.738 294.609 189.738ZM298.575 189.738C297.416 189.738 296.718 188.928 296.718 187.66V187.656C296.718 186.408 297.431 185.551 298.532 185.551C299.633 185.551 300.303 186.369 300.303 187.579V187.827H297.4C297.416 188.656 297.873 189.141 298.59 189.141C299.102 189.141 299.462 188.885 299.578 188.54L299.59 188.505H300.253L300.245 188.544C300.113 189.211 299.454 189.738 298.575 189.738ZM298.528 186.148C297.943 186.148 297.485 186.548 297.412 187.3H299.617C299.551 186.517 299.117 186.148 298.528 186.148Z" fill="#17073C"/>
<path d="M261.462 208.819C259.217 208.819 257.866 206.998 257.866 204.087V204.074C257.866 201.163 259.217 199.349 261.462 199.349C263.701 199.349 265.059 201.163 265.059 204.074V204.087C265.059 206.998 263.701 208.819 261.462 208.819ZM261.462 207.48C262.693 207.48 263.409 206.199 263.409 204.087V204.074C263.409 201.962 262.693 200.694 261.462 200.694C260.225 200.694 259.515 201.962 259.515 204.074V204.087C259.515 206.199 260.225 207.48 261.462 207.48ZM265.566 210.531L266.067 207.17H267.596L266.67 210.531H265.566ZM272.334 208.819C270.088 208.819 268.737 206.998 268.737 204.087V204.074C268.737 201.163 270.088 199.349 272.334 199.349C274.573 199.349 275.93 201.163 275.93 204.074V204.087C275.93 206.998 274.573 208.819 272.334 208.819ZM272.334 207.48C273.564 207.48 274.281 206.199 274.281 204.087V204.074C274.281 201.962 273.564 200.694 272.334 200.694C271.097 200.694 270.387 201.962 270.387 204.074V204.087C270.387 206.199 271.097 207.48 272.334 207.48ZM277.066 208.66V207.544L280.3 204.391C281.499 203.218 281.759 202.755 281.759 202.076V202.064C281.753 201.245 281.138 200.662 280.256 200.662C279.241 200.662 278.531 201.341 278.512 202.222V202.267H276.977V202.222C276.977 200.548 278.385 199.349 280.243 199.349C282.076 199.349 283.358 200.459 283.358 201.968V201.981C283.358 203.059 282.857 203.789 281.246 205.337L279.229 207.252V207.322H283.497V208.66H277.066ZM288.147 208.819C286.053 208.819 284.595 207.728 284.595 206.167V206.155C284.595 204.994 285.438 204.093 286.65 203.846V203.808C285.609 203.529 284.924 202.768 284.924 201.791V201.778C284.924 200.376 286.263 199.349 288.147 199.349C290.037 199.349 291.369 200.376 291.369 201.778V201.791C291.369 202.768 290.684 203.529 289.643 203.808V203.846C290.855 204.093 291.705 204.994 291.705 206.155V206.167C291.705 207.728 290.24 208.819 288.147 208.819ZM288.147 203.288C289.098 203.288 289.751 202.736 289.751 201.943V201.93C289.751 201.138 289.092 200.586 288.147 200.586C287.201 200.586 286.542 201.138 286.542 201.93V201.943C286.542 202.736 287.195 203.288 288.147 203.288ZM288.147 207.569C289.244 207.569 290.018 206.941 290.018 206.066V206.053C290.018 205.172 289.25 204.537 288.147 204.537C287.043 204.537 286.275 205.172 286.275 206.053V206.066C286.275 206.941 287.056 207.569 288.147 207.569ZM293.417 208.66L297.432 200.877V200.846H292.675V199.507H299.044V200.871L295.13 208.66H293.417Z" fill="#17073C"/>
<path d="M400.258 201.66V194.541H403.213C404.51 194.541 405.344 195.242 405.344 196.322V196.332C405.344 197.097 404.767 197.783 404.002 197.886V197.911C405.004 198 405.684 198.7 405.684 199.637V199.647C405.684 200.891 404.762 201.66 403.242 201.66H400.258ZM402.892 195.533H401.531V197.551H402.675C403.593 197.551 404.086 197.176 404.086 196.505V196.495C404.086 195.878 403.647 195.533 402.892 195.533ZM402.877 198.473H401.531V200.669H402.951C403.884 200.669 404.387 200.289 404.387 199.573V199.563C404.387 198.848 403.874 198.473 402.877 198.473ZM408.334 201.66V195.612H406.202V194.541H411.728V195.612H409.602V201.66H408.334ZM415.285 201.783C413.237 201.783 411.945 200.373 411.945 198.098V198.093C411.945 195.819 413.242 194.418 415.285 194.418C416.923 194.418 418.126 195.439 418.314 196.89L418.319 196.939H417.071L417.046 196.845C416.839 196.031 416.212 195.523 415.285 195.523C414.042 195.523 413.247 196.515 413.247 198.093V198.098C413.247 199.682 414.046 200.678 415.285 200.678C416.192 200.678 416.829 200.19 417.061 199.312L417.076 199.263H418.324L418.314 199.312C418.131 200.772 416.923 201.783 415.285 201.783Z" fill="#17073C"/>
<g filter="url(#filter2_f_2276_1077)">
<rect x="76" y="267" width="254" height="54" fill="#151515" fill-opacity="0.4"/>
</g>
<g filter="url(#filter3_f_2276_1077)">
<rect x="76" y="383" width="254" height="54" fill="#151515" fill-opacity="0.4"/>
</g>
<rect x="70" y="283" width="264" height="142" rx="20" fill="url(#paint3_linear_2276_1077)"/>
<g clip-path="url(#clip0_2276_1077)">
<path d="M292.5 321.166L297.5 316.166L300.833 319.5L307.5 312.833" stroke="white" stroke-width="1.25" stroke-linecap="round" stroke-linejoin="round"/>
<path d="M301.668 312.833H307.501V318.666" stroke="white" stroke-width="1.25" stroke-linecap="round" stroke-linejoin="round"/>
</g>
<path d="M101.516 367.841V365.708C98.1133 365.505 95.6631 363.689 95.46 360.757L95.4473 360.579H98.4053L98.4307 360.719C98.6592 361.988 99.5479 362.966 101.516 363.169V358.053L100.805 357.9C97.5039 357.164 95.7773 355.653 95.7773 353.025V353C95.7773 350.118 98.126 348.188 101.516 347.973V345.84H102.887V347.973C106.175 348.201 108.409 350.029 108.638 352.873L108.65 353.076H105.692L105.68 352.962C105.489 351.578 104.461 350.715 102.887 350.524V355.438L103.661 355.603C107.102 356.377 108.866 357.786 108.866 360.503V360.528C108.866 363.677 106.314 365.505 102.887 365.708V367.841H101.516ZM98.8369 352.797C98.8369 353.914 99.5732 354.688 101.516 355.133V350.512C99.751 350.702 98.8369 351.692 98.8369 352.784V352.797ZM105.819 360.782C105.819 359.589 105.159 358.878 102.887 358.357V363.182C104.956 363.029 105.819 362.064 105.819 360.808V360.782ZM116.537 366V350.804H116.461L111.726 354.054V351.045L116.512 347.681H119.749V366H116.537ZM130.924 347.363C134.961 347.363 138.325 350.194 138.325 356.618V356.644C138.325 362.699 135.52 366.317 130.848 366.317C127.458 366.317 124.919 364.362 124.348 361.595L124.323 361.455H127.573L127.611 361.569C128.106 362.826 129.223 363.639 130.861 363.639C133.806 363.639 135.037 360.82 135.164 357.354C135.177 357.164 135.19 356.974 135.19 356.771H135.114C134.39 358.446 132.562 359.716 130.086 359.716C126.557 359.716 124.069 357.177 124.069 353.736V353.711C124.069 350.017 126.976 347.363 130.924 347.363ZM130.924 357.189C133.019 357.189 134.618 355.717 134.618 353.673V353.66C134.618 351.629 133.019 350.042 130.962 350.042C128.931 350.042 127.293 351.616 127.293 353.597V353.622C127.293 355.704 128.842 357.189 130.924 357.189ZM141.959 366.203C140.931 366.203 140.119 365.391 140.119 364.362C140.119 363.347 140.931 362.534 141.959 362.534C142.988 362.534 143.787 363.347 143.787 364.362C143.787 365.391 142.988 366.203 141.959 366.203ZM153.274 347.363C157.311 347.363 160.675 350.194 160.675 356.618V356.644C160.675 362.699 157.87 366.317 153.198 366.317C149.808 366.317 147.269 364.362 146.698 361.595L146.672 361.455H149.922L149.96 361.569C150.456 362.826 151.573 363.639 153.21 363.639C156.156 363.639 157.387 360.82 157.514 357.354C157.527 357.164 157.54 356.974 157.54 356.771H157.463C156.74 358.446 154.912 359.716 152.436 359.716C148.907 359.716 146.418 357.177 146.418 353.736V353.711C146.418 350.017 149.326 347.363 153.274 347.363ZM153.274 357.189C155.369 357.189 156.968 355.717 156.968 353.673V353.66C156.968 351.629 155.369 350.042 153.312 350.042C151.281 350.042 149.643 351.616 149.643 353.597V353.622C149.643 355.704 151.192 357.189 153.274 357.189ZM170.086 366.317C165.896 366.317 162.976 364.134 162.976 361.011V360.985C162.976 358.662 164.665 356.859 167.089 356.364V356.288C165.007 355.729 163.636 354.206 163.636 352.251V352.226C163.636 349.42 166.315 347.363 170.086 347.363C173.869 347.363 176.535 349.42 176.535 352.226V352.251C176.535 354.206 175.164 355.729 173.082 356.288V356.364C175.506 356.859 177.208 358.662 177.208 360.985V361.011C177.208 364.134 174.275 366.317 170.086 366.317ZM170.086 355.247C171.99 355.247 173.297 354.143 173.297 352.556V352.53C173.297 350.943 171.977 349.839 170.086 349.839C168.194 349.839 166.874 350.943 166.874 352.53V352.556C166.874 354.143 168.181 355.247 170.086 355.247ZM170.086 363.816C172.282 363.816 173.831 362.56 173.831 360.808V360.782C173.831 359.018 172.295 357.748 170.086 357.748C167.877 357.748 166.34 359.018 166.34 360.782V360.808C166.34 362.56 167.902 363.816 170.086 363.816ZM180.765 366L188.801 350.423V350.359H179.28V347.681H192.026V350.41L184.193 366H180.765ZM193.845 366.203C192.816 366.203 192.004 365.391 192.004 364.362C192.004 363.347 192.816 362.534 193.845 362.534C194.873 362.534 195.673 363.347 195.673 364.362C195.673 365.391 194.873 366.203 193.845 366.203ZM205.019 366.317C200.525 366.317 197.821 362.674 197.821 356.847V356.821C197.821 350.994 200.525 347.363 205.019 347.363C209.501 347.363 212.218 350.994 212.218 356.821V356.847C212.218 362.674 209.501 366.317 205.019 366.317ZM205.019 363.639C207.482 363.639 208.917 361.074 208.917 356.847V356.821C208.917 352.594 207.482 350.055 205.019 350.055C202.544 350.055 201.122 352.594 201.122 356.821V356.847C201.122 361.074 202.544 363.639 205.019 363.639ZM221.73 366.317C217.235 366.317 214.531 362.674 214.531 356.847V356.821C214.531 350.994 217.235 347.363 221.73 347.363C226.211 347.363 228.928 350.994 228.928 356.821V356.847C228.928 362.674 226.211 366.317 221.73 366.317ZM221.73 363.639C224.192 363.639 225.627 361.074 225.627 356.847V356.821C225.627 352.594 224.192 350.055 221.73 350.055C219.254 350.055 217.832 352.594 217.832 356.821V356.847C217.832 361.074 219.254 363.639 221.73 363.639Z" fill="white"/>
<path opacity="0.6" d="M94.7656 390.555V389.447H97.6777V386.617H98.7852V389.447H101.704V390.555H98.7852V393.385H97.6777V390.555H94.7656ZM106.771 394.164C104.502 394.164 103.155 392.202 103.155 389.071V389.058C103.155 385.927 104.502 383.972 106.771 383.972C109.041 383.972 110.401 385.927 110.401 389.058V389.071C110.401 392.202 109.041 394.164 106.771 394.164ZM106.771 393.091C108.275 393.091 109.164 391.546 109.164 389.071V389.058C109.164 386.583 108.275 385.052 106.771 385.052C105.267 385.052 104.392 386.583 104.392 389.058V389.071C104.392 391.546 105.267 393.091 106.771 393.091ZM112.324 394.096C111.886 394.096 111.544 393.754 111.544 393.316C111.544 392.879 111.886 392.537 112.324 392.537C112.761 392.537 113.103 392.879 113.103 393.316C113.103 393.754 112.761 394.096 112.324 394.096ZM118.095 394.164C116.003 394.164 114.513 392.988 114.513 391.334V391.32C114.513 390.104 115.367 389.092 116.632 388.798V388.771C115.552 388.436 114.868 387.615 114.868 386.576V386.562C114.868 385.072 116.229 383.972 118.095 383.972C119.961 383.972 121.321 385.072 121.321 386.562V386.576C121.321 387.615 120.638 388.436 119.558 388.771V388.798C120.822 389.092 121.677 390.104 121.677 391.32V391.334C121.677 392.988 120.187 394.164 118.095 394.164ZM118.095 388.312C119.284 388.312 120.098 387.636 120.098 386.679V386.665C120.098 385.708 119.284 385.031 118.095 385.031C116.905 385.031 116.092 385.708 116.092 386.665V386.679C116.092 387.636 116.905 388.312 118.095 388.312ZM118.095 393.091C119.455 393.091 120.426 392.325 120.426 391.259V391.245C120.426 390.165 119.462 389.393 118.095 389.393C116.728 389.393 115.764 390.165 115.764 391.245V391.259C115.764 392.325 116.734 393.091 118.095 393.091ZM124.98 389.003C123.736 389.003 122.984 388.053 122.984 386.528V386.521C122.984 385.004 123.736 384.054 124.98 384.054C126.224 384.054 126.976 385.004 126.976 386.521V386.528C126.976 388.053 126.224 389.003 124.98 389.003ZM125.425 394H124.303L130.634 384.136H131.741L125.425 394ZM124.98 388.183C125.643 388.183 126.026 387.567 126.026 386.528V386.521C126.026 385.482 125.643 384.874 124.98 384.874C124.317 384.874 123.934 385.482 123.934 386.521V386.528C123.934 387.567 124.317 388.183 124.98 388.183ZM131.057 394.082C129.813 394.082 129.061 393.132 129.061 391.607V391.601C129.061 390.083 129.813 389.133 131.057 389.133C132.301 389.133 133.053 390.083 133.053 391.601V391.607C133.053 393.132 132.301 394.082 131.057 394.082ZM131.057 393.262C131.72 393.262 132.103 392.646 132.103 391.607V391.601C132.103 390.562 131.72 389.953 131.057 389.953C130.394 389.953 130.011 390.562 130.011 391.601V391.607C130.011 392.646 130.394 393.262 131.057 393.262Z" fill="white"/>
<path d="M122.957 322V312.136H126.272C129.191 312.136 130.928 313.954 130.928 317.051V317.064C130.928 320.175 129.205 322 126.272 322H122.957ZM124.188 320.893H126.19C128.426 320.893 129.67 319.525 129.67 317.078V317.064C129.67 314.604 128.426 313.243 126.19 313.243H124.188V320.893ZM136.699 322.164C133.896 322.164 132.146 320.202 132.146 317.071V317.058C132.146 313.934 133.903 311.972 136.699 311.972C139.488 311.972 141.238 313.934 141.238 317.058V317.071C141.238 320.202 139.495 322.164 136.699 322.164ZM136.699 321.029C138.729 321.029 139.98 319.478 139.98 317.071V317.058C139.98 314.638 138.709 313.106 136.699 313.106C134.682 313.106 133.404 314.631 133.404 317.058V317.071C133.404 319.498 134.675 321.029 136.699 321.029ZM146.975 322.164C144.22 322.164 142.456 320.161 142.456 317.017V317.01C142.456 313.927 144.22 311.972 146.975 311.972C149.244 311.972 150.605 313.277 151.063 315.021L151.097 315.15H149.805L149.778 315.075C149.32 313.824 148.363 313.106 146.975 313.106C144.945 313.106 143.714 314.576 143.714 317.01V317.017C143.714 319.498 144.965 321.029 146.975 321.029C148.725 321.029 149.928 319.895 149.928 318.24V318.062H147.146V316.982H151.159V317.919C151.159 320.585 149.607 322.164 146.975 322.164ZM152.808 322V312.136H158.919V313.243H154.038V316.408H158.666V317.502H154.038V320.893H158.919V322H152.808ZM167.679 322.164C164.938 322.164 163.174 320.168 163.174 317.064V317.058C163.174 313.954 164.931 311.972 167.679 311.972C169.73 311.972 171.323 313.216 171.699 315.082L171.712 315.15H170.468L170.42 315C170.037 313.804 169.067 313.106 167.679 313.106C165.71 313.106 164.439 314.658 164.439 317.058V317.064C164.439 319.464 165.717 321.029 167.679 321.029C169.06 321.029 170.017 320.346 170.448 319.047L170.468 318.985H171.712L171.699 319.054C171.323 320.94 169.744 322.164 167.679 322.164ZM177.408 322.164C174.606 322.164 172.856 320.202 172.856 317.071V317.058C172.856 313.934 174.612 311.972 177.408 311.972C180.197 311.972 181.947 313.934 181.947 317.058V317.071C181.947 320.202 180.204 322.164 177.408 322.164ZM177.408 321.029C179.439 321.029 180.69 319.478 180.69 317.071V317.058C180.69 314.638 179.418 313.106 177.408 313.106C175.392 313.106 174.113 314.631 174.113 317.058V317.071C174.113 319.498 175.385 321.029 177.408 321.029ZM183.549 322V312.136H184.779V322H183.549ZM186.763 322V312.136H187.959L193.387 319.922H193.421V312.136H194.638V322H193.442L188.014 314.214H187.98V322H186.763Z" fill="white"/>
<rect x="94" y="307" width="20" height="20" rx="4" fill="#0A0A15"/>
<path fill-rule="evenodd" clip-rule="evenodd" d="M104.166 312.989H101.435V316.616H99.7695V317.824H101.435V321.451H104.166C105.607 321.451 105.917 321.3 106.539 320.998C106.587 320.975 106.637 320.95 106.689 320.925C107.42 320.574 107.988 320.081 108.393 319.444C108.798 318.808 109 318.066 109 317.22C109 316.374 108.798 315.632 108.393 314.996C107.988 314.359 107.42 313.866 106.689 313.515C105.959 313.165 105.118 312.989 104.166 312.989ZM103.464 317.824V319.843H104.066C104.942 319.843 105.642 319.607 106.163 319.136C106.685 318.665 106.946 318.026 106.946 317.22C106.946 316.414 106.685 315.776 106.163 315.304C105.642 314.833 104.942 314.597 104.066 314.597H103.464V316.616H105.406V317.824H103.464Z" fill="#E42DDD"/>
<defs>
<filter id="filter0_f_2276_1077" x="149" y="117" width="126" height="386" filterUnits="userSpaceOnUse" color-interpolation-filters="sRGB">
<feFlood flood-opacity="0" result="BackgroundImageFix"/>
<feBlend mode="normal" in="SourceGraphic" in2="BackgroundImageFix" result="shape"/>
<feGaussianBlur stdDeviation="22" result="effect1_foregroundBlur_2276_1077"/>
</filter>
<filter id="filter1_f_2276_1077" x="53" y="265" width="86" height="163" filterUnits="userSpaceOnUse" color-interpolation-filters="sRGB">
<feFlood flood-opacity="0" result="BackgroundImageFix"/>
<feBlend mode="normal" in="SourceGraphic" in2="BackgroundImageFix" result="shape"/>
<feGaussianBlur stdDeviation="12" result="effect1_foregroundBlur_2276_1077"/>
</filter>
<filter id="filter2_f_2276_1077" x="32" y="223" width="342" height="142" filterUnits="userSpaceOnUse" color-interpolation-filters="sRGB">
<feFlood flood-opacity="0" result="BackgroundImageFix"/>
<feBlend mode="normal" in="SourceGraphic" in2="BackgroundImageFix" result="shape"/>
<feGaussianBlur stdDeviation="22" result="effect1_foregroundBlur_2276_1077"/>
</filter>
<filter id="filter3_f_2276_1077" x="32" y="339" width="342" height="142" filterUnits="userSpaceOnUse" color-interpolation-filters="sRGB">
<feFlood flood-opacity="0" result="BackgroundImageFix"/>
<feBlend mode="normal" in="SourceGraphic" in2="BackgroundImageFix" result="shape"/>
<feGaussianBlur stdDeviation="22" result="effect1_foregroundBlur_2276_1077"/>
</filter>
<linearGradient id="paint0_linear_2276_1077" x1="196.812" y1="121.086" x2="402.517" y2="572.808" gradientUnits="userSpaceOnUse">
<stop stop-color="#383838"/>
<stop offset="0.460414" stop-color="#151515"/>
<stop offset="1" stop-color="#383838" stop-opacity="0.4"/>
</linearGradient>
<linearGradient id="paint1_linear_2276_1077" x1="338" y1="134" x2="338" y2="512.03" gradientUnits="userSpaceOnUse">
<stop stop-color="white" stop-opacity="0.3"/>
<stop offset="1" stop-color="white" stop-opacity="0"/>
</linearGradient>
<linearGradient id="paint2_linear_2276_1077" x1="436" y1="358.49" x2="240" y2="358.49" gradientUnits="userSpaceOnUse">
<stop stop-color="white" stop-opacity="0"/>
<stop offset="0.515625" stop-color="white" stop-opacity="0.8"/>
<stop offset="1" stop-color="white" stop-opacity="0"/>
</linearGradient>
<linearGradient id="paint3_linear_2276_1077" x1="41.5" y1="283" x2="492.441" y2="271.059" gradientUnits="userSpaceOnUse">
<stop offset="0.459528" stop-color="#E42DDD"/>
<stop offset="1" stop-color="#FC81F7"/>
</linearGradient>
<clipPath id="clip0_2276_1077">
<rect width="20" height="20" fill="white" transform="translate(290 307)"/>
</clipPath>
</defs>
</svg>
