<svg width="169" height="24" viewBox="0 0 169 24" fill="none" xmlns="http://www.w3.org/2000/svg">
<path d="M0.624 0.119999H6.32L12.336 15.736L18.224 0.119999H23.856V23H19.6V5.72L12.784 23H11.408L4.464 5.72V23H0.624V0.119999ZM36.2295 20.312C37.6802 20.312 38.8108 19.8213 39.6215 18.84C40.4322 17.8373 40.8375 16.472 40.8375 14.744V14.52C40.8375 12.792 40.4322 11.4373 39.6215 10.456C38.8108 9.45333 37.6802 8.952 36.2295 8.952C34.7788 8.952 33.6375 9.44267 32.8055 10.424C31.9948 11.4053 31.5895 12.76 31.5895 14.488V14.744C31.5895 16.472 31.9948 17.8373 32.8055 18.84C33.6162 19.8213 34.7575 20.312 36.2295 20.312ZM42.3735 20.952C40.7522 22.5307 38.6935 23.32 36.1975 23.32C33.7015 23.32 31.6428 22.5413 30.0215 20.984C28.4215 19.4053 27.6215 17.3467 27.6215 14.808V14.552C27.6215 11.992 28.4322 9.912 30.0535 8.312C31.6748 6.712 33.7335 5.912 36.2295 5.912C38.7042 5.912 40.7522 6.70133 42.3735 8.28C43.9948 9.85867 44.8055 11.9173 44.8055 14.456V14.712C44.8055 17.2933 43.9948 19.3733 42.3735 20.952ZM46.076 6.264H50.236L54.62 19.032L58.94 6.264H62.748L56.7 23H52.188L46.076 6.264ZM72.4765 23.32C69.9592 23.32 67.9112 22.552 66.3325 21.016C64.7752 19.48 63.9965 17.4107 63.9965 14.808V14.552C63.9965 11.992 64.7752 9.912 66.3325 8.312C67.9112 6.712 69.9058 5.912 72.3165 5.912C74.5778 5.912 76.4552 6.616 77.9485 8.024C79.4632 9.432 80.2205 11.544 80.2205 14.36V15.48H67.9645C68.0285 17.08 68.4445 18.3067 69.2125 19.16C70.0018 20.0133 71.1218 20.44 72.5725 20.44C74.8338 20.44 76.1138 19.5867 76.4125 17.88H80.1565C79.8792 19.6507 79.0685 21.0053 77.7245 21.944C76.4018 22.8613 74.6525 23.32 72.4765 23.32ZM76.3805 12.888C76.1672 10.1147 74.8125 8.728 72.3165 8.728C71.1645 8.728 70.2045 9.10133 69.4365 9.848C68.6898 10.5733 68.2205 11.5867 68.0285 12.888H76.3805ZM83.804 6.264H87.676V8.824C88.1027 7.992 88.764 7.29867 89.66 6.744C90.556 6.18933 91.5907 5.912 92.764 5.912C95.0893 5.912 96.668 6.91467 97.5 8.92C98.1187 7.93867 98.94 7.192 99.964 6.68C100.988 6.168 102.055 5.912 103.164 5.912C104.807 5.912 106.14 6.456 107.164 7.544C108.209 8.61067 108.732 10.232 108.732 12.408V23H104.86V12.664C104.86 10.3173 103.868 9.144 101.884 9.144C100.86 9.144 99.9853 9.48533 99.26 10.168C98.556 10.8293 98.204 11.768 98.204 12.984V23H94.332V12.664C94.332 10.3173 93.34 9.144 91.356 9.144C90.332 9.144 89.4573 9.48533 88.732 10.168C88.028 10.8293 87.676 11.768 87.676 12.984V23H83.804V6.264ZM120.664 23.32C118.147 23.32 116.099 22.552 114.52 21.016C112.963 19.48 112.184 17.4107 112.184 14.808V14.552C112.184 11.992 112.963 9.912 114.52 8.312C116.099 6.712 118.093 5.912 120.504 5.912C122.765 5.912 124.643 6.616 126.136 8.024C127.651 9.432 128.408 11.544 128.408 14.36V15.48H116.152C116.216 17.08 116.632 18.3067 117.4 19.16C118.189 20.0133 119.309 20.44 120.76 20.44C123.021 20.44 124.301 19.5867 124.6 17.88H128.344C128.067 19.6507 127.256 21.0053 125.912 21.944C124.589 22.8613 122.84 23.32 120.664 23.32ZM124.568 12.888C124.355 10.1147 123 8.728 120.504 8.728C119.352 8.728 118.392 9.10133 117.624 9.848C116.877 10.5733 116.408 11.5867 116.216 12.888H124.568ZM131.992 6.264H135.864V8.92C136.29 8.04533 136.962 7.33067 137.88 6.776C138.818 6.2 139.949 5.912 141.272 5.912C143.042 5.912 144.44 6.456 145.464 7.544C146.488 8.61067 147 10.2533 147 12.472V23H143.128V12.824C143.128 11.544 142.861 10.616 142.328 10.04C141.794 9.44267 140.952 9.144 139.8 9.144C138.648 9.144 137.698 9.496 136.952 10.2C136.226 10.8827 135.864 11.864 135.864 13.144V23H131.992V6.264ZM157.281 23.288C155.617 23.288 154.359 22.8613 153.505 22.008C152.652 21.1547 152.225 19.928 152.225 18.328V9.176H149.985V6.264H152.225V2.584H156.097V6.264H159.777V9.176H156.097V17.976C156.097 19.4053 156.737 20.12 158.017 20.12C158.785 20.12 159.415 20.0133 159.905 19.8V22.872C159.159 23.1493 158.284 23.288 157.281 23.288Z" fill="white"/>
<path d="M165.827 23.224C165.123 23.224 164.525 22.9893 164.035 22.52C163.544 22.0293 163.299 21.432 163.299 20.728C163.299 20.024 163.544 19.4267 164.035 18.936C164.525 18.4453 165.123 18.2 165.827 18.2C166.552 18.2 167.16 18.4453 167.651 18.936C168.141 19.4267 168.387 20.024 168.387 20.728C168.387 21.432 168.141 22.0293 167.651 22.52C167.16 22.9893 166.552 23.224 165.827 23.224Z" fill="#EB9919"/>
</svg>
