<svg width="173" height="40" viewBox="0 0 173 40" fill="none" xmlns="http://www.w3.org/2000/svg">
<path d="M86.5796 21.974C85.3298 21.9798 84.1098 22.3515 83.0735 23.0422C82.0371 23.7329 81.231 24.7117 80.7568 25.8549C80.2826 26.9982 80.1616 28.2547 80.409 29.4658C80.6564 30.677 81.2612 31.7886 82.147 32.6603C83.0329 33.5319 84.16 34.1246 85.3862 34.3636C86.6125 34.6025 87.8828 34.477 89.0369 34.0028C90.191 33.5286 91.1772 32.727 91.8709 31.6992C92.5647 30.6714 92.935 29.4635 92.935 28.2278C92.9471 27.4008 92.7908 26.5797 92.4753 25.8136C92.1598 25.0475 91.6917 24.352 91.0987 23.7685C90.5057 23.185 89.8 22.7254 89.0237 22.4171C88.2473 22.1088 87.4161 21.9581 86.5796 21.974V21.974ZM86.5796 32.0243C85.811 32.0774 85.044 31.9007 84.3783 31.5172C83.7126 31.1336 83.1789 30.561 82.8468 29.8736C82.5147 29.1863 82.3994 28.416 82.5159 27.663C82.6324 26.91 82.9753 26.2091 83.5001 25.6513C84.0249 25.0936 84.7073 24.7048 85.4585 24.5355C86.2098 24.3663 86.9951 24.4244 87.7125 24.7023C88.4299 24.9802 89.0462 25.465 89.4812 26.0937C89.9162 26.7225 90.1498 27.4661 90.1517 28.2278C90.1757 28.7105 90.1017 29.193 89.934 29.647C89.7664 30.1009 89.5085 30.5171 89.1755 30.8709C88.8426 31.2247 88.4414 31.5091 87.9956 31.7072C87.5497 31.9053 87.0683 32.0131 86.5796 32.0243ZM72.7229 21.974C71.4724 21.9769 70.2509 22.3462 69.2126 23.0351C68.1744 23.7241 67.3659 24.7018 66.8894 25.8448C66.4129 26.9878 66.2898 28.2447 66.5355 29.4569C66.7813 30.6691 67.3849 31.782 68.2702 32.6551C69.1554 33.5283 70.2825 34.1225 71.5092 34.3626C72.7358 34.6027 74.0069 34.478 75.1619 34.0042C76.3169 33.5304 77.3039 32.7289 77.9983 31.7007C78.6927 30.6726 79.0633 29.4641 79.0633 28.2278C79.0755 27.4008 78.9192 26.5797 78.6037 25.8136C78.2882 25.0475 77.8201 24.352 77.2271 23.7685C76.6341 23.185 75.9284 22.7254 75.152 22.4171C74.3757 22.1088 73.5445 21.9581 72.708 21.974H72.7229ZM72.7229 32.0243C71.9539 32.0804 71.1856 31.9064 70.518 31.5248C69.8505 31.1432 69.3146 30.5718 68.9801 29.8849C68.6457 29.198 68.5281 28.4274 68.6428 27.6736C68.7575 26.9197 69.099 26.2174 69.6231 25.6582C70.1471 25.0989 70.8293 24.7086 71.5808 24.538C72.3323 24.3674 73.1184 24.4244 73.8367 24.7017C74.555 24.979 75.1722 25.4636 75.608 26.0925C76.0438 26.7214 76.278 27.4655 76.2801 28.2278C76.3041 28.7105 76.23 29.193 76.0624 29.647C75.8947 30.1009 75.6368 30.5171 75.3039 30.8709C74.971 31.2247 74.5698 31.5091 74.1239 31.7072C73.6781 31.9053 73.1967 32.0131 72.708 32.0243H72.7229ZM56.2168 23.9017V26.5503H62.6466C62.5458 27.7979 62.0212 28.9751 61.1582 29.8906C60.5149 30.5384 59.7416 31.0459 58.888 31.3804C58.0344 31.715 57.1194 31.8691 56.2019 31.833C54.3072 31.833 52.49 31.0888 51.1502 29.7642C49.8104 28.4396 49.0578 26.6431 49.0578 24.7698C49.0578 22.8966 49.8104 21.1 51.1502 19.7754C52.49 18.4508 54.3072 17.7067 56.2019 17.7067C58.0145 17.6774 59.7647 18.3601 61.0689 19.6049L62.9592 17.7361C62.0787 16.8547 61.0284 16.157 59.8702 15.6844C58.7121 15.2117 57.4697 14.9737 56.2168 14.9844C54.8937 14.9335 53.5737 15.1472 52.3361 15.6127C51.0984 16.0782 49.9686 16.7859 49.0142 17.6934C48.0599 18.601 47.3006 19.6896 46.782 20.8942C46.2634 22.0988 45.9961 23.3945 45.9961 24.7036C45.9961 26.0128 46.2634 27.3084 46.782 28.513C47.3006 29.7176 48.0599 30.8063 49.0142 31.7138C49.9686 32.6213 51.0984 33.329 52.3361 33.7945C53.5737 34.26 54.8937 34.4737 56.2168 34.4228C57.4908 34.4797 58.7623 34.2662 59.9459 33.7967C61.1294 33.3271 62.1975 32.6124 63.0782 31.7006C64.6375 30.0068 65.4701 27.7802 65.4001 25.4909C65.4049 24.9331 65.355 24.3763 65.2512 23.8281L56.2168 23.9017ZM123.655 25.9617C123.267 24.8327 122.541 23.8469 121.573 23.1348C120.606 22.4227 119.443 22.0179 118.237 21.974C117.423 21.9724 116.617 22.136 115.87 22.4545C115.122 22.773 114.448 23.2398 113.89 23.8259C113.332 24.4121 112.902 25.1051 112.626 25.8622C112.349 26.6194 112.233 27.4245 112.284 28.2278C112.266 29.0503 112.415 29.8679 112.724 30.6318C113.033 31.3957 113.494 32.0903 114.08 32.6741C114.667 33.2578 115.366 33.7187 116.136 34.0293C116.907 34.3399 117.733 34.4937 118.565 34.4817C119.606 34.4872 120.632 34.2374 121.552 33.7546C122.471 33.2718 123.255 32.5711 123.834 31.7153L121.675 30.2438C121.353 30.7747 120.897 31.2138 120.352 31.5182C119.807 31.8225 119.191 31.9817 118.565 31.9801C117.92 32.0044 117.283 31.8364 116.736 31.4979C116.189 31.1593 115.758 30.6659 115.499 30.0819L123.968 26.6239L123.655 25.9617ZM115.022 28.0513C114.992 27.5961 115.054 27.1396 115.205 26.7084C115.355 26.2773 115.591 25.8801 115.899 25.5403C116.207 25.2004 116.58 24.9247 116.997 24.7292C117.414 24.5338 117.866 24.4225 118.327 24.402C118.807 24.3707 119.286 24.4795 119.704 24.715C120.122 24.9504 120.461 25.3021 120.678 25.7263L115.022 28.0513ZM108.146 34.1138H110.929V15.7202H108.146V34.1138ZM103.592 23.3719H103.488C103.068 22.9082 102.554 22.5375 101.98 22.2839C101.405 22.0303 100.783 21.8996 100.154 21.9004C98.5271 21.9784 96.9932 22.6721 95.87 23.8378C94.7468 25.0034 94.1202 26.5517 94.1202 28.1616C94.1202 29.7716 94.7468 31.3198 95.87 32.4855C96.9932 33.6511 98.5271 34.3448 100.154 34.4228C100.784 34.4333 101.41 34.307 101.986 34.0528C102.562 33.7985 103.074 33.4226 103.488 32.9513H103.577V33.8489C103.577 36.2475 102.282 37.5277 100.198 37.5277C99.5042 37.5116 98.8307 37.2917 98.2635 36.8961C97.6963 36.5004 97.2611 35.9468 97.0131 35.3057L94.5871 36.3063C95.0437 37.4046 95.8219 38.3429 96.8216 39.001C97.8214 39.6591 98.9972 40.0069 100.198 39.9998C103.458 39.9998 106.152 38.1015 106.152 33.4811V22.3419H103.592V23.3719ZM100.407 32.0243C99.4465 31.9406 98.553 31.5045 97.9021 30.8017C97.2512 30.099 96.8901 29.1807 96.8901 28.2278C96.8901 27.275 97.2512 26.3567 97.9021 25.6539C98.553 24.9512 99.4465 24.515 100.407 24.4314C100.883 24.4555 101.349 24.5736 101.778 24.7787C102.207 24.9838 102.59 25.2717 102.905 25.6255C103.22 25.9793 103.46 26.3918 103.611 26.8387C103.762 27.2857 103.822 27.758 103.785 28.2278C103.826 28.6997 103.769 29.1749 103.619 29.6245C103.468 30.0742 103.227 30.489 102.91 30.8438C102.593 31.1987 102.206 31.4863 101.773 31.6892C101.34 31.8921 100.87 32.0061 100.392 32.0243H100.407ZM136.693 15.7202H130.04V34.1138H132.823V27.1389H136.708C137.501 27.1953 138.298 27.0894 139.048 26.828C139.798 26.5667 140.485 26.1553 141.067 25.6196C141.65 25.0839 142.114 24.4354 142.431 23.7145C142.749 22.9936 142.913 22.2158 142.913 21.4295C142.913 20.6433 142.749 19.8655 142.431 19.1446C142.114 18.4237 141.65 17.7752 141.067 17.2395C140.485 16.7038 139.798 16.2924 139.048 16.031C138.298 15.7696 137.501 15.6638 136.708 15.7202H136.693ZM136.693 24.5491H132.808V18.2806H136.753C137.599 18.2806 138.411 18.6131 139.01 19.205C139.609 19.797 139.945 20.5998 139.945 21.4369C139.945 22.274 139.609 23.0768 139.01 23.6688C138.411 24.2607 137.599 24.5932 136.753 24.5932L136.693 24.5491ZM153.854 21.9004C152.841 21.8405 151.832 22.0746 150.951 22.574C150.071 23.0733 149.357 23.816 148.898 24.711L151.368 25.7263C151.612 25.2824 151.981 24.9181 152.43 24.6778C152.879 24.4374 153.39 24.3314 153.899 24.3725C154.252 24.3317 154.61 24.3609 154.952 24.4584C155.294 24.5558 155.612 24.7196 155.889 24.9401C156.167 25.1606 156.396 25.4335 156.566 25.7428C156.735 26.0521 156.84 26.3917 156.875 26.7416V26.9329C155.982 26.465 154.985 26.2224 153.973 26.2266C151.309 26.2266 148.615 27.6981 148.615 30.3615C148.641 30.9294 148.782 31.4863 149.03 31.9993C149.278 32.5124 149.627 32.9711 150.057 33.3483C150.488 33.7256 150.99 34.0138 151.535 34.1958C152.079 34.3778 152.655 34.45 153.229 34.4081C153.93 34.4579 154.631 34.3202 155.26 34.0095C155.888 33.6988 156.421 33.2265 156.801 32.6423H156.89V34.1138H159.569V27.0359C159.569 23.8134 157.099 21.9446 153.928 21.9446L153.854 21.9004ZM153.512 31.9801C152.604 31.9801 151.339 31.524 151.339 30.4204C151.339 28.9489 152.916 28.4633 154.315 28.4633C155.2 28.4417 156.073 28.6551 156.846 29.0813C156.753 29.878 156.371 30.6145 155.772 31.1553C155.174 31.6961 154.397 32.0047 153.586 32.0243L153.512 31.9801ZM169.333 22.3419L166.148 30.3174H166.059L162.755 22.3419H159.778L164.734 33.4958L161.906 39.6908H164.808L172.429 22.3419H169.333ZM144.314 34.1138H147.097V15.7202H144.314V34.1138Z" fill="white"/>
<path d="M55.6482 5.12957C55.6735 5.6693 55.5876 6.20848 55.3958 6.71438C55.2039 7.22029 54.91 7.68236 54.532 8.07256C54.1099 8.50605 53.6001 8.84672 53.0359 9.07238C52.4717 9.29803 51.8658 9.40359 51.2576 9.38218C50.3347 9.37504 49.4346 9.09881 48.6699 8.58809C47.9051 8.07738 47.3099 7.3549 46.9587 6.51118C46.6075 5.66746 46.5159 4.74002 46.6955 3.84509C46.8751 2.95016 47.3178 2.12753 47.9682 1.48027C48.3957 1.04881 48.9082 0.708654 49.474 0.48086C50.0398 0.253065 50.6468 0.142474 51.2576 0.155931C51.8868 0.153859 52.5098 0.279048 53.0882 0.523804C53.6268 0.738574 54.1063 1.07643 54.4873 1.5097L53.6985 2.28959C53.4014 1.94025 53.0262 1.664 52.6026 1.48268C52.179 1.30136 51.7185 1.21993 51.2576 1.24483C50.7926 1.24258 50.3321 1.33316 49.9034 1.51116C49.4748 1.68915 49.0869 1.95089 48.7631 2.28068C48.4393 2.61046 48.1861 3.00151 48.0188 3.43036C47.8516 3.85922 47.7736 4.31705 47.7896 4.77641C47.7799 5.46233 47.9758 6.13573 48.3527 6.71167C48.7297 7.28762 49.2707 7.7403 49.9075 8.01261C50.5443 8.28492 51.2485 8.36465 51.9311 8.24176C52.6137 8.11887 53.2443 7.79886 53.7431 7.3221C54.2011 6.83141 54.4653 6.1942 54.4873 5.52688H51.2576V4.4674H55.5887C55.6284 4.68594 55.6483 4.90754 55.6482 5.12957ZM62.465 1.45084H58.4464V4.24668H62.1078V5.30615H58.4464V8.10199H62.465V9.19089H57.2557V0.361939H62.465V1.45084ZM67.3468 9.19089H66.2008V1.45084H63.7003V0.361939H69.9069V1.45084H67.3468V9.19089ZM74.2827 9.19089V0.361939H75.4287V9.19089H74.2827ZM80.5189 9.19089H79.3729V1.45084H76.8724V0.361939H83.0045V1.45084H80.5189V9.19089ZM94.6287 8.04313C93.7586 8.89857 92.5814 9.37876 91.3543 9.37876C90.1272 9.37876 88.95 8.89857 88.0799 8.04313C87.2341 7.15806 86.763 5.98663 86.763 4.76906C86.763 3.55149 87.2341 2.38006 88.0799 1.49499C88.5087 1.06788 89.0189 0.728893 89.5809 0.497568C90.1428 0.266242 90.7456 0.147149 91.3543 0.147149C91.963 0.147149 92.5658 0.266242 93.1277 0.497568C93.6897 0.728893 94.1998 1.06788 94.6287 1.49499C95.4778 2.37837 95.9512 3.55044 95.9512 4.76906C95.9512 5.98768 95.4778 7.15975 94.6287 8.04313ZM88.9282 7.30738C89.5726 7.94177 90.4449 8.29795 91.3543 8.29795C92.2637 8.29795 93.136 7.94177 93.7803 7.30738C94.4162 6.61434 94.7685 5.71212 94.7685 4.77641C94.7685 3.84071 94.4162 2.93849 93.7803 2.24545C93.136 1.61106 92.2637 1.25488 91.3543 1.25488C90.4449 1.25488 89.5726 1.61106 88.9282 2.24545C88.2924 2.93849 87.9401 3.84071 87.9401 4.77641C87.9401 5.71212 88.2924 6.61434 88.9282 7.30738ZM97.5608 9.19089V0.361939H98.9599L103.306 7.23381V0.361939H104.452V9.19089H103.261L98.7217 1.9953V9.19089H97.5608Z" fill="white"/>
<path fill-rule="evenodd" clip-rule="evenodd" d="M91.3543 0.294298C90.7652 0.294298 90.1819 0.40955 89.6381 0.633413C89.0948 0.857042 88.6016 1.18464 88.1868 1.59736C87.368 2.45496 86.9118 3.58968 86.9118 4.76906C86.9118 5.94829 87.3679 7.08286 88.1865 7.94042C89.0285 8.76742 90.1673 9.23161 91.3543 9.23161C92.5414 9.23161 93.6802 8.76736 94.5223 7.94024C95.3442 7.08438 95.8024 5.94925 95.8024 4.76906C95.8024 3.58872 95.344 2.45345 94.522 1.59756C94.1072 1.18474 93.6139 0.857077 93.0705 0.633413C92.5267 0.40955 91.9434 0.294298 91.3543 0.294298ZM89.5236 0.361722C90.1038 0.122935 90.7259 0 91.3543 0C91.9827 0 92.6048 0.122935 93.1849 0.361722C93.7651 0.60051 94.2916 0.95043 94.7343 1.39132L94.7366 1.3936C95.612 2.30433 96.1001 3.51271 96.1001 4.76906C96.1001 6.02541 95.612 7.23376 94.7366 8.14449L94.7337 8.14751C93.8357 9.03037 92.6207 9.52591 91.3543 9.52591C90.0879 9.52591 88.8729 9.03033 87.9749 8.14747L87.9716 8.14423C87.0998 7.23184 86.6141 6.02421 86.6141 4.76906C86.6141 3.51391 87.0998 2.30632 87.9717 1.39394L87.9742 1.39129C88.4169 0.950398 88.9435 0.60051 89.5236 0.361722ZM51.2542 0.303044C50.6638 0.290036 50.077 0.39694 49.5301 0.617141C48.9832 0.837343 48.4878 1.16616 48.0746 1.58324L48.0738 1.58399C47.4441 2.21069 47.0154 3.0072 46.8415 3.87373C46.6676 4.74025 46.7562 5.63824 47.0963 6.45517C47.4364 7.27211 48.0127 7.97165 48.7532 8.46616C49.4936 8.96066 50.3652 9.22812 51.2587 9.23504L51.2628 9.23507C51.8502 9.25574 52.4353 9.15387 52.9801 8.93597C53.5249 8.71809 54.017 8.38918 54.4246 7.97065C54.7886 7.59488 55.0716 7.1499 55.2564 6.66272C55.4412 6.17548 55.5239 5.6562 55.4996 5.13639L55.6482 5.12957L55.4994 5.12951C55.4995 4.95714 55.487 4.78504 55.4621 4.61455H51.4064V5.37973H54.6411L54.6361 5.53168C54.6129 6.23431 54.3347 6.90523 53.8525 7.42189L53.8467 7.42807C53.3267 7.92504 52.6693 8.25844 51.9578 8.38653C51.2462 8.51463 50.5122 8.43151 49.8484 8.14767C49.1846 7.86382 48.6207 7.39196 48.2278 6.79161C47.8356 6.19226 47.6313 5.49166 47.6408 4.77792C47.6246 4.29995 47.7059 3.82365 47.88 3.37742C48.0544 2.93008 48.3185 2.52218 48.6563 2.17818C48.9941 1.83418 49.3987 1.56116 49.8458 1.37549C50.2915 1.19039 50.7704 1.09591 51.2539 1.09767C51.7364 1.07228 52.2183 1.15784 52.6617 1.34764C53.0569 1.51679 53.412 1.76462 53.705 2.07504L54.282 1.5046C53.9326 1.1375 53.5064 0.849233 53.0326 0.660271L53.0297 0.659115C52.4699 0.422255 51.867 0.301074 51.258 0.30308L51.2542 0.303044ZM55.7971 5.12619C55.8228 5.68469 55.7337 6.24255 55.5351 6.76605C55.3361 7.29062 55.0314 7.76975 54.6395 8.17434C54.2029 8.62273 53.6753 8.97538 53.0917 9.20879C52.5088 9.44194 51.8828 9.55115 51.2543 9.52931C50.3029 9.52155 49.375 9.23658 48.5865 8.71003C47.7976 8.1831 47.1834 7.43768 46.821 6.56718C46.4587 5.69667 46.3642 4.7398 46.5495 3.81645C46.7348 2.89328 47.1914 2.04467 47.8623 1.37693C48.3039 0.931259 48.8334 0.5799 49.4178 0.344578C50.0019 0.109427 50.6285 -0.00485654 51.259 0.00877691C51.9073 0.00689764 52.5492 0.135912 53.1454 0.387918C53.7052 0.611411 54.2035 0.96273 54.5996 1.41315L54.6907 1.51671L53.689 2.50709L53.5846 2.38428C53.3023 2.05241 52.9459 1.78998 52.5435 1.61772C52.141 1.44546 51.7036 1.36811 51.2657 1.39176L51.2568 1.39224C50.812 1.39009 50.3712 1.4765 49.9611 1.64683C49.5509 1.81715 49.1798 2.0676 48.8699 2.38318C48.56 2.69875 48.3178 3.07293 48.1577 3.4833C47.9976 3.89367 47.923 4.33178 47.9384 4.77134L47.9386 4.77849C47.9293 5.43533 48.1168 6.0802 48.4777 6.63174C48.8386 7.18328 49.3567 7.61678 49.9666 7.87755C50.5764 8.13832 51.2507 8.21468 51.9044 8.09699C52.5567 7.97956 53.1594 7.67417 53.6366 7.21922C54.0338 6.79236 54.2764 6.24892 54.3291 5.67403H51.1087V4.32025H55.7132L55.7352 4.44139C55.7763 4.66741 55.797 4.89657 55.7971 5.12619ZM57.1069 0.21479H62.6138V1.59799H58.5952V4.09953H62.2566V5.4533H58.5952V7.95484H62.6138V9.33804H57.1069V0.21479ZM57.4045 0.509088V9.04374H62.3162V8.24914H58.2975V5.159H61.9589V4.39383H58.2975V1.30369H62.3162V0.509088H57.4045ZM63.5515 0.21479H70.0557V1.59799H67.4957V9.33804H66.052V1.59799H63.5515V0.21479ZM63.8492 0.509088V1.30369H66.3496V9.04374H67.198V1.30369H69.758V0.509088H63.8492ZM74.1338 0.21479H75.5775V9.33804H74.1338V0.21479ZM74.4315 0.509088V9.04374H75.2799V0.509088H74.4315ZM76.7236 0.21479H83.1534V1.59799H80.6678V9.33804H79.2241V1.59799H76.7236V0.21479ZM77.0213 0.509088V1.30369H79.5217V9.04374H80.3701V1.30369H82.8557V0.509088H77.0213ZM97.412 0.21479H99.0423L103.157 6.72092V0.21479H104.601V9.33804H103.179L98.8706 2.50927V9.33804H97.412V0.21479ZM97.7096 0.509088V9.04374H98.5729V1.48133L103.344 9.04374H104.303V0.509088H103.455V7.7467L98.8774 0.509088H97.7096ZM88.8232 2.14118C89.4955 1.47933 90.4056 1.10773 91.3543 1.10773C92.303 1.10773 93.2131 1.47933 93.8854 2.14118L93.8907 2.14646C94.5515 2.86657 94.9173 3.80416 94.9173 4.77641C94.9173 5.74867 94.5513 6.68613 93.8906 7.40625L93.8855 7.41178C93.2132 8.07364 92.303 8.4451 91.3543 8.4451C90.4056 8.4451 89.4955 8.0735 88.8232 7.41165L88.9282 7.30738L88.818 7.40625C88.1573 6.68613 87.7913 5.74867 87.7913 4.77641C87.7913 3.80416 88.1573 2.8667 88.818 2.14658L88.8232 2.14118ZM89.036 7.20576C89.6522 7.81103 90.4856 8.1508 91.3543 8.1508C92.223 8.1508 93.0564 7.81103 93.6726 7.20576C94.2821 6.54015 94.6196 5.67433 94.6196 4.77641C94.6196 3.8785 94.2821 3.01268 93.6726 2.34707C93.0564 1.7418 92.223 1.40203 91.3543 1.40203C90.4856 1.40203 89.6522 1.7418 89.036 2.34707C88.4265 3.01268 88.089 3.8785 88.089 4.77641C88.089 5.67433 88.4265 6.54015 89.036 7.20576Z" fill="white"/>
<path d="M0.697797 1.06492C0.212684 1.64043 -0.0321714 2.37719 0.0131441 3.12501V35.6744C-0.0321714 36.4222 0.212684 37.159 0.697797 37.7345L0.801982 37.8375L19.2429 19.6204V19.1937L0.801982 0.961914L0.697797 1.06492Z" fill="url(#paint0_linear_2271_785)"/>
<path d="M25.3484 25.6975L19.2461 19.6203V19.1935L25.3484 13.1016L25.4824 13.1751L32.7903 17.2806C34.874 18.4431 34.874 20.356 32.7903 21.5332L25.5121 25.624L25.3484 25.6975Z" fill="url(#paint1_linear_2271_785)"/>
<path d="M25.5253 25.6091L19.2443 19.3994L0.699219 37.7342C1.12394 38.1033 1.66575 38.3142 2.23102 38.3303C2.79629 38.3464 3.34949 38.1668 3.79503 37.8225L25.5401 25.6091" fill="url(#paint2_linear_2271_785)"/>
<path d="M25.5245 13.19L3.77941 0.976573C3.33387 0.632264 2.78066 0.452651 2.2154 0.468771C1.65013 0.484892 1.10832 0.695736 0.683594 1.06486L19.2436 19.3996L25.5245 13.19Z" fill="url(#paint3_linear_2271_785)"/>
<path opacity="0.2" d="M25.3467 25.4771L3.78015 37.6169C3.35044 37.9345 2.82831 38.1061 2.29178 38.1061C1.75524 38.1061 1.23311 37.9345 0.803404 37.6169L0.699219 37.7199L0.803404 37.8229C1.23214 38.1428 1.75464 38.3158 2.29178 38.3158C2.82891 38.3158 3.35141 38.1428 3.78015 37.8229L25.5253 25.6095L25.3467 25.4771Z" fill="black"/>
<path opacity="0.12" d="M0.697797 37.5282C0.212684 36.9527 -0.0321714 36.2159 0.0131441 35.4681V35.6888C-0.0321714 36.4366 0.212684 37.1734 0.697797 37.7489L0.801982 37.6459L0.697797 37.5282ZM32.7871 21.3124L25.3452 25.4767L25.4792 25.6091L32.7871 21.5184C33.2018 21.3258 33.5577 21.0285 33.819 20.6564C34.0803 20.2844 34.2378 19.8508 34.2755 19.3994C34.1918 19.8095 34.0141 20.1952 33.7561 20.5268C33.498 20.8585 33.1666 21.1272 32.7871 21.3124Z" fill="black"/>
<path opacity="0.25" d="M3.78047 1.18227L32.7888 17.4864C33.1683 17.6716 33.4998 17.9403 33.7578 18.2719C34.0158 18.6035 34.1935 18.9892 34.2772 19.3993C34.2395 18.9479 34.0821 18.5143 33.8208 18.1423C33.5594 17.7703 33.2035 17.473 32.7888 17.2804L3.78047 0.976255C1.69675 -0.186224 0 0.784963 0 3.13935V3.36007C0.0446512 0.990971 1.71163 0.0197869 3.78047 1.18227V1.18227Z" fill="white"/>
<defs>
<linearGradient id="paint0_linear_2271_785" x1="17.6057" y1="2.78656" x2="-7.08432" y2="27.7598" gradientUnits="userSpaceOnUse">
<stop stop-color="#00A0FF"/>
<stop offset="0.01" stop-color="#00A1FF"/>
<stop offset="0.26" stop-color="#00BEFF"/>
<stop offset="0.51" stop-color="#00D2FF"/>
<stop offset="0.76" stop-color="#00DFFF"/>
<stop offset="1" stop-color="#00E3FF"/>
</linearGradient>
<linearGradient id="paint1_linear_2271_785" x1="35.514" y1="19.3995" x2="-0.489715" y2="19.3995" gradientUnits="userSpaceOnUse">
<stop stop-color="#FFE000"/>
<stop offset="0.41" stop-color="#FFBD00"/>
<stop offset="0.78" stop-color="#FFA500"/>
<stop offset="1" stop-color="#FF9C00"/>
</linearGradient>
<linearGradient id="paint2_linear_2271_785" x1="22.1169" y1="22.7838" x2="-11.3722" y2="56.6423" gradientUnits="userSpaceOnUse">
<stop stop-color="#FF3A44"/>
<stop offset="1" stop-color="#C31162"/>
</linearGradient>
<linearGradient id="paint3_linear_2271_785" x1="-3.97501" y1="-9.76532" x2="10.9744" y2="5.35556" gradientUnits="userSpaceOnUse">
<stop stop-color="#32A071"/>
<stop offset="0.07" stop-color="#2DA771"/>
<stop offset="0.48" stop-color="#15CF74"/>
<stop offset="0.8" stop-color="#06E775"/>
<stop offset="1" stop-color="#00F076"/>
</linearGradient>
</defs>
</svg>
